<svg width="330" height="67" viewBox="0 0 330 67" fill="none" xmlns="http://www.w3.org/2000/svg">
<rect width="330" height="67" fill="black" fill-opacity="0"/>
<rect width="330" height="67" rx="5" fill="#F6CF01"/>
<path d="M92.8066 34.6084H86.6191V41H83.3965V25.3594H93.5801V27.9697H86.6191V32.0088H92.8066V34.6084ZM98.5215 41H95.4062V29.377H98.5215V41ZM95.2236 26.3691C95.2236 25.9036 95.3776 25.5205 95.6855 25.2197C96.0007 24.9189 96.4268 24.7686 96.9639 24.7686C97.4938 24.7686 97.9163 24.9189 98.2314 25.2197C98.5465 25.5205 98.7041 25.9036 98.7041 26.3691C98.7041 26.8418 98.543 27.2285 98.2207 27.5293C97.9056 27.8301 97.4867 27.9805 96.9639 27.9805C96.4411 27.9805 96.0186 27.8301 95.6963 27.5293C95.3812 27.2285 95.2236 26.8418 95.2236 26.3691ZM103.946 29.377L104.043 30.7197C104.874 29.6813 105.987 29.1621 107.384 29.1621C108.616 29.1621 109.532 29.5238 110.134 30.2471C110.735 30.9704 111.043 32.0518 111.058 33.4912V41H107.953V33.5664C107.953 32.9076 107.81 32.4313 107.523 32.1377C107.237 31.8369 106.761 31.6865 106.095 31.6865C105.221 31.6865 104.566 32.0589 104.129 32.8037V41H101.024V29.377H103.946ZM120.156 41C120.013 40.7207 119.909 40.3734 119.845 39.958C119.093 40.7959 118.115 41.2148 116.912 41.2148C115.773 41.2148 114.828 40.8854 114.076 40.2266C113.331 39.5677 112.959 38.737 112.959 37.7344C112.959 36.5026 113.414 35.5573 114.323 34.8984C115.24 34.2396 116.561 33.9066 118.287 33.8994H119.716V33.2334C119.716 32.6963 119.576 32.2666 119.297 31.9443C119.025 31.6221 118.591 31.4609 117.997 31.4609C117.474 31.4609 117.062 31.5863 116.762 31.8369C116.468 32.0876 116.321 32.4313 116.321 32.8682H113.217C113.217 32.195 113.424 31.5719 113.84 30.999C114.255 30.4261 114.842 29.9785 115.602 29.6562C116.361 29.3268 117.213 29.1621 118.158 29.1621C119.59 29.1621 120.726 29.5238 121.563 30.2471C122.409 30.9632 122.831 31.973 122.831 33.2764V38.3145C122.838 39.4173 122.992 40.2516 123.293 40.8174V41H120.156ZM117.589 38.8408C118.047 38.8408 118.47 38.7406 118.856 38.54C119.243 38.3324 119.53 38.0566 119.716 37.7129V35.7148H118.556C117.002 35.7148 116.174 36.252 116.074 37.3262L116.063 37.5088C116.063 37.8955 116.2 38.2142 116.472 38.4648C116.744 38.7155 117.116 38.8408 117.589 38.8408ZM128.492 41H125.377V24.5H128.492V41ZM134.336 41H131.221V29.377H134.336V41ZM131.038 26.3691C131.038 25.9036 131.192 25.5205 131.5 25.2197C131.815 24.9189 132.241 24.7686 132.778 24.7686C133.308 24.7686 133.731 24.9189 134.046 25.2197C134.361 25.5205 134.519 25.9036 134.519 26.3691C134.519 26.8418 134.357 27.2285 134.035 27.5293C133.72 27.8301 133.301 27.9805 132.778 27.9805C132.256 27.9805 131.833 27.8301 131.511 27.5293C131.196 27.2285 131.038 26.8418 131.038 26.3691ZM140.47 38.4971H146.152V41H136.506V39.1094L141.974 31.8906H136.667V29.377H145.98V31.2139L140.47 38.4971ZM154.832 41C154.689 40.7207 154.585 40.3734 154.521 39.958C153.769 40.7959 152.791 41.2148 151.588 41.2148C150.449 41.2148 149.504 40.8854 148.752 40.2266C148.007 39.5677 147.635 38.737 147.635 37.7344C147.635 36.5026 148.09 35.5573 148.999 34.8984C149.916 34.2396 151.237 33.9066 152.963 33.8994H154.392V33.2334C154.392 32.6963 154.252 32.2666 153.973 31.9443C153.701 31.6221 153.267 31.4609 152.673 31.4609C152.15 31.4609 151.738 31.5863 151.438 31.8369C151.144 32.0876 150.997 32.4313 150.997 32.8682H147.893C147.893 32.195 148.1 31.5719 148.516 30.999C148.931 30.4261 149.518 29.9785 150.277 29.6562C151.036 29.3268 151.889 29.1621 152.834 29.1621C154.266 29.1621 155.401 29.5238 156.239 30.2471C157.084 30.9632 157.507 31.973 157.507 33.2764V38.3145C157.514 39.4173 157.668 40.2516 157.969 40.8174V41H154.832ZM152.265 38.8408C152.723 38.8408 153.146 38.7406 153.532 38.54C153.919 38.3324 154.205 38.0566 154.392 37.7129V35.7148H153.231C151.677 35.7148 150.85 36.252 150.75 37.3262L150.739 37.5088C150.739 37.8955 150.875 38.2142 151.147 38.4648C151.42 38.7155 151.792 38.8408 152.265 38.8408ZM166.423 32.2881C166 32.2308 165.628 32.2021 165.306 32.2021C164.131 32.2021 163.361 32.5996 162.996 33.3945V41H159.892V29.377H162.824L162.91 30.7627C163.533 29.6956 164.396 29.1621 165.499 29.1621C165.843 29.1621 166.165 29.2087 166.466 29.3018L166.423 32.2881ZM178.239 38.7119C178.812 38.7119 179.278 38.5544 179.636 38.2393C179.994 37.9242 180.18 37.5052 180.194 36.9824H183.105C183.098 37.7702 182.883 38.4935 182.461 39.1523C182.038 39.804 181.458 40.3125 180.721 40.6777C179.99 41.0358 179.181 41.2148 178.293 41.2148C176.632 41.2148 175.321 40.6885 174.361 39.6357C173.402 38.5758 172.922 37.1149 172.922 35.2529V35.0488C172.922 33.2585 173.398 31.8298 174.351 30.7627C175.303 29.6956 176.61 29.1621 178.271 29.1621C179.725 29.1621 180.889 29.5775 181.763 30.4082C182.644 31.2318 183.091 32.3311 183.105 33.7061H180.194C180.18 33.1045 179.994 32.6175 179.636 32.2451C179.278 31.8656 178.805 31.6758 178.218 31.6758C177.494 31.6758 176.947 31.9408 176.574 32.4707C176.209 32.9935 176.026 33.8457 176.026 35.0273V35.3496C176.026 36.5456 176.209 37.4049 176.574 37.9277C176.939 38.4505 177.494 38.7119 178.239 38.7119ZM184.395 35.0811C184.395 33.9281 184.617 32.9004 185.061 31.998C185.505 31.0957 186.142 30.3975 186.973 29.9033C187.811 29.4092 188.781 29.1621 189.884 29.1621C191.452 29.1621 192.73 29.6419 193.719 30.6016C194.714 31.5612 195.269 32.8646 195.384 34.5117L195.405 35.3066C195.405 37.0898 194.908 38.5221 193.912 39.6035C192.917 40.6777 191.581 41.2148 189.905 41.2148C188.229 41.2148 186.89 40.6777 185.888 39.6035C184.892 38.5293 184.395 37.0684 184.395 35.2207V35.0811ZM187.499 35.3066C187.499 36.4095 187.707 37.2546 188.122 37.8418C188.537 38.4219 189.132 38.7119 189.905 38.7119C190.657 38.7119 191.244 38.4255 191.667 37.8525C192.09 37.2725 192.301 36.3486 192.301 35.0811C192.301 33.9997 192.09 33.1618 191.667 32.5674C191.244 31.973 190.65 31.6758 189.884 31.6758C189.125 31.6758 188.537 31.973 188.122 32.5674C187.707 33.1546 187.499 34.0677 187.499 35.3066ZM200.229 29.377L200.325 30.6768C201.149 29.667 202.262 29.1621 203.666 29.1621C205.163 29.1621 206.19 29.7529 206.749 30.9346C207.565 29.7529 208.729 29.1621 210.24 29.1621C211.501 29.1621 212.439 29.5309 213.055 30.2686C213.671 30.999 213.979 32.1019 213.979 33.5771V41H210.863V33.5879C210.863 32.929 210.734 32.4492 210.477 32.1484C210.219 31.8405 209.764 31.6865 209.112 31.6865C208.181 31.6865 207.537 32.1305 207.179 33.0186L207.189 41H204.085V33.5986C204.085 32.9255 203.952 32.4385 203.688 32.1377C203.423 31.8369 202.971 31.6865 202.334 31.6865C201.453 31.6865 200.816 32.0518 200.422 32.7822V41H197.317V29.377H200.229ZM226.837 35.2959C226.837 37.0863 226.429 38.5221 225.612 39.6035C224.803 40.6777 223.707 41.2148 222.325 41.2148C221.151 41.2148 220.202 40.8066 219.479 39.9902V45.4688H216.374V29.377H219.253L219.36 30.5156C220.112 29.6133 221.093 29.1621 222.304 29.1621C223.736 29.1621 224.85 29.6921 225.645 30.752C226.439 31.8118 226.837 33.2728 226.837 35.1348V35.2959ZM223.732 35.0703C223.732 33.9889 223.539 33.1546 223.152 32.5674C222.773 31.9801 222.218 31.6865 221.487 31.6865C220.513 31.6865 219.844 32.0589 219.479 32.8037V37.5625C219.858 38.3288 220.535 38.7119 221.509 38.7119C222.991 38.7119 223.732 37.498 223.732 35.0703ZM235.302 32.2881C234.879 32.2308 234.507 32.2021 234.185 32.2021C233.01 32.2021 232.24 32.5996 231.875 33.3945V41H228.771V29.377H231.703L231.789 30.7627C232.412 29.6956 233.275 29.1621 234.378 29.1621C234.722 29.1621 235.044 29.2087 235.345 29.3018L235.302 32.2881ZM243.219 41C243.076 40.7207 242.972 40.3734 242.907 39.958C242.155 40.7959 241.178 41.2148 239.975 41.2148C238.836 41.2148 237.891 40.8854 237.139 40.2266C236.394 39.5677 236.021 38.737 236.021 37.7344C236.021 36.5026 236.476 35.5573 237.386 34.8984C238.302 34.2396 239.624 33.9066 241.35 33.8994H242.778V33.2334C242.778 32.6963 242.639 32.2666 242.359 31.9443C242.087 31.6221 241.654 31.4609 241.06 31.4609C240.537 31.4609 240.125 31.5863 239.824 31.8369C239.531 32.0876 239.384 32.4313 239.384 32.8682H236.279C236.279 32.195 236.487 31.5719 236.902 30.999C237.318 30.4261 237.905 29.9785 238.664 29.6562C239.423 29.3268 240.275 29.1621 241.221 29.1621C242.653 29.1621 243.788 29.5238 244.626 30.2471C245.471 30.9632 245.894 31.973 245.894 33.2764V38.3145C245.901 39.4173 246.055 40.2516 246.355 40.8174V41H243.219ZM240.651 38.8408C241.11 38.8408 241.532 38.7406 241.919 38.54C242.306 38.3324 242.592 38.0566 242.778 37.7129V35.7148H241.618C240.064 35.7148 239.237 36.252 239.137 37.3262L239.126 37.5088C239.126 37.8955 239.262 38.2142 239.534 38.4648C239.806 38.7155 240.179 38.8408 240.651 38.8408Z" fill="black"/>
</svg>
