<svg width="261" height="77" viewBox="0 0 261 77" fill="none" xmlns="http://www.w3.org/2000/svg">
<rect width="261" height="77" fill="black" fill-opacity="0"/>
<rect width="261" height="77" rx="5" fill="#E60014"/>
<rect width="39" height="32" fill="black" fill-opacity="0" transform="translate(43 23)"/>
<rect width="39" height="32" fill="black" fill-opacity="0" transform="translate(43 23)"/>
<path d="M59.4754 46.2386C57.1217 46.2386 55.2296 48.2064 55.2296 50.5959C55.2296 53.0322 57.1217 55 59.4754 55C61.829 55 63.7211 53.0322 63.7211 50.5959C63.7211 48.1596 61.829 46.2386 59.4754 46.2386Z" fill="white"/>
<path d="M72.7202 46.2386C70.3666 46.2386 68.4745 48.2064 68.4745 50.5959C68.4745 53.0322 70.3666 55 72.7202 55C75.0739 55 76.966 53.0322 76.966 50.5959C76.9198 48.1596 75.0277 46.2386 72.7202 46.2386Z" fill="white"/>
<path d="M81.7194 28.4348C81.4425 28.06 81.0271 27.8726 80.6118 27.8726H53.2452L52.7375 26.2796C52.1376 24.3119 50.3839 23 48.3072 23H44.3845C43.5999 23 43 23.6091 43 24.4056C43 25.202 43.5999 25.8111 44.3845 25.8111H48.3072C49.1379 25.8111 49.8301 26.3265 50.0609 27.123L54.3066 41.0381C54.9527 43.1933 56.9371 44.6457 59.1523 44.6457H73.6894C75.9507 44.6457 77.889 43.1933 78.5351 40.9912L81.904 29.6999C82.0886 29.2782 81.9963 28.8097 81.7194 28.4348Z" fill="white"/>
<path d="M118.647 41.8955C118.481 44.1904 117.632 45.9971 116.099 47.3154C114.575 48.6338 112.563 49.293 110.063 49.293C107.329 49.293 105.176 48.375 103.604 46.5391C102.041 44.6934 101.26 42.1641 101.26 38.9512V37.6475C101.26 35.5967 101.621 33.79 102.344 32.2275C103.066 30.665 104.097 29.4688 105.435 28.6387C106.782 27.7988 108.345 27.3789 110.122 27.3789C112.583 27.3789 114.565 28.0381 116.069 29.3564C117.573 30.6748 118.442 32.5254 118.677 34.9082H114.282C114.175 33.5312 113.789 32.5352 113.125 31.9199C112.471 31.2949 111.47 30.9824 110.122 30.9824C108.657 30.9824 107.559 31.5098 106.826 32.5645C106.104 33.6094 105.732 35.2354 105.713 37.4424V39.0537C105.713 41.3584 106.06 43.043 106.753 44.1074C107.456 45.1719 108.56 45.7041 110.063 45.7041C111.421 45.7041 112.432 45.3965 113.096 44.7812C113.77 44.1562 114.155 43.1943 114.253 41.8955H118.647ZM120.596 40.9287C120.596 39.3564 120.898 37.9551 121.504 36.7246C122.109 35.4941 122.979 34.542 124.111 33.8682C125.254 33.1943 126.577 32.8574 128.081 32.8574C130.22 32.8574 131.963 33.5117 133.311 34.8203C134.668 36.1289 135.425 37.9062 135.581 40.1523L135.61 41.2363C135.61 43.668 134.932 45.6211 133.574 47.0957C132.217 48.5605 130.396 49.293 128.11 49.293C125.825 49.293 123.999 48.5605 122.632 47.0957C121.274 45.6309 120.596 43.6387 120.596 41.1191V40.9287ZM124.829 41.2363C124.829 42.7402 125.112 43.8926 125.679 44.6934C126.245 45.4844 127.056 45.8799 128.11 45.8799C129.136 45.8799 129.937 45.4893 130.513 44.708C131.089 43.917 131.377 42.6572 131.377 40.9287C131.377 39.4541 131.089 38.3115 130.513 37.501C129.937 36.6904 129.126 36.2852 128.081 36.2852C127.046 36.2852 126.245 36.6904 125.679 37.501C125.112 38.3018 124.829 39.5469 124.829 41.2363ZM142.188 33.1504L142.319 34.9229C143.442 33.5459 144.961 32.8574 146.875 32.8574C148.916 32.8574 150.317 33.6631 151.079 35.2744C152.192 33.6631 153.779 32.8574 155.84 32.8574C157.559 32.8574 158.838 33.3604 159.678 34.3662C160.518 35.3623 160.938 36.8662 160.938 38.8779V49H156.689V38.8926C156.689 37.9941 156.514 37.3398 156.162 36.9297C155.811 36.5098 155.19 36.2998 154.302 36.2998C153.032 36.2998 152.153 36.9053 151.665 38.1162L151.68 49H147.446V38.9072C147.446 37.9893 147.266 37.3252 146.904 36.915C146.543 36.5049 145.928 36.2998 145.059 36.2998C143.857 36.2998 142.988 36.7979 142.451 37.7939V49H138.218V33.1504H142.188ZM178.472 41.2217C178.472 43.6631 177.915 45.6211 176.802 47.0957C175.698 48.5605 174.204 49.293 172.319 49.293C170.718 49.293 169.424 48.7363 168.438 47.623V55.0938H164.204V33.1504H168.13L168.276 34.7031C169.302 33.4727 170.64 32.8574 172.29 32.8574C174.243 32.8574 175.762 33.5801 176.846 35.0254C177.93 36.4707 178.472 38.4629 178.472 41.002V41.2217ZM174.238 40.9141C174.238 39.4395 173.975 38.3018 173.447 37.501C172.93 36.7002 172.173 36.2998 171.177 36.2998C169.849 36.2998 168.936 36.8076 168.438 37.8232V44.3125C168.955 45.3574 169.878 45.8799 171.206 45.8799C173.228 45.8799 174.238 44.2246 174.238 40.9141ZM190.015 37.1201C189.438 37.042 188.931 37.0029 188.491 37.0029C186.89 37.0029 185.84 37.5449 185.342 38.6289V49H181.108V33.1504H185.107L185.225 35.04C186.074 33.585 187.251 32.8574 188.755 32.8574C189.224 32.8574 189.663 32.9209 190.073 33.0479L190.015 37.1201ZM200.811 49C200.615 48.6191 200.474 48.1455 200.386 47.5791C199.36 48.7217 198.027 49.293 196.387 49.293C194.834 49.293 193.545 48.8438 192.52 47.9453C191.504 47.0469 190.996 45.9141 190.996 44.5469C190.996 42.8672 191.616 41.5781 192.856 40.6797C194.106 39.7812 195.908 39.3271 198.262 39.3174H200.21V38.4092C200.21 37.6768 200.02 37.0908 199.639 36.6514C199.268 36.2119 198.677 35.9922 197.866 35.9922C197.153 35.9922 196.592 36.1631 196.182 36.5049C195.781 36.8467 195.581 37.3154 195.581 37.9111H191.348C191.348 36.9932 191.631 36.1436 192.197 35.3623C192.764 34.5811 193.564 33.9707 194.6 33.5312C195.635 33.082 196.797 32.8574 198.086 32.8574C200.039 32.8574 201.587 33.3506 202.729 34.3369C203.882 35.3135 204.458 36.6904 204.458 38.4678V45.3379C204.468 46.8418 204.678 47.9795 205.088 48.751V49H200.811ZM197.31 46.0557C197.935 46.0557 198.511 45.9189 199.038 45.6455C199.565 45.3623 199.956 44.9863 200.21 44.5176V41.793H198.628C196.509 41.793 195.381 42.5254 195.244 43.9902L195.229 44.2393C195.229 44.7666 195.415 45.2012 195.786 45.543C196.157 45.8848 196.665 46.0557 197.31 46.0557ZM216.616 37.1201C216.04 37.042 215.532 37.0029 215.093 37.0029C213.491 37.0029 212.441 37.5449 211.943 38.6289V49H207.71V33.1504H211.709L211.826 35.04C212.676 33.585 213.853 32.8574 215.356 32.8574C215.825 32.8574 216.265 32.9209 216.675 33.0479L216.616 37.1201Z" fill="white"/>
</svg>
