<svg width="587" height="95" viewBox="0 0 587 95" fill="none" xmlns="http://www.w3.org/2000/svg">
<rect width="587" height="95" rx="5" fill="#1A96BD"/>
<path d="M166.945 53.6055H159.24L157.775 58H153.103L161.042 36.6719H165.114L173.098 58H168.425L166.945 53.6055ZM160.427 50.0459H165.759L163.078 42.0625L160.427 50.0459ZM175.09 58V36.6719H182.561C185.148 36.6719 187.111 37.1699 188.449 38.166C189.787 39.1523 190.456 40.6025 190.456 42.5166C190.456 43.5615 190.188 44.4844 189.65 45.2852C189.113 46.0762 188.366 46.6572 187.409 47.0283C188.503 47.3018 189.362 47.8535 189.987 48.6836C190.622 49.5137 190.939 50.5293 190.939 51.7305C190.939 53.7812 190.285 55.334 188.977 56.3887C187.668 57.4434 185.803 57.9805 183.381 58H175.09ZM179.484 48.7129V54.4697H183.249C184.284 54.4697 185.09 54.2256 185.666 53.7373C186.252 53.2393 186.545 52.5557 186.545 51.6865C186.545 49.7334 185.534 48.7422 183.513 48.7129H179.484ZM179.484 45.6074H182.736C184.953 45.5684 186.062 44.6846 186.062 42.9561C186.062 41.9893 185.778 41.2959 185.212 40.876C184.655 40.4463 183.771 40.2314 182.561 40.2314H179.484V45.6074ZM202.146 50.1924H198.645V58H194.25V36.6719H202.175C204.694 36.6719 206.638 37.2334 208.005 38.3564C209.372 39.4795 210.056 41.0664 210.056 43.1172C210.056 44.5723 209.738 45.7881 209.104 46.7646C208.479 47.7314 207.526 48.5029 206.247 49.0791L210.861 57.7949V58H206.145L202.146 50.1924ZM198.645 46.6328H202.189C203.293 46.6328 204.147 46.3545 204.753 45.7979C205.358 45.2314 205.661 44.4551 205.661 43.4688C205.661 42.4629 205.373 41.6719 204.797 41.0957C204.23 40.5195 203.356 40.2314 202.175 40.2314H198.645V46.6328ZM218.083 58H213.688V36.6719H218.083V58ZM230.065 50.1924H226.564V58H222.17V36.6719H230.095C232.614 36.6719 234.558 37.2334 235.925 38.3564C237.292 39.4795 237.976 41.0664 237.976 43.1172C237.976 44.5723 237.658 45.7881 237.023 46.7646C236.398 47.7314 235.446 48.5029 234.167 49.0791L238.781 57.7949V58H234.064L230.065 50.1924ZM226.564 46.6328H230.109C231.213 46.6328 232.067 46.3545 232.673 45.7979C233.278 45.2314 233.581 44.4551 233.581 43.4688C233.581 42.4629 233.293 41.6719 232.717 41.0957C232.15 40.5195 231.276 40.2314 230.095 40.2314H226.564V46.6328ZM254.543 36.6719L260.021 52.1406L265.471 36.6719H271.242V58H266.833V52.1699L267.272 42.1064L261.516 58H258.498L252.756 42.1211L253.195 52.1699V58H248.801V36.6719H254.543ZM292.6 47.8193C292.6 49.9189 292.229 51.7598 291.486 53.3418C290.744 54.9238 289.68 56.1445 288.293 57.0039C286.916 57.8633 285.334 58.293 283.547 58.293C281.779 58.293 280.202 57.8682 278.815 57.0186C277.429 56.1689 276.354 54.958 275.593 53.3857C274.831 51.8037 274.445 49.9873 274.436 47.9365V46.8818C274.436 44.7822 274.812 42.9365 275.563 41.3447C276.325 39.7432 277.395 38.5176 278.771 37.668C280.158 36.8086 281.74 36.3789 283.518 36.3789C285.295 36.3789 286.872 36.8086 288.249 37.668C289.636 38.5176 290.705 39.7432 291.457 41.3447C292.219 42.9365 292.6 44.7773 292.6 46.8672V47.8193ZM288.146 46.8525C288.146 44.6162 287.746 42.917 286.945 41.7549C286.145 40.5928 285.002 40.0117 283.518 40.0117C282.043 40.0117 280.905 40.5879 280.104 41.7402C279.304 42.8828 278.898 44.5625 278.889 46.7793V47.8193C278.889 49.9971 279.289 51.6865 280.09 52.8877C280.891 54.0889 282.043 54.6895 283.547 54.6895C285.021 54.6895 286.154 54.1133 286.945 52.9609C287.736 51.7988 288.137 50.1094 288.146 47.8926V46.8525ZM295.793 58V36.6719H303.264C305.852 36.6719 307.814 37.1699 309.152 38.166C310.49 39.1523 311.159 40.6025 311.159 42.5166C311.159 43.5615 310.891 44.4844 310.354 45.2852C309.816 46.0762 309.069 46.6572 308.112 47.0283C309.206 47.3018 310.065 47.8535 310.69 48.6836C311.325 49.5137 311.643 50.5293 311.643 51.7305C311.643 53.7812 310.988 55.334 309.68 56.3887C308.371 57.4434 306.506 57.9805 304.084 58H295.793ZM300.188 48.7129V54.4697H303.952C304.987 54.4697 305.793 54.2256 306.369 53.7373C306.955 53.2393 307.248 52.5557 307.248 51.6865C307.248 49.7334 306.237 48.7422 304.216 48.7129H300.188ZM300.188 45.6074H303.439C305.656 45.5684 306.765 44.6846 306.765 42.9561C306.765 41.9893 306.481 41.2959 305.915 40.876C305.358 40.4463 304.475 40.2314 303.264 40.2314H300.188V45.6074ZM319.626 58H315.231V36.6719H319.626V58ZM328.107 54.4697H337.438V58H323.713V36.6719H328.107V54.4697ZM352.805 48.7568H344.367V54.4697H354.27V58H339.973V36.6719H354.24V40.2314H344.367V45.3145H352.805V48.7568ZM364.318 58V36.6719H371.789C374.377 36.6719 376.34 37.1699 377.678 38.166C379.016 39.1523 379.685 40.6025 379.685 42.5166C379.685 43.5615 379.416 44.4844 378.879 45.2852C378.342 46.0762 377.595 46.6572 376.638 47.0283C377.731 47.3018 378.591 47.8535 379.216 48.6836C379.851 49.5137 380.168 50.5293 380.168 51.7305C380.168 53.7812 379.514 55.334 378.205 56.3887C376.896 57.4434 375.031 57.9805 372.609 58H364.318ZM368.713 48.7129V54.4697H372.478C373.513 54.4697 374.318 54.2256 374.895 53.7373C375.48 53.2393 375.773 52.5557 375.773 51.6865C375.773 49.7334 374.763 48.7422 372.741 48.7129H368.713ZM368.713 45.6074H371.965C374.182 45.5684 375.29 44.6846 375.29 42.9561C375.29 41.9893 375.007 41.2959 374.44 40.876C373.884 40.4463 373 40.2314 371.789 40.2314H368.713V45.6074ZM395.52 53.6055H387.814L386.35 58H381.677L389.616 36.6719H393.688L401.672 58H396.999L395.52 53.6055ZM389.001 50.0459H394.333L391.652 42.0625L389.001 50.0459ZM421.008 58H416.613L408.059 43.9668V58H403.664V36.6719H408.059L416.628 50.7344V36.6719H421.008V58ZM431.525 49.4453L429.24 51.9062V58H424.846V36.6719H429.24V46.3398L431.174 43.6885L436.608 36.6719H442.014L434.44 46.1494L442.233 58H437.004L431.525 49.4453Z" fill="white"/>
</svg>
