<svg width="587" height="95" viewBox="0 0 587 95" fill="none" xmlns="http://www.w3.org/2000/svg">
<rect width="587" height="95" fill="black" fill-opacity="0"/>
<rect width="587" height="95" rx="5" fill="#F6CF01"/>
<path d="M197.299 50.4854V58H192.904V36.6719H201.225C202.826 36.6719 204.232 36.9648 205.443 37.5508C206.664 38.1367 207.602 38.9717 208.256 40.0557C208.91 41.1299 209.237 42.3555 209.237 43.7324C209.237 45.8223 208.52 47.4727 207.084 48.6836C205.658 49.8848 203.681 50.4854 201.151 50.4854H197.299ZM197.299 46.9258H201.225C202.387 46.9258 203.271 46.6523 203.876 46.1055C204.491 45.5586 204.799 44.7773 204.799 43.7617C204.799 42.7168 204.491 41.8721 203.876 41.2275C203.261 40.583 202.411 40.251 201.327 40.2314H197.299V46.9258ZM221.703 53.6055H213.998L212.533 58H207.86L215.8 36.6719H219.872L227.855 58H223.183L221.703 53.6055ZM215.185 50.0459H220.517L217.836 42.0625L215.185 50.0459ZM246.4 55.3047C245.609 56.252 244.491 56.9893 243.046 57.5166C241.601 58.0342 239.999 58.293 238.241 58.293C236.396 58.293 234.774 57.8926 233.378 57.0918C231.991 56.2812 230.917 55.1094 230.155 53.5762C229.403 52.043 229.018 50.2412 228.998 48.1709V46.7207C228.998 44.5918 229.354 42.751 230.067 41.1982C230.79 39.6357 231.825 38.4443 233.173 37.624C234.53 36.7939 236.117 36.3789 237.934 36.3789C240.463 36.3789 242.44 36.9844 243.866 38.1953C245.292 39.3965 246.137 41.1494 246.4 43.4541H242.123C241.928 42.2334 241.493 41.3398 240.819 40.7734C240.155 40.207 239.237 39.9238 238.065 39.9238C236.571 39.9238 235.434 40.4854 234.652 41.6084C233.871 42.7314 233.476 44.4014 233.466 46.6182V47.9805C233.466 50.2168 233.891 51.9062 234.74 53.0488C235.59 54.1914 236.835 54.7627 238.476 54.7627C240.126 54.7627 241.303 54.4111 242.006 53.708V50.0312H238.007V46.7939H246.4V55.3047ZM262.016 53.6055H254.311L252.846 58H248.173L256.112 36.6719H260.185L268.168 58H263.495L262.016 53.6055ZM255.497 50.0459H260.829L258.148 42.0625L255.497 50.0459ZM278.056 50.1924H274.555V58H270.16V36.6719H278.085C280.604 36.6719 282.548 37.2334 283.915 38.3564C285.282 39.4795 285.966 41.0664 285.966 43.1172C285.966 44.5723 285.648 45.7881 285.014 46.7646C284.389 47.7314 283.437 48.5029 282.157 49.0791L286.771 57.7949V58H282.055L278.056 50.1924ZM274.555 46.6328H278.1C279.203 46.6328 280.058 46.3545 280.663 45.7979C281.269 45.2314 281.571 44.4551 281.571 43.4688C281.571 42.4629 281.283 41.6719 280.707 41.0957C280.141 40.5195 279.267 40.2314 278.085 40.2314H274.555V46.6328ZM308.832 53.6055H301.127L299.662 58H294.989L302.929 36.6719H307.001L314.984 58H310.312L308.832 53.6055ZM302.313 50.0459H307.646L304.965 42.0625L302.313 50.0459ZM333.529 55.3047C332.738 56.252 331.62 56.9893 330.175 57.5166C328.729 58.0342 327.128 58.293 325.37 58.293C323.524 58.293 321.903 57.8926 320.507 57.0918C319.12 56.2812 318.046 55.1094 317.284 53.5762C316.532 52.043 316.146 50.2412 316.127 48.1709V46.7207C316.127 44.5918 316.483 42.751 317.196 41.1982C317.919 39.6357 318.954 38.4443 320.302 37.624C321.659 36.7939 323.246 36.3789 325.062 36.3789C327.592 36.3789 329.569 36.9844 330.995 38.1953C332.421 39.3965 333.266 41.1494 333.529 43.4541H329.252C329.057 42.2334 328.622 41.3398 327.948 40.7734C327.284 40.207 326.366 39.9238 325.194 39.9238C323.7 39.9238 322.562 40.4854 321.781 41.6084C321 42.7314 320.604 44.4014 320.595 46.6182V47.9805C320.595 50.2168 321.02 51.9062 321.869 53.0488C322.719 54.1914 323.964 54.7627 325.604 54.7627C327.255 54.7627 328.432 54.4111 329.135 53.708V50.0312H325.136V46.7939H333.529V55.3047ZM354.623 47.8193C354.623 49.9189 354.252 51.7598 353.51 53.3418C352.768 54.9238 351.703 56.1445 350.316 57.0039C348.939 57.8633 347.357 58.293 345.57 58.293C343.803 58.293 342.226 57.8682 340.839 57.0186C339.452 56.1689 338.378 54.958 337.616 53.3857C336.854 51.8037 336.469 49.9873 336.459 47.9365V46.8818C336.459 44.7822 336.835 42.9365 337.587 41.3447C338.349 39.7432 339.418 38.5176 340.795 37.668C342.182 36.8086 343.764 36.3789 345.541 36.3789C347.318 36.3789 348.896 36.8086 350.272 37.668C351.659 38.5176 352.729 39.7432 353.48 41.3447C354.242 42.9365 354.623 44.7773 354.623 46.8672V47.8193ZM350.17 46.8525C350.17 44.6162 349.77 42.917 348.969 41.7549C348.168 40.5928 347.025 40.0117 345.541 40.0117C344.066 40.0117 342.929 40.5879 342.128 41.7402C341.327 42.8828 340.922 44.5625 340.912 46.7793V47.8193C340.912 49.9971 341.312 51.6865 342.113 52.8877C342.914 54.0889 344.066 54.6895 345.57 54.6895C347.045 54.6895 348.178 54.1133 348.969 52.9609C349.76 51.7988 350.16 50.1094 350.17 47.8926V46.8525ZM365.712 50.1924H362.211V58H357.816V36.6719H365.741C368.261 36.6719 370.204 37.2334 371.571 38.3564C372.938 39.4795 373.622 41.0664 373.622 43.1172C373.622 44.5723 373.305 45.7881 372.67 46.7646C372.045 47.7314 371.093 48.5029 369.813 49.0791L374.428 57.7949V58H369.711L365.712 50.1924ZM362.211 46.6328H365.756C366.859 46.6328 367.714 46.3545 368.319 45.7979C368.925 45.2314 369.228 44.4551 369.228 43.4688C369.228 42.4629 368.939 41.6719 368.363 41.0957C367.797 40.5195 366.923 40.2314 365.741 40.2314H362.211V46.6328ZM389.018 53.6055H381.312L379.848 58H375.175L383.114 36.6719H387.187L395.17 58H390.497L389.018 53.6055ZM382.499 50.0459H387.831L385.15 42.0625L382.499 50.0459Z" fill="black"/>
</svg>
