<svg width="330" height="67" viewBox="0 0 330 67" fill="none" xmlns="http://www.w3.org/2000/svg">
<rect width="330" height="67" fill="black" fill-opacity="0"/>
<rect width="330" height="67" rx="5" fill="#666666"/>
<path d="M71.6748 35.79C71.5531 37.473 70.93 38.7979 69.8057 39.7646C68.6885 40.7314 67.2132 41.2148 65.3799 41.2148C63.3747 41.2148 61.7956 40.5417 60.6426 39.1953C59.4967 37.8418 58.9238 35.987 58.9238 33.6309V32.6748C58.9238 31.1709 59.1888 29.846 59.7188 28.7002C60.2487 27.5544 61.0042 26.6771 61.9854 26.0684C62.9736 25.4525 64.1195 25.1445 65.4229 25.1445C67.2275 25.1445 68.6813 25.6279 69.7842 26.5947C70.887 27.5615 71.5244 28.9186 71.6963 30.666H68.4736C68.3949 29.6562 68.112 28.9258 67.625 28.4746C67.1452 28.0163 66.4111 27.7871 65.4229 27.7871C64.3486 27.7871 63.543 28.1738 63.0059 28.9473C62.4759 29.7135 62.2038 30.9059 62.1895 32.5244V33.7061C62.1895 35.3962 62.4437 36.6315 62.9521 37.4121C63.4678 38.1927 64.277 38.583 65.3799 38.583C66.3753 38.583 67.1165 38.3574 67.6035 37.9062C68.0977 37.4479 68.3805 36.7425 68.4521 35.79H71.6748ZM73.1035 35.0811C73.1035 33.9281 73.3255 32.9004 73.7695 31.998C74.2135 31.0957 74.8509 30.3975 75.6816 29.9033C76.5195 29.4092 77.4899 29.1621 78.5928 29.1621C80.1611 29.1621 81.4395 29.6419 82.4277 30.6016C83.4232 31.5612 83.9782 32.8646 84.0928 34.5117L84.1143 35.3066C84.1143 37.0898 83.6165 38.5221 82.6211 39.6035C81.6257 40.6777 80.29 41.2148 78.6143 41.2148C76.9385 41.2148 75.5993 40.6777 74.5967 39.6035C73.6012 38.5293 73.1035 37.0684 73.1035 35.2207V35.0811ZM76.208 35.3066C76.208 36.4095 76.4157 37.2546 76.8311 37.8418C77.2464 38.4219 77.8408 38.7119 78.6143 38.7119C79.3662 38.7119 79.9535 38.4255 80.376 37.8525C80.7985 37.2725 81.0098 36.3486 81.0098 35.0811C81.0098 33.9997 80.7985 33.1618 80.376 32.5674C79.9535 31.973 79.359 31.6758 78.5928 31.6758C77.8337 31.6758 77.2464 31.973 76.8311 32.5674C76.4157 33.1546 76.208 34.0677 76.208 35.3066ZM88.8838 29.377L88.9805 30.7197C89.8112 29.6813 90.9248 29.1621 92.3213 29.1621C93.5531 29.1621 94.4697 29.5238 95.0713 30.2471C95.6729 30.9704 95.9808 32.0518 95.9951 33.4912V41H92.8906V33.5664C92.8906 32.9076 92.7474 32.4313 92.4609 32.1377C92.1745 31.8369 91.6982 31.6865 91.0322 31.6865C90.1585 31.6865 89.5033 32.0589 89.0664 32.8037V41H85.9619V29.377H88.8838ZM102.075 26.5195V29.377H104.062V31.6543H102.075V37.4551C102.075 37.8848 102.158 38.1927 102.322 38.3789C102.487 38.5651 102.802 38.6582 103.268 38.6582C103.611 38.6582 103.916 38.6331 104.181 38.583V40.9355C103.572 41.1217 102.945 41.2148 102.301 41.2148C100.124 41.2148 99.0137 40.1156 98.9707 37.917V31.6543H97.2734V29.377H98.9707V26.5195H102.075ZM109.068 41H105.953V29.377H109.068V41ZM105.771 26.3691C105.771 25.9036 105.924 25.5205 106.232 25.2197C106.548 24.9189 106.974 24.7686 107.511 24.7686C108.041 24.7686 108.463 24.9189 108.778 25.2197C109.093 25.5205 109.251 25.9036 109.251 26.3691C109.251 26.8418 109.09 27.2285 108.768 27.5293C108.452 27.8301 108.034 27.9805 107.511 27.9805C106.988 27.9805 106.565 27.8301 106.243 27.5293C105.928 27.2285 105.771 26.8418 105.771 26.3691ZM114.493 29.377L114.59 30.7197C115.421 29.6813 116.534 29.1621 117.931 29.1621C119.162 29.1621 120.079 29.5238 120.681 30.2471C121.282 30.9704 121.59 32.0518 121.604 33.4912V41H118.5V33.5664C118.5 32.9076 118.357 32.4313 118.07 32.1377C117.784 31.8369 117.308 31.6865 116.642 31.6865C115.768 31.6865 115.113 32.0589 114.676 32.8037V41H111.571V29.377H114.493ZM130.929 39.8184C130.162 40.7493 129.103 41.2148 127.749 41.2148C126.503 41.2148 125.55 40.8568 124.892 40.1406C124.24 39.4245 123.907 38.3753 123.893 36.9932V29.377H126.997V36.8857C126.997 38.096 127.549 38.7012 128.651 38.7012C129.704 38.7012 130.427 38.3359 130.821 37.6055V29.377H133.937V41H131.015L130.929 39.8184ZM143.014 41C142.87 40.7207 142.767 40.3734 142.702 39.958C141.95 40.7959 140.973 41.2148 139.77 41.2148C138.631 41.2148 137.686 40.8854 136.934 40.2266C136.189 39.5677 135.816 38.737 135.816 37.7344C135.816 36.5026 136.271 35.5573 137.181 34.8984C138.097 34.2396 139.419 33.9066 141.145 33.8994H142.573V33.2334C142.573 32.6963 142.434 32.2666 142.154 31.9443C141.882 31.6221 141.449 31.4609 140.854 31.4609C140.332 31.4609 139.92 31.5863 139.619 31.8369C139.326 32.0876 139.179 32.4313 139.179 32.8682H136.074C136.074 32.195 136.282 31.5719 136.697 30.999C137.113 30.4261 137.7 29.9785 138.459 29.6562C139.218 29.3268 140.07 29.1621 141.016 29.1621C142.448 29.1621 143.583 29.5238 144.421 30.2471C145.266 30.9632 145.688 31.973 145.688 33.2764V38.3145C145.696 39.4173 145.85 40.2516 146.15 40.8174V41H143.014ZM140.446 38.8408C140.905 38.8408 141.327 38.7406 141.714 38.54C142.101 38.3324 142.387 38.0566 142.573 37.7129V35.7148H141.413C139.859 35.7148 139.032 36.252 138.932 37.3262L138.921 37.5088C138.921 37.8955 139.057 38.2142 139.329 38.4648C139.601 38.7155 139.974 38.8408 140.446 38.8408ZM154.604 32.2881C154.182 32.2308 153.81 32.2021 153.487 32.2021C152.313 32.2021 151.543 32.5996 151.178 33.3945V41H148.073V29.377H151.006L151.092 30.7627C151.715 29.6956 152.578 29.1621 153.681 29.1621C154.024 29.1621 154.347 29.2087 154.647 29.3018L154.604 32.2881ZM166.421 38.7119C166.994 38.7119 167.459 38.5544 167.817 38.2393C168.175 37.9242 168.362 37.5052 168.376 36.9824H171.287C171.28 37.7702 171.065 38.4935 170.643 39.1523C170.22 39.804 169.64 40.3125 168.902 40.6777C168.172 41.0358 167.363 41.2148 166.475 41.2148C164.813 41.2148 163.503 40.6885 162.543 39.6357C161.583 38.5758 161.104 37.1149 161.104 35.2529V35.0488C161.104 33.2585 161.58 31.8298 162.532 30.7627C163.485 29.6956 164.792 29.1621 166.453 29.1621C167.907 29.1621 169.071 29.5775 169.944 30.4082C170.825 31.2318 171.273 32.3311 171.287 33.7061H168.376C168.362 33.1045 168.175 32.6175 167.817 32.2451C167.459 31.8656 166.987 31.6758 166.399 31.6758C165.676 31.6758 165.128 31.9408 164.756 32.4707C164.391 32.9935 164.208 33.8457 164.208 35.0273V35.3496C164.208 36.5456 164.391 37.4049 164.756 37.9277C165.121 38.4505 165.676 38.7119 166.421 38.7119ZM172.576 35.0811C172.576 33.9281 172.798 32.9004 173.242 31.998C173.686 31.0957 174.324 30.3975 175.154 29.9033C175.992 29.4092 176.963 29.1621 178.065 29.1621C179.634 29.1621 180.912 29.6419 181.9 30.6016C182.896 31.5612 183.451 32.8646 183.565 34.5117L183.587 35.3066C183.587 37.0898 183.089 38.5221 182.094 39.6035C181.098 40.6777 179.763 41.2148 178.087 41.2148C176.411 41.2148 175.072 40.6777 174.069 39.6035C173.074 38.5293 172.576 37.0684 172.576 35.2207V35.0811ZM175.681 35.3066C175.681 36.4095 175.888 37.2546 176.304 37.8418C176.719 38.4219 177.313 38.7119 178.087 38.7119C178.839 38.7119 179.426 38.4255 179.849 37.8525C180.271 37.2725 180.482 36.3486 180.482 35.0811C180.482 33.9997 180.271 33.1618 179.849 32.5674C179.426 31.973 178.832 31.6758 178.065 31.6758C177.306 31.6758 176.719 31.973 176.304 32.5674C175.888 33.1546 175.681 34.0677 175.681 35.3066ZM188.41 29.377L188.507 30.6768C189.33 29.667 190.444 29.1621 191.848 29.1621C193.344 29.1621 194.372 29.7529 194.931 30.9346C195.747 29.7529 196.911 29.1621 198.422 29.1621C199.682 29.1621 200.62 29.5309 201.236 30.2686C201.852 30.999 202.16 32.1019 202.16 33.5771V41H199.045V33.5879C199.045 32.929 198.916 32.4492 198.658 32.1484C198.4 31.8405 197.946 31.6865 197.294 31.6865C196.363 31.6865 195.718 32.1305 195.36 33.0186L195.371 41H192.267V33.5986C192.267 32.9255 192.134 32.4385 191.869 32.1377C191.604 31.8369 191.153 31.6865 190.516 31.6865C189.635 31.6865 188.997 32.0518 188.604 32.7822V41H185.499V29.377H188.41ZM215.019 35.2959C215.019 37.0863 214.61 38.5221 213.794 39.6035C212.985 40.6777 211.889 41.2148 210.507 41.2148C209.332 41.2148 208.383 40.8066 207.66 39.9902V45.4688H204.556V29.377H207.435L207.542 30.5156C208.294 29.6133 209.275 29.1621 210.485 29.1621C211.918 29.1621 213.031 29.6921 213.826 30.752C214.621 31.8118 215.019 33.2728 215.019 35.1348V35.2959ZM211.914 35.0703C211.914 33.9889 211.721 33.1546 211.334 32.5674C210.954 31.9801 210.399 31.6865 209.669 31.6865C208.695 31.6865 208.025 32.0589 207.66 32.8037V37.5625C208.04 38.3288 208.716 38.7119 209.69 38.7119C211.173 38.7119 211.914 37.498 211.914 35.0703ZM223.483 32.2881C223.061 32.2308 222.688 32.2021 222.366 32.2021C221.192 32.2021 220.422 32.5996 220.057 33.3945V41H216.952V29.377H219.885L219.971 30.7627C220.594 29.6956 221.457 29.1621 222.56 29.1621C222.903 29.1621 223.226 29.2087 223.526 29.3018L223.483 32.2881ZM231.4 41C231.257 40.7207 231.153 40.3734 231.089 39.958C230.337 40.7959 229.359 41.2148 228.156 41.2148C227.018 41.2148 226.072 40.8854 225.32 40.2266C224.576 39.5677 224.203 38.737 224.203 37.7344C224.203 36.5026 224.658 35.5573 225.567 34.8984C226.484 34.2396 227.805 33.9066 229.531 33.8994H230.96V33.2334C230.96 32.6963 230.82 32.2666 230.541 31.9443C230.269 31.6221 229.836 31.4609 229.241 31.4609C228.718 31.4609 228.307 31.5863 228.006 31.8369C227.712 32.0876 227.565 32.4313 227.565 32.8682H224.461C224.461 32.195 224.669 31.5719 225.084 30.999C225.499 30.4261 226.087 29.9785 226.846 29.6562C227.605 29.3268 228.457 29.1621 229.402 29.1621C230.835 29.1621 231.97 29.5238 232.808 30.2471C233.653 30.9632 234.075 31.973 234.075 33.2764V38.3145C234.082 39.4173 234.236 40.2516 234.537 40.8174V41H231.4ZM228.833 38.8408C229.291 38.8408 229.714 38.7406 230.101 38.54C230.487 38.3324 230.774 38.0566 230.96 37.7129V35.7148H229.8C228.246 35.7148 227.419 36.252 227.318 37.3262L227.308 37.5088C227.308 37.8955 227.444 38.2142 227.716 38.4648C227.988 38.7155 228.36 38.8408 228.833 38.8408ZM239.317 29.377L239.414 30.7197C240.245 29.6813 241.358 29.1621 242.755 29.1621C243.987 29.1621 244.903 29.5238 245.505 30.2471C246.106 30.9704 246.414 32.0518 246.429 33.4912V41H243.324V33.5664C243.324 32.9076 243.181 32.4313 242.895 32.1377C242.608 31.8369 242.132 31.6865 241.466 31.6865C240.592 31.6865 239.937 32.0589 239.5 32.8037V41H236.396V29.377H239.317ZM248.309 35.1025C248.309 33.2907 248.713 31.8477 249.522 30.7734C250.339 29.6992 251.452 29.1621 252.863 29.1621C253.995 29.1621 254.929 29.5846 255.667 30.4297V24.5H258.782V41H255.979L255.828 39.7646C255.055 40.7314 254.059 41.2148 252.842 41.2148C251.474 41.2148 250.375 40.6777 249.544 39.6035C248.72 38.5221 248.309 37.0218 248.309 35.1025ZM251.413 35.3281C251.413 36.4167 251.603 37.251 251.982 37.8311C252.362 38.4111 252.913 38.7012 253.637 38.7012C254.596 38.7012 255.273 38.2965 255.667 37.4873V32.9004C255.28 32.0911 254.611 31.6865 253.658 31.6865C252.161 31.6865 251.413 32.9004 251.413 35.3281ZM260.705 35.0811C260.705 33.9281 260.927 32.9004 261.371 31.998C261.815 31.0957 262.452 30.3975 263.283 29.9033C264.121 29.4092 265.091 29.1621 266.194 29.1621C267.763 29.1621 269.041 29.6419 270.029 30.6016C271.025 31.5612 271.58 32.8646 271.694 34.5117L271.716 35.3066C271.716 37.0898 271.218 38.5221 270.223 39.6035C269.227 40.6777 267.892 41.2148 266.216 41.2148C264.54 41.2148 263.201 40.6777 262.198 39.6035C261.203 38.5293 260.705 37.0684 260.705 35.2207V35.0811ZM263.81 35.3066C263.81 36.4095 264.017 37.2546 264.433 37.8418C264.848 38.4219 265.442 38.7119 266.216 38.7119C266.968 38.7119 267.555 38.4255 267.978 37.8525C268.4 37.2725 268.611 36.3486 268.611 35.0811C268.611 33.9997 268.4 33.1618 267.978 32.5674C267.555 31.973 266.961 31.6758 266.194 31.6758C265.435 31.6758 264.848 31.973 264.433 32.5674C264.017 33.1546 263.81 34.0677 263.81 35.3066Z" fill="white"/>
</svg>
