<svg width="261" height="77" viewBox="0 0 261 77" fill="none" xmlns="http://www.w3.org/2000/svg">
<rect width="261" height="77" fill="black" fill-opacity="0"/>
<rect width="261" height="77" rx="5" fill="#666666"/>
<path d="M132.395 38.8193C132.395 40.8115 132.072 42.5449 131.428 44.0195C130.783 45.4844 129.89 46.6611 128.747 47.5498L132.292 50.333L129.494 52.8086L124.953 49.1611C124.436 49.249 123.898 49.293 123.342 49.293C121.574 49.293 119.997 48.8682 118.61 48.0186C117.224 47.1689 116.149 45.958 115.388 44.3857C114.626 42.8037 114.24 40.9873 114.23 38.9365V37.8818C114.23 35.7822 114.606 33.9365 115.358 32.3447C116.12 30.7432 117.189 29.5176 118.566 28.668C119.953 27.8086 121.535 27.3789 123.312 27.3789C125.09 27.3789 126.667 27.8086 128.044 28.668C129.431 29.5176 130.5 30.7432 131.252 32.3447C132.014 33.9365 132.395 35.7773 132.395 37.8672V38.8193ZM127.941 37.8525C127.941 35.6162 127.541 33.917 126.74 32.7549C125.939 31.5928 124.797 31.0117 123.312 31.0117C121.838 31.0117 120.7 31.5879 119.899 32.7402C119.099 33.8828 118.693 35.5625 118.684 37.7793V38.8193C118.684 40.9971 119.084 42.6865 119.885 43.8877C120.686 45.0889 121.838 45.6895 123.342 45.6895C124.816 45.6895 125.949 45.1133 126.74 43.9609C127.531 42.7988 127.932 41.1094 127.941 38.8926V37.8525ZM143.513 41.1924H140.012V49H135.617V27.6719H143.542C146.062 27.6719 148.005 28.2334 149.372 29.3564C150.739 30.4795 151.423 32.0664 151.423 34.1172C151.423 35.5723 151.105 36.7881 150.471 37.7646C149.846 38.7314 148.894 39.5029 147.614 40.0791L152.229 48.7949V49H147.512L143.513 41.1924ZM140.012 37.6328H143.557C144.66 37.6328 145.515 37.3545 146.12 36.7979C146.726 36.2314 147.028 35.4551 147.028 34.4688C147.028 33.4629 146.74 32.6719 146.164 32.0957C145.598 31.5195 144.724 31.2314 143.542 31.2314H140.012V37.6328ZM168.767 41.2217C168.767 43.6631 168.21 45.6211 167.097 47.0957C165.993 48.5605 164.499 49.293 162.614 49.293C161.013 49.293 159.719 48.7363 158.732 47.623V55.0938H154.499V33.1504H158.425L158.571 34.7031C159.597 33.4727 160.935 32.8574 162.585 32.8574C164.538 32.8574 166.057 33.5801 167.141 35.0254C168.225 36.4707 168.767 38.4629 168.767 41.002V41.2217ZM164.533 40.9141C164.533 39.4395 164.27 38.3018 163.742 37.501C163.225 36.7002 162.468 36.2998 161.472 36.2998C160.144 36.2998 159.23 36.8076 158.732 37.8232V44.3125C159.25 45.3574 160.173 45.8799 161.501 45.8799C163.522 45.8799 164.533 44.2246 164.533 40.9141ZM180.588 49C180.393 48.6191 180.251 48.1455 180.163 47.5791C179.138 48.7217 177.805 49.293 176.164 49.293C174.611 49.293 173.322 48.8438 172.297 47.9453C171.281 47.0469 170.773 45.9141 170.773 44.5469C170.773 42.8672 171.394 41.5781 172.634 40.6797C173.884 39.7812 175.686 39.3271 178.039 39.3174H179.987V38.4092C179.987 37.6768 179.797 37.0908 179.416 36.6514C179.045 36.2119 178.454 35.9922 177.644 35.9922C176.931 35.9922 176.369 36.1631 175.959 36.5049C175.559 36.8467 175.358 37.3154 175.358 37.9111H171.125C171.125 36.9932 171.408 36.1436 171.975 35.3623C172.541 34.5811 173.342 33.9707 174.377 33.5312C175.412 33.082 176.574 32.8574 177.863 32.8574C179.816 32.8574 181.364 33.3506 182.507 34.3369C183.659 35.3135 184.235 36.6904 184.235 38.4678V45.3379C184.245 46.8418 184.455 47.9795 184.865 48.751V49H180.588ZM177.087 46.0557C177.712 46.0557 178.288 45.9189 178.815 45.6455C179.343 45.3623 179.733 44.9863 179.987 44.5176V41.793H178.405C176.286 41.793 175.158 42.5254 175.021 43.9902L175.007 44.2393C175.007 44.7666 175.192 45.2012 175.563 45.543C175.935 45.8848 176.442 46.0557 177.087 46.0557ZM193.171 43.0088L196.101 33.1504H200.642L194.27 51.4609L193.918 52.2959C192.971 54.3662 191.408 55.4014 189.23 55.4014C188.615 55.4014 187.99 55.3086 187.355 55.123V51.915L188 51.9297C188.801 51.9297 189.396 51.8076 189.787 51.5635C190.188 51.3193 190.5 50.9141 190.725 50.3477L191.223 49.0439L185.671 33.1504H190.227L193.171 43.0088Z" fill="white"/>
<rect width="32" height="32" fill="black" fill-opacity="0" transform="translate(61 22)"/>
<path d="M92.9999 54H75.3999V39.6H61V36.4H78.5999V50.8H92.9999V54Z" fill="white"/>
<path d="M93 46.4099H89.8V39.6H85.4099V46.4099H82.21V36.4H93V46.4099Z" fill="white"/>
<path d="M71.79 32.7901H61V22H71.79V32.7901ZM64.2 29.5901H68.5901V25.2H64.2V29.5901Z" fill="white"/>
<path d="M93 32.7901H82.21V22H93V32.7901ZM85.4099 29.5901H89.8V25.2H85.4099V29.5901Z" fill="white"/>
<path d="M71.79 54H61V43.2099H71.79V54ZM64.2 50.8H68.5901V46.4099H64.2V50.8Z" fill="white"/>
<path d="M78.6 22H75.4V32.7901H78.6V22Z" fill="white"/>
</svg>
