<svg width="44" height="44" viewBox="0 0 44 44" fill="none" xmlns="http://www.w3.org/2000/svg">
<rect width="44" height="44" fill="black" fill-opacity="0"/>
<circle cx="22" cy="22" r="22" fill="#C4C4C4"/>
<path fill-rule="evenodd" clip-rule="evenodd" d="M14.4394 14.4394C13.8535 15.0251 13.8535 15.9749 14.4394 16.5607L19.7427 21.864L14.4394 27.1673C13.8535 27.7531 13.8535 28.7028 14.4394 29.2886C15.0252 29.8744 15.9749 29.8744 16.5607 29.2886L21.864 23.9853L27.1673 29.2886C27.7531 29.8744 28.7028 29.8744 29.2886 29.2886C29.8744 28.7028 29.8744 27.7531 29.2886 27.1673L23.9853 21.864L29.2886 16.5607C29.8744 15.9749 29.8744 15.0252 29.2886 14.4394C28.7028 13.8536 27.7531 13.8536 27.1673 14.4394L21.864 19.7426L16.5607 14.4394C15.9749 13.8535 15.0252 13.8535 14.4394 14.4394Z" fill="white"/>
</svg>
