<svg width="596" height="465" viewBox="0 0 596 465" fill="none" xmlns="http://www.w3.org/2000/svg">
<rect width="596" height="464.5" fill="black" fill-opacity="0" transform="translate(0 0.5)"/>
<rect x="1" y="43" width="594" height="83" fill="white" stroke="white" stroke-width="2"/>
<rect x="1" y="381" width="594" height="83" fill="white" stroke="white" stroke-width="2"/>
<rect x="1" y="212" width="254" height="83" fill="white" stroke="white" stroke-width="2"/>
<rect x="285" y="212" width="310" height="83" fill="white" stroke="white" stroke-width="2"/>
<path d="M38.1074 85.3291C38.1074 87.6566 37.71 89.3861 36.915 90.5176C36.1201 91.6491 34.8776 92.2148 33.1875 92.2148C31.5189 92.2148 30.2835 91.6634 29.4814 90.5605C28.6794 89.4505 28.264 87.7962 28.2354 85.5977V82.9443C28.2354 80.6455 28.6328 78.9375 29.4277 77.8203C30.2227 76.7031 31.4688 76.1445 33.166 76.1445C34.849 76.1445 36.0879 76.6852 36.8828 77.7666C37.6777 78.8408 38.0859 80.5023 38.1074 82.751V85.3291ZM36.1201 82.6113C36.1201 80.9284 35.8838 79.7038 35.4111 78.9375C34.9385 78.1641 34.1901 77.7773 33.166 77.7773C32.1491 77.7773 31.4079 78.1605 30.9424 78.9268C30.4769 79.693 30.237 80.8711 30.2227 82.4609V85.6406C30.2227 87.3307 30.4661 88.5804 30.9531 89.3896C31.4473 90.1917 32.1921 90.5928 33.1875 90.5928C34.1686 90.5928 34.8955 90.2132 35.3682 89.4541C35.848 88.695 36.0986 87.499 36.1201 85.8662V82.6113Z" fill="black"/>
<path d="M50.4609 85.3291C50.4609 87.6566 50.0635 89.3861 49.2686 90.5176C48.4736 91.6491 47.2311 92.2148 45.541 92.2148C43.8724 92.2148 42.637 91.6634 41.835 90.5605C41.0329 89.4505 40.6175 87.7962 40.5889 85.5977V82.9443C40.5889 80.6455 40.9863 78.9375 41.7812 77.8203C42.5762 76.7031 43.8223 76.1445 45.5195 76.1445C47.2025 76.1445 48.4414 76.6852 49.2363 77.7666C50.0312 78.8408 50.4395 80.5023 50.4609 82.751V85.3291ZM48.4736 82.6113C48.4736 80.9284 48.2373 79.7038 47.7646 78.9375C47.292 78.1641 46.5436 77.7773 45.5195 77.7773C44.5026 77.7773 43.7614 78.1605 43.2959 78.9268C42.8304 79.693 42.5905 80.8711 42.5762 82.4609V85.6406C42.5762 87.3307 42.8197 88.5804 43.3066 89.3896C43.8008 90.1917 44.5456 90.5928 45.541 90.5928C46.5221 90.5928 47.249 90.2132 47.7217 89.4541C48.2015 88.695 48.4521 87.499 48.4736 85.8662V82.6113Z" fill="black"/>
<path d="M62.8145 85.3291C62.8145 87.6566 62.417 89.3861 61.6221 90.5176C60.8271 91.6491 59.5846 92.2148 57.8945 92.2148C56.2259 92.2148 54.9906 91.6634 54.1885 90.5605C53.3864 89.4505 52.971 87.7962 52.9424 85.5977V82.9443C52.9424 80.6455 53.3398 78.9375 54.1348 77.8203C54.9297 76.7031 56.1758 76.1445 57.873 76.1445C59.556 76.1445 60.7949 76.6852 61.5898 77.7666C62.3848 78.8408 62.793 80.5023 62.8145 82.751V85.3291ZM60.8271 82.6113C60.8271 80.9284 60.5908 79.7038 60.1182 78.9375C59.6455 78.1641 58.8971 77.7773 57.873 77.7773C56.8561 77.7773 56.1149 78.1605 55.6494 78.9268C55.1839 79.693 54.944 80.8711 54.9297 82.4609V85.6406C54.9297 87.3307 55.1732 88.5804 55.6602 89.3896C56.1543 90.1917 56.8991 90.5928 57.8945 90.5928C58.8757 90.5928 59.6025 90.2132 60.0752 89.4541C60.555 88.695 60.8057 87.499 60.8271 85.8662V82.6113Z" fill="black"/>
<path d="M75.168 85.3291C75.168 87.6566 74.7705 89.3861 73.9756 90.5176C73.1807 91.6491 71.9382 92.2148 70.248 92.2148C68.5794 92.2148 67.3441 91.6634 66.542 90.5605C65.7399 89.4505 65.3245 87.7962 65.2959 85.5977V82.9443C65.2959 80.6455 65.6934 78.9375 66.4883 77.8203C67.2832 76.7031 68.5293 76.1445 70.2266 76.1445C71.9095 76.1445 73.1484 76.6852 73.9434 77.7666C74.7383 78.8408 75.1465 80.5023 75.168 82.751V85.3291ZM73.1807 82.6113C73.1807 80.9284 72.9443 79.7038 72.4717 78.9375C71.999 78.1641 71.2507 77.7773 70.2266 77.7773C69.2096 77.7773 68.4684 78.1605 68.0029 78.9268C67.5374 79.693 67.2975 80.8711 67.2832 82.4609V85.6406C67.2832 87.3307 67.5267 88.5804 68.0137 89.3896C68.5078 90.1917 69.2526 90.5928 70.248 90.5928C71.2292 90.5928 71.9561 90.2132 72.4287 89.4541C72.9085 88.695 73.1592 87.499 73.1807 85.8662V82.6113Z" fill="black"/>
<path d="M92.9785 85.3291C92.9785 87.6566 92.5811 89.3861 91.7861 90.5176C90.9912 91.6491 89.7487 92.2148 88.0586 92.2148C86.39 92.2148 85.1546 91.6634 84.3525 90.5605C83.5505 89.4505 83.1351 87.7962 83.1064 85.5977V82.9443C83.1064 80.6455 83.5039 78.9375 84.2988 77.8203C85.0938 76.7031 86.3398 76.1445 88.0371 76.1445C89.7201 76.1445 90.959 76.6852 91.7539 77.7666C92.5488 78.8408 92.957 80.5023 92.9785 82.751V85.3291ZM90.9912 82.6113C90.9912 80.9284 90.7549 79.7038 90.2822 78.9375C89.8096 78.1641 89.0612 77.7773 88.0371 77.7773C87.0202 77.7773 86.279 78.1605 85.8135 78.9268C85.348 79.693 85.1081 80.8711 85.0938 82.4609V85.6406C85.0938 87.3307 85.3372 88.5804 85.8242 89.3896C86.3184 90.1917 87.0632 90.5928 88.0586 90.5928C89.0397 90.5928 89.7666 90.2132 90.2393 89.4541C90.7191 88.695 90.9697 87.499 90.9912 85.8662V82.6113Z" fill="black"/>
<path d="M105.332 85.3291C105.332 87.6566 104.935 89.3861 104.14 90.5176C103.345 91.6491 102.102 92.2148 100.412 92.2148C98.7435 92.2148 97.5081 91.6634 96.7061 90.5605C95.904 89.4505 95.4886 87.7962 95.46 85.5977V82.9443C95.46 80.6455 95.8574 78.9375 96.6523 77.8203C97.4473 76.7031 98.6934 76.1445 100.391 76.1445C102.074 76.1445 103.312 76.6852 104.107 77.7666C104.902 78.8408 105.311 80.5023 105.332 82.751V85.3291ZM103.345 82.6113C103.345 80.9284 103.108 79.7038 102.636 78.9375C102.163 78.1641 101.415 77.7773 100.391 77.7773C99.3737 77.7773 98.6325 78.1605 98.167 78.9268C97.7015 79.693 97.4616 80.8711 97.4473 82.4609V85.6406C97.4473 87.3307 97.6908 88.5804 98.1777 89.3896C98.6719 90.1917 99.4167 90.5928 100.412 90.5928C101.393 90.5928 102.12 90.2132 102.593 89.4541C103.073 88.695 103.323 87.499 103.345 85.8662V82.6113Z" fill="black"/>
<path d="M117.686 85.3291C117.686 87.6566 117.288 89.3861 116.493 90.5176C115.698 91.6491 114.456 92.2148 112.766 92.2148C111.097 92.2148 109.862 91.6634 109.06 90.5605C108.257 89.4505 107.842 87.7962 107.813 85.5977V82.9443C107.813 80.6455 108.211 78.9375 109.006 77.8203C109.801 76.7031 111.047 76.1445 112.744 76.1445C114.427 76.1445 115.666 76.6852 116.461 77.7666C117.256 78.8408 117.664 80.5023 117.686 82.751V85.3291ZM115.698 82.6113C115.698 80.9284 115.462 79.7038 114.989 78.9375C114.517 78.1641 113.768 77.7773 112.744 77.7773C111.727 77.7773 110.986 78.1605 110.521 78.9268C110.055 79.693 109.815 80.8711 109.801 82.4609V85.6406C109.801 87.3307 110.044 88.5804 110.531 89.3896C111.025 90.1917 111.77 90.5928 112.766 90.5928C113.747 90.5928 114.474 90.2132 114.946 89.4541C115.426 88.695 115.677 87.499 115.698 85.8662V82.6113Z" fill="black"/>
<path d="M130.039 85.3291C130.039 87.6566 129.642 89.3861 128.847 90.5176C128.052 91.6491 126.809 92.2148 125.119 92.2148C123.451 92.2148 122.215 91.6634 121.413 90.5605C120.611 89.4505 120.196 87.7962 120.167 85.5977V82.9443C120.167 80.6455 120.564 78.9375 121.359 77.8203C122.154 76.7031 123.4 76.1445 125.098 76.1445C126.781 76.1445 128.02 76.6852 128.814 77.7666C129.609 78.8408 130.018 80.5023 130.039 82.751V85.3291ZM128.052 82.6113C128.052 80.9284 127.815 79.7038 127.343 78.9375C126.87 78.1641 126.122 77.7773 125.098 77.7773C124.081 77.7773 123.34 78.1605 122.874 78.9268C122.409 79.693 122.169 80.8711 122.154 82.4609V85.6406C122.154 87.3307 122.398 88.5804 122.885 89.3896C123.379 90.1917 124.124 90.5928 125.119 90.5928C126.1 90.5928 126.827 90.2132 127.3 89.4541C127.78 88.695 128.03 87.499 128.052 85.8662V82.6113Z" fill="black"/>
<path d="M147.85 85.3291C147.85 87.6566 147.452 89.3861 146.657 90.5176C145.862 91.6491 144.62 92.2148 142.93 92.2148C141.261 92.2148 140.026 91.6634 139.224 90.5605C138.422 89.4505 138.006 87.7962 137.978 85.5977V82.9443C137.978 80.6455 138.375 78.9375 139.17 77.8203C139.965 76.7031 141.211 76.1445 142.908 76.1445C144.591 76.1445 145.83 76.6852 146.625 77.7666C147.42 78.8408 147.828 80.5023 147.85 82.751V85.3291ZM145.862 82.6113C145.862 80.9284 145.626 79.7038 145.153 78.9375C144.681 78.1641 143.932 77.7773 142.908 77.7773C141.891 77.7773 141.15 78.1605 140.685 78.9268C140.219 79.693 139.979 80.8711 139.965 82.4609V85.6406C139.965 87.3307 140.208 88.5804 140.695 89.3896C141.189 90.1917 141.934 90.5928 142.93 90.5928C143.911 90.5928 144.638 90.2132 145.11 89.4541C145.59 88.695 145.841 87.499 145.862 85.8662V82.6113Z" fill="black"/>
<path d="M160.203 85.3291C160.203 87.6566 159.806 89.3861 159.011 90.5176C158.216 91.6491 156.973 92.2148 155.283 92.2148C153.615 92.2148 152.379 91.6634 151.577 90.5605C150.775 89.4505 150.36 87.7962 150.331 85.5977V82.9443C150.331 80.6455 150.729 78.9375 151.523 77.8203C152.318 76.7031 153.564 76.1445 155.262 76.1445C156.945 76.1445 158.184 76.6852 158.979 77.7666C159.773 78.8408 160.182 80.5023 160.203 82.751V85.3291ZM158.216 82.6113C158.216 80.9284 157.979 79.7038 157.507 78.9375C157.034 78.1641 156.286 77.7773 155.262 77.7773C154.245 77.7773 153.504 78.1605 153.038 78.9268C152.573 79.693 152.333 80.8711 152.318 82.4609V85.6406C152.318 87.3307 152.562 88.5804 153.049 89.3896C153.543 90.1917 154.288 90.5928 155.283 90.5928C156.264 90.5928 156.991 90.2132 157.464 89.4541C157.944 88.695 158.194 87.499 158.216 85.8662V82.6113Z" fill="black"/>
<path d="M172.557 85.3291C172.557 87.6566 172.159 89.3861 171.364 90.5176C170.569 91.6491 169.327 92.2148 167.637 92.2148C165.968 92.2148 164.733 91.6634 163.931 90.5605C163.129 89.4505 162.713 87.7962 162.685 85.5977V82.9443C162.685 80.6455 163.082 78.9375 163.877 77.8203C164.672 76.7031 165.918 76.1445 167.615 76.1445C169.298 76.1445 170.537 76.6852 171.332 77.7666C172.127 78.8408 172.535 80.5023 172.557 82.751V85.3291ZM170.569 82.6113C170.569 80.9284 170.333 79.7038 169.86 78.9375C169.388 78.1641 168.639 77.7773 167.615 77.7773C166.598 77.7773 165.857 78.1605 165.392 78.9268C164.926 79.693 164.686 80.8711 164.672 82.4609V85.6406C164.672 87.3307 164.915 88.5804 165.402 89.3896C165.896 90.1917 166.641 90.5928 167.637 90.5928C168.618 90.5928 169.345 90.2132 169.817 89.4541C170.297 88.695 170.548 87.499 170.569 85.8662V82.6113Z" fill="black"/>
<path d="M184.91 85.3291C184.91 87.6566 184.513 89.3861 183.718 90.5176C182.923 91.6491 181.68 92.2148 179.99 92.2148C178.322 92.2148 177.086 91.6634 176.284 90.5605C175.482 89.4505 175.067 87.7962 175.038 85.5977V82.9443C175.038 80.6455 175.436 78.9375 176.23 77.8203C177.025 76.7031 178.271 76.1445 179.969 76.1445C181.652 76.1445 182.891 76.6852 183.686 77.7666C184.48 78.8408 184.889 80.5023 184.91 82.751V85.3291ZM182.923 82.6113C182.923 80.9284 182.687 79.7038 182.214 78.9375C181.741 78.1641 180.993 77.7773 179.969 77.7773C178.952 77.7773 178.211 78.1605 177.745 78.9268C177.28 79.693 177.04 80.8711 177.025 82.4609V85.6406C177.025 87.3307 177.269 88.5804 177.756 89.3896C178.25 90.1917 178.995 90.5928 179.99 90.5928C180.971 90.5928 181.698 90.2132 182.171 89.4541C182.651 88.695 182.901 87.499 182.923 85.8662V82.6113Z" fill="black"/>
<path d="M202.721 85.3291C202.721 87.6566 202.323 89.3861 201.528 90.5176C200.733 91.6491 199.491 92.2148 197.801 92.2148C196.132 92.2148 194.897 91.6634 194.095 90.5605C193.293 89.4505 192.877 87.7962 192.849 85.5977V82.9443C192.849 80.6455 193.246 78.9375 194.041 77.8203C194.836 76.7031 196.082 76.1445 197.779 76.1445C199.462 76.1445 200.701 76.6852 201.496 77.7666C202.291 78.8408 202.699 80.5023 202.721 82.751V85.3291ZM200.733 82.6113C200.733 80.9284 200.497 79.7038 200.024 78.9375C199.552 78.1641 198.803 77.7773 197.779 77.7773C196.762 77.7773 196.021 78.1605 195.556 78.9268C195.09 79.693 194.85 80.8711 194.836 82.4609V85.6406C194.836 87.3307 195.079 88.5804 195.566 89.3896C196.061 90.1917 196.805 90.5928 197.801 90.5928C198.782 90.5928 199.509 90.2132 199.981 89.4541C200.461 88.695 200.712 87.499 200.733 85.8662V82.6113Z" fill="black"/>
<path d="M215.074 85.3291C215.074 87.6566 214.677 89.3861 213.882 90.5176C213.087 91.6491 211.844 92.2148 210.154 92.2148C208.486 92.2148 207.25 91.6634 206.448 90.5605C205.646 89.4505 205.231 87.7962 205.202 85.5977V82.9443C205.202 80.6455 205.6 78.9375 206.395 77.8203C207.189 76.7031 208.436 76.1445 210.133 76.1445C211.816 76.1445 213.055 76.6852 213.85 77.7666C214.645 78.8408 215.053 80.5023 215.074 82.751V85.3291ZM213.087 82.6113C213.087 80.9284 212.851 79.7038 212.378 78.9375C211.905 78.1641 211.157 77.7773 210.133 77.7773C209.116 77.7773 208.375 78.1605 207.909 78.9268C207.444 79.693 207.204 80.8711 207.189 82.4609V85.6406C207.189 87.3307 207.433 88.5804 207.92 89.3896C208.414 90.1917 209.159 90.5928 210.154 90.5928C211.135 90.5928 211.862 90.2132 212.335 89.4541C212.815 88.695 213.065 87.499 213.087 85.8662V82.6113Z" fill="black"/>
<path d="M227.428 85.3291C227.428 87.6566 227.03 89.3861 226.235 90.5176C225.44 91.6491 224.198 92.2148 222.508 92.2148C220.839 92.2148 219.604 91.6634 218.802 90.5605C218 89.4505 217.584 87.7962 217.556 85.5977V82.9443C217.556 80.6455 217.953 78.9375 218.748 77.8203C219.543 76.7031 220.789 76.1445 222.486 76.1445C224.169 76.1445 225.408 76.6852 226.203 77.7666C226.998 78.8408 227.406 80.5023 227.428 82.751V85.3291ZM225.44 82.6113C225.44 80.9284 225.204 79.7038 224.731 78.9375C224.259 78.1641 223.51 77.7773 222.486 77.7773C221.469 77.7773 220.728 78.1605 220.263 78.9268C219.797 79.693 219.557 80.8711 219.543 82.4609V85.6406C219.543 87.3307 219.786 88.5804 220.273 89.3896C220.768 90.1917 221.512 90.5928 222.508 90.5928C223.489 90.5928 224.216 90.2132 224.688 89.4541C225.168 88.695 225.419 87.499 225.44 85.8662V82.6113Z" fill="black"/>
<path d="M239.781 85.3291C239.781 87.6566 239.384 89.3861 238.589 90.5176C237.794 91.6491 236.551 92.2148 234.861 92.2148C233.193 92.2148 231.957 91.6634 231.155 90.5605C230.353 89.4505 229.938 87.7962 229.909 85.5977V82.9443C229.909 80.6455 230.307 78.9375 231.102 77.8203C231.896 76.7031 233.143 76.1445 234.84 76.1445C236.523 76.1445 237.762 76.6852 238.557 77.7666C239.352 78.8408 239.76 80.5023 239.781 82.751V85.3291ZM237.794 82.6113C237.794 80.9284 237.558 79.7038 237.085 78.9375C236.612 78.1641 235.864 77.7773 234.84 77.7773C233.823 77.7773 233.082 78.1605 232.616 78.9268C232.151 79.693 231.911 80.8711 231.896 82.4609V85.6406C231.896 87.3307 232.14 88.5804 232.627 89.3896C233.121 90.1917 233.866 90.5928 234.861 90.5928C235.842 90.5928 236.569 90.2132 237.042 89.4541C237.522 88.695 237.772 87.499 237.794 85.8662V82.6113Z" fill="black"/>
<path d="M14.1152 17H10.8926L4.61914 6.70898V17H1.39648V1.35938H4.61914L10.9033 11.6719V1.35938H14.1152V17Z" fill="black"/>
<path d="M23.6865 15.8184C22.9202 16.7493 21.8604 17.2148 20.5068 17.2148C19.2607 17.2148 18.3083 16.8568 17.6494 16.1406C16.9977 15.4245 16.6647 14.3753 16.6504 12.9932V5.37695H19.7549V12.8857C19.7549 14.096 20.3063 14.7012 21.4092 14.7012C22.4619 14.7012 23.1852 14.3359 23.5791 13.6055V5.37695H26.6943V17H23.7725L23.6865 15.8184ZM22.3008 0.5H25.6846L22.709 3.83008H20.1846L22.3008 0.5Z" fill="black"/>
<path d="M31.9473 5.37695L32.0439 6.67676C32.8675 5.66699 33.9811 5.16211 35.3848 5.16211C36.8815 5.16211 37.9092 5.75293 38.4678 6.93457C39.2842 5.75293 40.4479 5.16211 41.959 5.16211C43.2194 5.16211 44.1576 5.53092 44.7734 6.26855C45.3893 6.99902 45.6973 8.10189 45.6973 9.57715V17H42.582V9.58789C42.582 8.92904 42.4531 8.44922 42.1953 8.14844C41.9375 7.84049 41.4827 7.68652 40.8311 7.68652C39.9001 7.68652 39.2555 8.13053 38.8975 9.01855L38.9082 17H35.8037V9.59863C35.8037 8.92546 35.6712 8.43848 35.4062 8.1377C35.1413 7.83691 34.6901 7.68652 34.0527 7.68652C33.1719 7.68652 32.5345 8.05176 32.1406 8.78223V17H29.0361V5.37695H31.9473Z" fill="black"/>
<path d="M53.4424 17.2148C51.738 17.2148 50.3486 16.6921 49.2744 15.6465C48.2074 14.6009 47.6738 13.208 47.6738 11.4678V11.167C47.6738 9.99967 47.8994 8.95768 48.3506 8.04102C48.8018 7.11719 49.4391 6.4082 50.2627 5.91406C51.0934 5.41276 52.0387 5.16211 53.0986 5.16211C54.6885 5.16211 55.9382 5.66341 56.8477 6.66602C57.7643 7.66862 58.2227 9.09017 58.2227 10.9307V12.1982H50.8213C50.9215 12.9574 51.2223 13.5661 51.7236 14.0244C52.2321 14.4827 52.873 14.7119 53.6465 14.7119C54.8424 14.7119 55.777 14.2786 56.4502 13.4121L57.9756 15.1201C57.5101 15.779 56.8799 16.2946 56.085 16.667C55.29 17.0322 54.4092 17.2148 53.4424 17.2148ZM53.0879 7.67578C52.472 7.67578 51.9707 7.88346 51.584 8.29883C51.2044 8.71419 50.9609 9.30859 50.8535 10.082H55.1719V9.83496C55.1576 9.14746 54.9714 8.61751 54.6133 8.24512C54.2552 7.86556 53.7467 7.67578 53.0879 7.67578Z" fill="black"/>
<path d="M66.5264 8.28809C66.1038 8.23079 65.7314 8.20215 65.4092 8.20215C64.2347 8.20215 63.4648 8.59961 63.0996 9.39453V17H59.9951V5.37695H62.9277L63.0137 6.7627C63.6367 5.69564 64.4997 5.16211 65.6025 5.16211C65.9463 5.16211 66.2686 5.20866 66.5693 5.30176L66.5264 8.28809Z" fill="black"/>
<path d="M67.1602 11.0811C67.1602 9.92806 67.3822 8.90039 67.8262 7.99805C68.2702 7.0957 68.9076 6.39746 69.7383 5.90332C70.5762 5.40918 71.5465 5.16211 72.6494 5.16211C74.2178 5.16211 75.4961 5.64193 76.4844 6.60156C77.4798 7.5612 78.0348 8.86458 78.1494 10.5117L78.1709 11.3066C78.1709 13.0898 77.6732 14.5221 76.6777 15.6035C75.6823 16.6777 74.3467 17.2148 72.6709 17.2148C70.9951 17.2148 69.6559 16.6777 68.6533 15.6035C67.6579 14.5293 67.1602 13.0684 67.1602 11.2207V11.0811ZM70.2646 11.3066C70.2646 12.4095 70.4723 13.2546 70.8877 13.8418C71.3031 14.4219 71.8975 14.7119 72.6709 14.7119C73.4229 14.7119 74.0101 14.4255 74.4326 13.8525C74.8551 13.2725 75.0664 12.3486 75.0664 11.0811C75.0664 9.99967 74.8551 9.16178 74.4326 8.56738C74.0101 7.97298 73.4157 7.67578 72.6494 7.67578C71.8903 7.67578 71.3031 7.97298 70.8877 8.56738C70.4723 9.15462 70.2646 10.0677 70.2646 11.3066Z" fill="black"/>
<path d="M85.0781 11.1025C85.0781 9.29069 85.4827 7.84766 86.292 6.77344C87.1084 5.69922 88.222 5.16211 89.6328 5.16211C90.7643 5.16211 91.6989 5.58464 92.4365 6.42969V0.5H95.5518V17H92.748L92.5977 15.7646C91.8242 16.7314 90.8288 17.2148 89.6113 17.2148C88.2435 17.2148 87.1442 16.6777 86.3135 15.6035C85.4899 14.5221 85.0781 13.0218 85.0781 11.1025ZM88.1826 11.3281C88.1826 12.4167 88.3724 13.251 88.752 13.8311C89.1315 14.4111 89.6829 14.7012 90.4062 14.7012C91.3659 14.7012 92.0426 14.2965 92.4365 13.4873V8.90039C92.0498 8.09115 91.3802 7.68652 90.4277 7.68652C88.931 7.68652 88.1826 8.90039 88.1826 11.3281Z" fill="black"/>
<path d="M97.4746 11.0811C97.4746 9.92806 97.6966 8.90039 98.1406 7.99805C98.5846 7.0957 99.222 6.39746 100.053 5.90332C100.891 5.40918 101.861 5.16211 102.964 5.16211C104.532 5.16211 105.811 5.64193 106.799 6.60156C107.794 7.5612 108.349 8.86458 108.464 10.5117L108.485 11.3066C108.485 13.0898 107.988 14.5221 106.992 15.6035C105.997 16.6777 104.661 17.2148 102.985 17.2148C101.31 17.2148 99.9704 16.6777 98.9678 15.6035C97.9723 14.5293 97.4746 13.0684 97.4746 11.2207V11.0811ZM100.579 11.3066C100.579 12.4095 100.787 13.2546 101.202 13.8418C101.618 14.4219 102.212 14.7119 102.985 14.7119C103.737 14.7119 104.325 14.4255 104.747 13.8525C105.17 13.2725 105.381 12.3486 105.381 11.0811C105.381 9.99967 105.17 9.16178 104.747 8.56738C104.325 7.97298 103.73 7.67578 102.964 7.67578C102.205 7.67578 101.618 7.97298 101.202 8.56738C100.787 9.15462 100.579 10.0677 100.579 11.3066Z" fill="black"/>
<path d="M120.71 14.7119C121.283 14.7119 121.748 14.5544 122.106 14.2393C122.465 13.9242 122.651 13.5052 122.665 12.9824H125.576C125.569 13.7702 125.354 14.4935 124.932 15.1523C124.509 15.804 123.929 16.3125 123.191 16.6777C122.461 17.0358 121.652 17.2148 120.764 17.2148C119.102 17.2148 117.792 16.6885 116.832 15.6357C115.872 14.5758 115.393 13.1149 115.393 11.2529V11.0488C115.393 9.25846 115.869 7.82975 116.821 6.7627C117.774 5.69564 119.081 5.16211 120.742 5.16211C122.196 5.16211 123.36 5.57747 124.233 6.4082C125.114 7.23177 125.562 8.33105 125.576 9.70605H122.665C122.651 9.10449 122.465 8.61751 122.106 8.24512C121.748 7.86556 121.276 7.67578 120.688 7.67578C119.965 7.67578 119.417 7.94076 119.045 8.4707C118.68 8.99349 118.497 9.8457 118.497 11.0273V11.3496C118.497 12.5456 118.68 13.4049 119.045 13.9277C119.41 14.4505 119.965 14.7119 120.71 14.7119Z" fill="black"/>
<path d="M134.084 17C133.941 16.7207 133.837 16.3734 133.772 15.958C133.021 16.7959 132.043 17.2148 130.84 17.2148C129.701 17.2148 128.756 16.8854 128.004 16.2266C127.259 15.5677 126.887 14.737 126.887 13.7344C126.887 12.5026 127.341 11.5573 128.251 10.8984C129.168 10.2396 130.489 9.90658 132.215 9.89941H133.644V9.2334C133.644 8.69629 133.504 8.2666 133.225 7.94434C132.952 7.62207 132.519 7.46094 131.925 7.46094C131.402 7.46094 130.99 7.58626 130.689 7.83691C130.396 8.08757 130.249 8.43132 130.249 8.86816H127.145C127.145 8.19499 127.352 7.57194 127.768 6.99902C128.183 6.42611 128.77 5.97852 129.529 5.65625C130.288 5.32682 131.141 5.16211 132.086 5.16211C133.518 5.16211 134.653 5.52376 135.491 6.24707C136.336 6.96322 136.759 7.97298 136.759 9.27637V14.3145C136.766 15.4173 136.92 16.2516 137.221 16.8174V17H134.084ZM131.517 14.8408C131.975 14.8408 132.397 14.7406 132.784 14.54C133.171 14.3324 133.457 14.0566 133.644 13.7129V11.7148H132.483C130.929 11.7148 130.102 12.252 130.002 13.3262L129.991 13.5088C129.991 13.8955 130.127 14.2142 130.399 14.4648C130.672 14.7155 131.044 14.8408 131.517 14.8408Z" fill="black"/>
<path d="M145.675 8.28809C145.252 8.23079 144.88 8.20215 144.558 8.20215C143.383 8.20215 142.613 8.59961 142.248 9.39453V17H139.144V5.37695H142.076L142.162 6.7627C142.785 5.69564 143.648 5.16211 144.751 5.16211C145.095 5.16211 145.417 5.20866 145.718 5.30176L145.675 8.28809Z" fill="black"/>
<path d="M151.433 2.51953V5.37695H153.42V7.6543H151.433V13.4551C151.433 13.8848 151.515 14.1927 151.68 14.3789C151.844 14.5651 152.16 14.6582 152.625 14.6582C152.969 14.6582 153.273 14.6331 153.538 14.583V16.9355C152.929 17.1217 152.303 17.2148 151.658 17.2148C149.481 17.2148 148.371 16.1156 148.328 13.917V7.6543H146.631V5.37695H148.328V2.51953H151.433Z" fill="black"/>
<path d="M161.885 17C161.742 16.7207 161.638 16.3734 161.573 15.958C160.821 16.7959 159.844 17.2148 158.641 17.2148C157.502 17.2148 156.557 16.8854 155.805 16.2266C155.06 15.5677 154.688 14.737 154.688 13.7344C154.688 12.5026 155.142 11.5573 156.052 10.8984C156.968 10.2396 158.29 9.90658 160.016 9.89941H161.444V9.2334C161.444 8.69629 161.305 8.2666 161.025 7.94434C160.753 7.62207 160.32 7.46094 159.726 7.46094C159.203 7.46094 158.791 7.58626 158.49 7.83691C158.197 8.08757 158.05 8.43132 158.05 8.86816H154.945C154.945 8.19499 155.153 7.57194 155.568 6.99902C155.984 6.42611 156.571 5.97852 157.33 5.65625C158.089 5.32682 158.941 5.16211 159.887 5.16211C161.319 5.16211 162.454 5.52376 163.292 6.24707C164.137 6.96322 164.56 7.97298 164.56 9.27637V14.3145C164.567 15.4173 164.721 16.2516 165.021 16.8174V17H161.885ZM159.317 14.8408C159.776 14.8408 160.198 14.7406 160.585 14.54C160.972 14.3324 161.258 14.0566 161.444 13.7129V11.7148H160.284C158.73 11.7148 157.903 12.252 157.803 13.3262L157.792 13.5088C157.792 13.8955 157.928 14.2142 158.2 14.4648C158.472 14.7155 158.845 14.8408 159.317 14.8408ZM163.915 0.639648C163.915 1.44889 163.679 2.12923 163.206 2.68066C162.733 3.22493 162.157 3.49707 161.477 3.49707C161.204 3.49707 160.961 3.46842 160.746 3.41113C160.538 3.34668 160.248 3.21419 159.876 3.01367C159.504 2.81315 159.235 2.69141 159.07 2.64844C158.906 2.59831 158.727 2.57324 158.533 2.57324C158.283 2.57324 158.068 2.66276 157.889 2.8418C157.717 3.02083 157.631 3.27507 157.631 3.60449L155.826 3.49707C155.826 2.70215 156.059 2.02539 156.524 1.4668C156.997 0.908203 157.574 0.628906 158.254 0.628906C158.469 0.628906 158.669 0.657552 158.855 0.714844C159.049 0.764974 159.36 0.89388 159.79 1.10156C160.22 1.30924 160.517 1.43457 160.682 1.47754C160.846 1.52051 161.018 1.54199 161.197 1.54199C161.448 1.54199 161.663 1.45605 161.842 1.28418C162.028 1.10514 162.121 0.850911 162.121 0.521484L163.915 0.639648Z" fill="black"/>
<path d="M166.461 11.0811C166.461 9.92806 166.683 8.90039 167.127 7.99805C167.571 7.0957 168.208 6.39746 169.039 5.90332C169.877 5.40918 170.847 5.16211 171.95 5.16211C173.519 5.16211 174.797 5.64193 175.785 6.60156C176.781 7.5612 177.336 8.86458 177.45 10.5117L177.472 11.3066C177.472 13.0898 176.974 14.5221 175.979 15.6035C174.983 16.6777 173.647 17.2148 171.972 17.2148C170.296 17.2148 168.957 16.6777 167.954 15.6035C166.959 14.5293 166.461 13.0684 166.461 11.2207V11.0811ZM169.565 11.3066C169.565 12.4095 169.773 13.2546 170.188 13.8418C170.604 14.4219 171.198 14.7119 171.972 14.7119C172.724 14.7119 173.311 14.4255 173.733 13.8525C174.156 13.2725 174.367 12.3486 174.367 11.0811C174.367 9.99967 174.156 9.16178 173.733 8.56738C173.311 7.97298 172.716 7.67578 171.95 7.67578C171.191 7.67578 170.604 7.97298 170.188 8.56738C169.773 9.15462 169.565 10.0677 169.565 11.3066Z" fill="black"/>
<path d="M37.6562 422.771H30.8779V428.313H38.752V430H28.8154V414.359H38.6445V416.057H30.8779V421.084H37.6562V422.771Z" fill="black"/>
<path d="M44.9072 422.62L47.4854 418.377H49.8057L46.0029 424.124L49.9238 430H47.625L44.9395 425.649L42.2539 430H39.9443L43.8652 424.124L40.0625 418.377H42.3613L44.9072 422.62Z" fill="black"/>
<path d="M51.8574 428.958C51.8574 428.614 51.9577 428.328 52.1582 428.099C52.3659 427.869 52.6738 427.755 53.082 427.755C53.4902 427.755 53.7982 427.869 54.0059 428.099C54.2207 428.328 54.3281 428.614 54.3281 428.958C54.3281 429.287 54.2207 429.563 54.0059 429.785C53.7982 430.007 53.4902 430.118 53.082 430.118C52.6738 430.118 52.3659 430.007 52.1582 429.785C51.9577 429.563 51.8574 429.287 51.8574 428.958ZM51.8682 419.473C51.8682 419.129 51.9684 418.842 52.1689 418.613C52.3766 418.384 52.6846 418.27 53.0928 418.27C53.501 418.27 53.8089 418.384 54.0166 418.613C54.2314 418.842 54.3389 419.129 54.3389 419.473C54.3389 419.802 54.2314 420.078 54.0166 420.3C53.8089 420.522 53.501 420.633 53.0928 420.633C52.6846 420.633 52.3766 420.522 52.1689 420.3C51.9684 420.078 51.8682 419.802 51.8682 419.473Z" fill="black"/>
<path d="M71.6553 425.918H65.1025L63.6309 430H61.5039L67.4766 414.359H69.2812L75.2646 430H73.1484L71.6553 425.918ZM65.7256 424.221H71.043L68.3789 416.905L65.7256 424.221Z" fill="black"/>
<path d="M79.2178 430H77.2305V413.5H79.2178V430Z" fill="black"/>
<path d="M84.5674 430H82.5693V418.377H84.5674V430ZM84.5889 413.511H86.9951L84.1162 416.669H82.5156L84.5889 413.511Z" fill="black"/>
<path d="M92.5059 428.593C93.2148 428.593 93.8343 428.378 94.3643 427.948C94.8942 427.519 95.1878 426.981 95.2451 426.337H97.125C97.0892 427.003 96.86 427.637 96.4375 428.238C96.015 428.84 95.4492 429.32 94.7402 429.678C94.0384 430.036 93.2936 430.215 92.5059 430.215C90.9232 430.215 89.6628 429.688 88.7246 428.636C87.7936 427.576 87.3281 426.129 87.3281 424.296V423.963C87.3281 422.831 87.5358 421.825 87.9512 420.944C88.3665 420.063 88.9609 419.38 89.7344 418.893C90.515 418.406 91.4352 418.162 92.4951 418.162C93.7985 418.162 94.8799 418.552 95.7393 419.333C96.6058 420.114 97.0677 421.127 97.125 422.373H95.2451C95.1878 421.621 94.9014 421.005 94.3857 420.525C93.8773 420.038 93.2471 419.795 92.4951 419.795C91.4854 419.795 90.7012 420.16 90.1426 420.891C89.5911 421.614 89.3154 422.663 89.3154 424.038V424.414C89.3154 425.753 89.5911 426.785 90.1426 427.508C90.694 428.231 91.4818 428.593 92.5059 428.593Z" fill="black"/>
<path d="M101.519 430H99.5312V418.377H101.519V430ZM99.3701 415.294C99.3701 414.972 99.4668 414.7 99.6602 414.478C99.8607 414.256 100.154 414.145 100.541 414.145C100.928 414.145 101.221 414.256 101.422 414.478C101.622 414.7 101.723 414.972 101.723 415.294C101.723 415.616 101.622 415.885 101.422 416.1C101.221 416.314 100.928 416.422 100.541 416.422C100.154 416.422 99.8607 416.314 99.6602 416.1C99.4668 415.885 99.3701 415.616 99.3701 415.294Z" fill="black"/>
<path d="M111.885 430C111.77 429.771 111.677 429.363 111.605 428.775C110.682 429.735 109.579 430.215 108.297 430.215C107.151 430.215 106.209 429.893 105.472 429.248C104.741 428.596 104.376 427.773 104.376 426.777C104.376 425.567 104.834 424.629 105.751 423.963C106.675 423.29 107.971 422.953 109.64 422.953H111.573V422.04C111.573 421.345 111.366 420.794 110.95 420.386C110.535 419.97 109.923 419.763 109.113 419.763C108.404 419.763 107.81 419.942 107.33 420.3C106.85 420.658 106.61 421.091 106.61 421.6H104.612C104.612 421.02 104.816 420.461 105.225 419.924C105.64 419.38 106.199 418.95 106.9 418.635C107.609 418.32 108.386 418.162 109.231 418.162C110.571 418.162 111.62 418.499 112.379 419.172C113.138 419.838 113.532 420.758 113.561 421.933V427.282C113.561 428.349 113.697 429.198 113.969 429.828V430H111.885ZM108.587 428.485C109.21 428.485 109.801 428.324 110.359 428.002C110.918 427.68 111.323 427.261 111.573 426.745V424.36H110.016C107.581 424.36 106.363 425.073 106.363 426.498C106.363 427.121 106.571 427.608 106.986 427.959C107.402 428.31 107.935 428.485 108.587 428.485Z" fill="black"/>
<path d="M131.081 425.918H124.528L123.057 430H120.93L126.902 414.359H128.707L134.69 430H132.574L131.081 425.918ZM125.151 424.221H130.469L127.805 416.905L125.151 424.221Z" fill="black"/>
<path d="M144.326 428.313H151.738V430H142.253V414.359H144.326V428.313Z" fill="black"/>
<path d="M155.938 430H153.951V418.377H155.938V430ZM153.79 415.294C153.79 414.972 153.887 414.7 154.08 414.478C154.281 414.256 154.574 414.145 154.961 414.145C155.348 414.145 155.641 414.256 155.842 414.478C156.042 414.7 156.143 414.972 156.143 415.294C156.143 415.616 156.042 415.885 155.842 416.1C155.641 416.314 155.348 416.422 154.961 416.422C154.574 416.422 154.281 416.314 154.08 416.1C153.887 415.885 153.79 415.616 153.79 415.294Z" fill="black"/>
<path d="M168.969 424.317C168.969 426.093 168.561 427.522 167.744 428.604C166.928 429.678 165.832 430.215 164.457 430.215C162.989 430.215 161.854 429.696 161.052 428.657L160.955 430H159.129V413.5H161.116V419.655C161.918 418.66 163.025 418.162 164.436 418.162C165.846 418.162 166.953 418.696 167.755 419.763C168.564 420.83 168.969 422.291 168.969 424.146V424.317ZM166.981 424.092C166.981 422.738 166.72 421.693 166.197 420.955C165.674 420.217 164.923 419.849 163.941 419.849C162.631 419.849 161.689 420.457 161.116 421.675V426.702C161.725 427.92 162.674 428.528 163.963 428.528C164.915 428.528 165.657 428.16 166.187 427.422C166.716 426.684 166.981 425.574 166.981 424.092Z" fill="black"/>
<path d="M170.956 424.081C170.956 422.942 171.178 421.918 171.622 421.009C172.073 420.099 172.696 419.397 173.491 418.903C174.293 418.409 175.206 418.162 176.23 418.162C177.813 418.162 179.091 418.71 180.065 419.806C181.047 420.901 181.537 422.359 181.537 424.178V424.317C181.537 425.449 181.319 426.466 180.882 427.368C180.452 428.263 179.833 428.962 179.023 429.463C178.221 429.964 177.298 430.215 176.252 430.215C174.676 430.215 173.398 429.667 172.417 428.571C171.443 427.476 170.956 426.025 170.956 424.221V424.081ZM172.954 424.317C172.954 425.606 173.251 426.641 173.846 427.422C174.447 428.202 175.249 428.593 176.252 428.593C177.262 428.593 178.064 428.199 178.658 427.411C179.253 426.616 179.55 425.506 179.55 424.081C179.55 422.806 179.245 421.775 178.637 420.987C178.035 420.192 177.233 419.795 176.23 419.795C175.249 419.795 174.458 420.185 173.856 420.966C173.255 421.746 172.954 422.864 172.954 424.317ZM177.133 413.5H179.539L176.66 416.658H175.06L177.133 413.5Z" fill="black"/>
<path d="M189.647 420.16C189.347 420.11 189.021 420.085 188.67 420.085C187.367 420.085 186.482 420.64 186.017 421.75V430H184.029V418.377H185.963L185.995 419.72C186.647 418.681 187.571 418.162 188.767 418.162C189.153 418.162 189.447 418.212 189.647 418.312V420.16Z" fill="black"/>
<path d="M193.644 430H191.656V418.377H193.644V430ZM191.495 415.294C191.495 414.972 191.592 414.7 191.785 414.478C191.986 414.256 192.279 414.145 192.666 414.145C193.053 414.145 193.346 414.256 193.547 414.478C193.747 414.7 193.848 414.972 193.848 415.294C193.848 415.616 193.747 415.885 193.547 416.1C193.346 416.314 193.053 416.422 192.666 416.422C192.279 416.422 191.986 416.314 191.785 416.1C191.592 415.885 191.495 415.616 191.495 415.294Z" fill="black"/>
<path d="M196.308 424.081C196.308 422.942 196.53 421.918 196.974 421.009C197.425 420.099 198.048 419.397 198.843 418.903C199.645 418.409 200.558 418.162 201.582 418.162C203.165 418.162 204.443 418.71 205.417 419.806C206.398 420.901 206.889 422.359 206.889 424.178V424.317C206.889 425.449 206.67 426.466 206.233 427.368C205.804 428.263 205.184 428.962 204.375 429.463C203.573 429.964 202.649 430.215 201.604 430.215C200.028 430.215 198.75 429.667 197.769 428.571C196.795 427.476 196.308 426.025 196.308 424.221V424.081ZM198.306 424.317C198.306 425.606 198.603 426.641 199.197 427.422C199.799 428.202 200.601 428.593 201.604 428.593C202.613 428.593 203.415 428.199 204.01 427.411C204.604 426.616 204.901 425.506 204.901 424.081C204.901 422.806 204.597 421.775 203.988 420.987C203.387 420.192 202.585 419.795 201.582 419.795C200.601 419.795 199.81 420.185 199.208 420.966C198.606 421.746 198.306 422.864 198.306 424.317Z" fill="black"/>
<path d="M14.1152 355H10.8926L4.61914 344.709V355H1.39648V339.359H4.61914L10.9033 349.672V339.359H14.1152V355Z" fill="black"/>
<path d="M16.2422 349.081C16.2422 347.928 16.4642 346.9 16.9082 345.998C17.3522 345.096 17.9896 344.397 18.8203 343.903C19.6582 343.409 20.6286 343.162 21.7314 343.162C23.2998 343.162 24.5781 343.642 25.5664 344.602C26.5618 345.561 27.1169 346.865 27.2314 348.512L27.2529 349.307C27.2529 351.09 26.7552 352.522 25.7598 353.604C24.7643 354.678 23.4287 355.215 21.7529 355.215C20.0771 355.215 18.738 354.678 17.7354 353.604C16.7399 352.529 16.2422 351.068 16.2422 349.221V349.081ZM19.3467 349.307C19.3467 350.41 19.5544 351.255 19.9697 351.842C20.3851 352.422 20.9795 352.712 21.7529 352.712C22.5049 352.712 23.0921 352.425 23.5146 351.853C23.9372 351.272 24.1484 350.349 24.1484 349.081C24.1484 348 23.9372 347.162 23.5146 346.567C23.0921 345.973 22.4977 345.676 21.7314 345.676C20.9723 345.676 20.3851 345.973 19.9697 346.567C19.5544 347.155 19.3467 348.068 19.3467 349.307Z" fill="black"/>
<path d="M32.0762 343.377L32.1729 344.677C32.9964 343.667 34.11 343.162 35.5137 343.162C37.0104 343.162 38.0381 343.753 38.5967 344.935C39.4131 343.753 40.5768 343.162 42.0879 343.162C43.3483 343.162 44.2865 343.531 44.9023 344.269C45.5182 344.999 45.8262 346.102 45.8262 347.577V355H42.7109V347.588C42.7109 346.929 42.582 346.449 42.3242 346.148C42.0664 345.84 41.6117 345.687 40.96 345.687C40.029 345.687 39.3844 346.131 39.0264 347.019L39.0371 355H35.9326V347.599C35.9326 346.925 35.8001 346.438 35.5352 346.138C35.2702 345.837 34.819 345.687 34.1816 345.687C33.3008 345.687 32.6634 346.052 32.2695 346.782V355H29.165V343.377H32.0762Z" fill="black"/>
<path d="M53.5713 355.215C51.8669 355.215 50.4775 354.692 49.4033 353.646C48.3363 352.601 47.8027 351.208 47.8027 349.468V349.167C47.8027 348 48.0283 346.958 48.4795 346.041C48.9307 345.117 49.568 344.408 50.3916 343.914C51.2223 343.413 52.1676 343.162 53.2275 343.162C54.8174 343.162 56.0671 343.663 56.9766 344.666C57.8932 345.669 58.3516 347.09 58.3516 348.931V350.198H50.9502C51.0505 350.957 51.3512 351.566 51.8525 352.024C52.361 352.483 53.002 352.712 53.7754 352.712C54.9714 352.712 55.9059 352.279 56.5791 351.412L58.1045 353.12C57.639 353.779 57.0088 354.295 56.2139 354.667C55.4189 355.032 54.5381 355.215 53.5713 355.215ZM53.2168 345.676C52.6009 345.676 52.0996 345.883 51.7129 346.299C51.3333 346.714 51.0898 347.309 50.9824 348.082H55.3008V347.835C55.2865 347.147 55.1003 346.618 54.7422 346.245C54.3841 345.866 53.8757 345.676 53.2168 345.676Z" fill="black"/>
<path d="M65.7422 348.641C65.7422 347.001 65.9606 345.439 66.3975 343.957C66.8343 342.475 67.4788 341.164 68.3311 340.025C69.1833 338.88 70.1071 338.085 71.1025 337.641L71.7041 339.316C70.6585 340.09 69.8421 341.286 69.2549 342.904C68.6676 344.523 68.374 346.413 68.374 348.576V348.909C68.374 351.079 68.6641 352.977 69.2441 354.603C69.8242 356.228 70.6442 357.442 71.7041 358.244L71.1025 359.888C70.1286 359.451 69.2191 358.677 68.374 357.567C67.5361 356.465 66.8952 355.19 66.4512 353.743C66.0072 352.297 65.7708 350.785 65.7422 349.21V348.641Z" fill="black"/>
<path d="M76.6133 355H73.498V343.377H76.6133V355ZM73.3154 340.369C73.3154 339.904 73.4694 339.521 73.7773 339.22C74.0924 338.919 74.5186 338.769 75.0557 338.769C75.5856 338.769 76.0081 338.919 76.3232 339.22C76.6383 339.521 76.7959 339.904 76.7959 340.369C76.7959 340.842 76.6348 341.229 76.3125 341.529C75.9974 341.83 75.5785 341.98 75.0557 341.98C74.5329 341.98 74.1104 341.83 73.7881 341.529C73.473 341.229 73.3154 340.842 73.3154 340.369Z" fill="black"/>
<path d="M78.7295 349.103C78.7295 347.319 79.152 345.883 79.9971 344.795C80.8493 343.706 81.9951 343.162 83.4346 343.162C84.7093 343.162 85.7012 343.599 86.4102 344.473L86.5391 343.377H89.3535V354.613C89.3535 355.63 89.1208 356.515 88.6553 357.267C88.1969 358.019 87.5488 358.591 86.7109 358.985C85.873 359.379 84.8919 359.576 83.7676 359.576C82.9154 359.576 82.0846 359.404 81.2754 359.061C80.4661 358.724 79.8538 358.287 79.4385 357.75L80.8135 355.859C81.5869 356.726 82.5251 357.159 83.6279 357.159C84.4515 357.159 85.0924 356.937 85.5508 356.493C86.0091 356.056 86.2383 355.433 86.2383 354.624V354.001C85.5221 354.81 84.5804 355.215 83.4131 355.215C82.0166 355.215 80.8851 354.671 80.0186 353.582C79.1592 352.486 78.7295 351.036 78.7295 349.231V349.103ZM81.834 349.328C81.834 350.381 82.0452 351.208 82.4678 351.81C82.8903 352.404 83.4704 352.701 84.208 352.701C85.1533 352.701 85.8301 352.347 86.2383 351.638V346.75C85.8229 346.041 85.1533 345.687 84.2295 345.687C83.4847 345.687 82.8975 345.991 82.4678 346.6C82.0452 347.208 81.834 348.118 81.834 349.328Z" fill="black"/>
<path d="M98.71 353.818C97.9437 354.749 96.8838 355.215 95.5303 355.215C94.2842 355.215 93.3317 354.857 92.6729 354.141C92.0212 353.424 91.6882 352.375 91.6738 350.993V343.377H94.7783V350.886C94.7783 352.096 95.3298 352.701 96.4326 352.701C97.4854 352.701 98.2087 352.336 98.6025 351.605V343.377H101.718V355H98.7959L98.71 353.818Z" fill="black"/>
<path d="M110.795 355C110.652 354.721 110.548 354.373 110.483 353.958C109.731 354.796 108.754 355.215 107.551 355.215C106.412 355.215 105.467 354.885 104.715 354.227C103.97 353.568 103.598 352.737 103.598 351.734C103.598 350.503 104.052 349.557 104.962 348.898C105.879 348.24 107.2 347.907 108.926 347.899H110.354V347.233C110.354 346.696 110.215 346.267 109.936 345.944C109.663 345.622 109.23 345.461 108.636 345.461C108.113 345.461 107.701 345.586 107.4 345.837C107.107 346.088 106.96 346.431 106.96 346.868H103.855C103.855 346.195 104.063 345.572 104.479 344.999C104.894 344.426 105.481 343.979 106.24 343.656C106.999 343.327 107.852 343.162 108.797 343.162C110.229 343.162 111.364 343.524 112.202 344.247C113.047 344.963 113.47 345.973 113.47 347.276V352.314C113.477 353.417 113.631 354.252 113.932 354.817V355H110.795ZM108.228 352.841C108.686 352.841 109.108 352.741 109.495 352.54C109.882 352.332 110.168 352.057 110.354 351.713V349.715H109.194C107.64 349.715 106.813 350.252 106.713 351.326L106.702 351.509C106.702 351.896 106.838 352.214 107.11 352.465C107.382 352.715 107.755 352.841 108.228 352.841Z" fill="black"/>
<path d="M119.131 355H116.016V338.5H119.131V355Z" fill="black"/>
<path d="M133.912 355C133.769 354.721 133.665 354.373 133.601 353.958C132.849 354.796 131.871 355.215 130.668 355.215C129.529 355.215 128.584 354.885 127.832 354.227C127.087 353.568 126.715 352.737 126.715 351.734C126.715 350.503 127.17 349.557 128.079 348.898C128.996 348.24 130.317 347.907 132.043 347.899H133.472V347.233C133.472 346.696 133.332 346.267 133.053 345.944C132.781 345.622 132.347 345.461 131.753 345.461C131.23 345.461 130.818 345.586 130.518 345.837C130.224 346.088 130.077 346.431 130.077 346.868H126.973C126.973 346.195 127.18 345.572 127.596 344.999C128.011 344.426 128.598 343.979 129.357 343.656C130.117 343.327 130.969 343.162 131.914 343.162C133.346 343.162 134.481 343.524 135.319 344.247C136.164 344.963 136.587 345.973 136.587 347.276V352.314C136.594 353.417 136.748 354.252 137.049 354.817V355H133.912ZM131.345 352.841C131.803 352.841 132.226 352.741 132.612 352.54C132.999 352.332 133.285 352.057 133.472 351.713V349.715H132.312C130.757 349.715 129.93 350.252 129.83 351.326L129.819 351.509C129.819 351.896 129.955 352.214 130.228 352.465C130.5 352.715 130.872 352.841 131.345 352.841Z" fill="black"/>
<path d="M138.488 349.081C138.488 347.928 138.71 346.9 139.154 345.998C139.598 345.096 140.236 344.397 141.066 343.903C141.904 343.409 142.875 343.162 143.978 343.162C145.546 343.162 146.824 343.642 147.812 344.602C148.808 345.561 149.363 346.865 149.478 348.512L149.499 349.307C149.499 351.09 149.001 352.522 148.006 353.604C147.01 354.678 145.675 355.215 143.999 355.215C142.323 355.215 140.984 354.678 139.981 353.604C138.986 352.529 138.488 351.068 138.488 349.221V349.081ZM141.593 349.307C141.593 350.41 141.8 351.255 142.216 351.842C142.631 352.422 143.226 352.712 143.999 352.712C144.751 352.712 145.338 352.425 145.761 351.853C146.183 351.272 146.395 350.349 146.395 349.081C146.395 348 146.183 347.162 145.761 346.567C145.338 345.973 144.744 345.676 143.978 345.676C143.218 345.676 142.631 345.973 142.216 346.567C141.8 347.155 141.593 348.068 141.593 349.307Z" fill="black"/>
<path d="M161.724 352.712C162.297 352.712 162.762 352.554 163.12 352.239C163.478 351.924 163.664 351.505 163.679 350.982H166.59C166.583 351.77 166.368 352.493 165.945 353.152C165.523 353.804 164.943 354.312 164.205 354.678C163.475 355.036 162.665 355.215 161.777 355.215C160.116 355.215 158.805 354.688 157.846 353.636C156.886 352.576 156.406 351.115 156.406 349.253V349.049C156.406 347.258 156.882 345.83 157.835 344.763C158.787 343.696 160.094 343.162 161.756 343.162C163.21 343.162 164.373 343.577 165.247 344.408C166.128 345.232 166.576 346.331 166.59 347.706H163.679C163.664 347.104 163.478 346.618 163.12 346.245C162.762 345.866 162.289 345.676 161.702 345.676C160.979 345.676 160.431 345.941 160.059 346.471C159.693 346.993 159.511 347.846 159.511 349.027V349.35C159.511 350.546 159.693 351.405 160.059 351.928C160.424 352.451 160.979 352.712 161.724 352.712Z" fill="black"/>
<path d="M175.098 355C174.954 354.721 174.851 354.373 174.786 353.958C174.034 354.796 173.057 355.215 171.854 355.215C170.715 355.215 169.77 354.885 169.018 354.227C168.273 353.568 167.9 352.737 167.9 351.734C167.9 350.503 168.355 349.557 169.265 348.898C170.181 348.24 171.503 347.907 173.229 347.899H174.657V347.233C174.657 346.696 174.518 346.267 174.238 345.944C173.966 345.622 173.533 345.461 172.938 345.461C172.416 345.461 172.004 345.586 171.703 345.837C171.41 346.088 171.263 346.431 171.263 346.868H168.158C168.158 346.195 168.366 345.572 168.781 344.999C169.197 344.426 169.784 343.979 170.543 343.656C171.302 343.327 172.154 343.162 173.1 343.162C174.532 343.162 175.667 343.524 176.505 344.247C177.35 344.963 177.772 345.973 177.772 347.276V352.314C177.78 353.417 177.934 354.252 178.234 354.817V355H175.098ZM172.53 352.841C172.989 352.841 173.411 352.741 173.798 352.54C174.185 352.332 174.471 352.057 174.657 351.713V349.715H173.497C171.943 349.715 171.116 350.252 171.016 351.326L171.005 351.509C171.005 351.896 171.141 352.214 171.413 352.465C171.685 352.715 172.058 352.841 172.53 352.841Z" fill="black"/>
<path d="M186.688 346.288C186.266 346.231 185.894 346.202 185.571 346.202C184.397 346.202 183.627 346.6 183.262 347.395V355H180.157V343.377H183.09L183.176 344.763C183.799 343.696 184.662 343.162 185.765 343.162C186.108 343.162 186.431 343.209 186.731 343.302L186.688 346.288Z" fill="black"/>
<path d="M192.446 340.52V343.377H194.434V345.654H192.446V351.455C192.446 351.885 192.529 352.193 192.693 352.379C192.858 352.565 193.173 352.658 193.639 352.658C193.982 352.658 194.287 352.633 194.552 352.583V354.936C193.943 355.122 193.316 355.215 192.672 355.215C190.495 355.215 189.385 354.116 189.342 351.917V345.654H187.645V343.377H189.342V340.52H192.446Z" fill="black"/>
<path d="M202.898 355C202.755 354.721 202.651 354.373 202.587 353.958C201.835 354.796 200.857 355.215 199.654 355.215C198.516 355.215 197.57 354.885 196.818 354.227C196.074 353.568 195.701 352.737 195.701 351.734C195.701 350.503 196.156 349.557 197.065 348.898C197.982 348.24 199.303 347.907 201.029 347.899H202.458V347.233C202.458 346.696 202.318 346.267 202.039 345.944C201.767 345.622 201.334 345.461 200.739 345.461C200.216 345.461 199.805 345.586 199.504 345.837C199.21 346.088 199.063 346.431 199.063 346.868H195.959C195.959 346.195 196.167 345.572 196.582 344.999C196.997 344.426 197.585 343.979 198.344 343.656C199.103 343.327 199.955 343.162 200.9 343.162C202.333 343.162 203.468 343.524 204.306 344.247C205.151 344.963 205.573 345.973 205.573 347.276V352.314C205.58 353.417 205.734 354.252 206.035 354.817V355H202.898ZM200.331 352.841C200.789 352.841 201.212 352.741 201.599 352.54C201.985 352.332 202.272 352.057 202.458 351.713V349.715H201.298C199.744 349.715 198.917 350.252 198.816 351.326L198.806 351.509C198.806 351.896 198.942 352.214 199.214 352.465C199.486 352.715 199.858 352.841 200.331 352.841ZM204.929 338.64C204.929 339.449 204.692 340.129 204.22 340.681C203.747 341.225 203.171 341.497 202.49 341.497C202.218 341.497 201.975 341.468 201.76 341.411C201.552 341.347 201.262 341.214 200.89 341.014C200.517 340.813 200.249 340.691 200.084 340.648C199.919 340.598 199.74 340.573 199.547 340.573C199.296 340.573 199.081 340.663 198.902 340.842C198.73 341.021 198.645 341.275 198.645 341.604L196.84 341.497C196.84 340.702 197.073 340.025 197.538 339.467C198.011 338.908 198.587 338.629 199.268 338.629C199.482 338.629 199.683 338.658 199.869 338.715C200.062 338.765 200.374 338.894 200.804 339.102C201.233 339.309 201.531 339.435 201.695 339.478C201.86 339.521 202.032 339.542 202.211 339.542C202.462 339.542 202.676 339.456 202.855 339.284C203.042 339.105 203.135 338.851 203.135 338.521L204.929 338.64Z" fill="black"/>
<path d="M207.475 349.081C207.475 347.928 207.697 346.9 208.141 345.998C208.585 345.096 209.222 344.397 210.053 343.903C210.891 343.409 211.861 343.162 212.964 343.162C214.532 343.162 215.811 343.642 216.799 344.602C217.794 345.561 218.349 346.865 218.464 348.512L218.485 349.307C218.485 351.09 217.988 352.522 216.992 353.604C215.997 354.678 214.661 355.215 212.985 355.215C211.31 355.215 209.97 354.678 208.968 353.604C207.972 352.529 207.475 351.068 207.475 349.221V349.081ZM210.579 349.307C210.579 350.41 210.787 351.255 211.202 351.842C211.618 352.422 212.212 352.712 212.985 352.712C213.737 352.712 214.325 352.425 214.747 351.853C215.17 351.272 215.381 350.349 215.381 349.081C215.381 348 215.17 347.162 214.747 346.567C214.325 345.973 213.73 345.676 212.964 345.676C212.205 345.676 211.618 345.973 211.202 346.567C210.787 347.155 210.579 348.068 210.579 349.307Z" fill="black"/>
<path d="M225.747 348.888C225.747 350.506 225.514 352.064 225.049 353.561C224.583 355.057 223.914 356.379 223.04 357.524C222.166 358.67 221.232 359.458 220.236 359.888L219.635 358.244C220.652 357.478 221.454 356.296 222.041 354.699C222.628 353.102 222.933 351.265 222.954 349.188V348.619C222.954 346.478 222.66 344.591 222.073 342.958C221.493 341.325 220.68 340.101 219.635 339.284L220.236 337.641C221.21 338.063 222.127 338.829 222.986 339.939C223.853 341.049 224.522 342.342 224.995 343.817C225.475 345.293 225.726 346.822 225.747 348.404V348.888Z" fill="black"/>
<path d="M38.1074 254.329C38.1074 256.657 37.71 258.386 36.915 259.518C36.1201 260.649 34.8776 261.215 33.1875 261.215C31.5189 261.215 30.2835 260.663 29.4814 259.561C28.6794 258.451 28.264 256.796 28.2354 254.598V251.944C28.2354 249.646 28.6328 247.938 29.4277 246.82C30.2227 245.703 31.4688 245.145 33.166 245.145C34.849 245.145 36.0879 245.685 36.8828 246.767C37.6777 247.841 38.0859 249.502 38.1074 251.751V254.329ZM36.1201 251.611C36.1201 249.928 35.8838 248.704 35.4111 247.938C34.9385 247.164 34.1901 246.777 33.166 246.777C32.1491 246.777 31.4079 247.16 30.9424 247.927C30.4769 248.693 30.237 249.871 30.2227 251.461V254.641C30.2227 256.331 30.4661 257.58 30.9531 258.39C31.4473 259.192 32.1921 259.593 33.1875 259.593C34.1686 259.593 34.8955 259.213 35.3682 258.454C35.848 257.695 36.0986 256.499 36.1201 254.866V251.611Z" fill="black"/>
<path d="M50.4609 254.329C50.4609 256.657 50.0635 258.386 49.2686 259.518C48.4736 260.649 47.2311 261.215 45.541 261.215C43.8724 261.215 42.637 260.663 41.835 259.561C41.0329 258.451 40.6175 256.796 40.5889 254.598V251.944C40.5889 249.646 40.9863 247.938 41.7812 246.82C42.5762 245.703 43.8223 245.145 45.5195 245.145C47.2025 245.145 48.4414 245.685 49.2363 246.767C50.0312 247.841 50.4395 249.502 50.4609 251.751V254.329ZM48.4736 251.611C48.4736 249.928 48.2373 248.704 47.7646 247.938C47.292 247.164 46.5436 246.777 45.5195 246.777C44.5026 246.777 43.7614 247.16 43.2959 247.927C42.8304 248.693 42.5905 249.871 42.5762 251.461V254.641C42.5762 256.331 42.8197 257.58 43.3066 258.39C43.8008 259.192 44.5456 259.593 45.541 259.593C46.5221 259.593 47.249 259.213 47.7217 258.454C48.2015 257.695 48.4521 256.499 48.4736 254.866V251.611Z" fill="black"/>
<path d="M53.6084 262.343H51.9004L58.4316 245.359H60.1289L53.6084 262.343Z" fill="black"/>
<path d="M71.8809 254.329C71.8809 256.657 71.4834 258.386 70.6885 259.518C69.8936 260.649 68.651 261.215 66.9609 261.215C65.2923 261.215 64.057 260.663 63.2549 259.561C62.4528 258.451 62.0374 256.796 62.0088 254.598V251.944C62.0088 249.646 62.4062 247.938 63.2012 246.82C63.9961 245.703 65.2422 245.145 66.9395 245.145C68.6224 245.145 69.8613 245.685 70.6562 246.767C71.4512 247.841 71.8594 249.502 71.8809 251.751V254.329ZM69.8936 251.611C69.8936 249.928 69.6572 248.704 69.1846 247.938C68.7119 247.164 67.9635 246.777 66.9395 246.777C65.9225 246.777 65.1813 247.16 64.7158 247.927C64.2503 248.693 64.0104 249.871 63.9961 251.461V254.641C63.9961 256.331 64.2396 257.58 64.7266 258.39C65.2207 259.192 65.9655 259.593 66.9609 259.593C67.9421 259.593 68.6689 259.213 69.1416 258.454C69.6214 257.695 69.8721 256.499 69.8936 254.866V251.611Z" fill="black"/>
<path d="M84.2344 254.329C84.2344 256.657 83.8369 258.386 83.042 259.518C82.2471 260.649 81.0046 261.215 79.3145 261.215C77.6458 261.215 76.4105 260.663 75.6084 259.561C74.8063 258.451 74.391 256.796 74.3623 254.598V251.944C74.3623 249.646 74.7598 247.938 75.5547 246.82C76.3496 245.703 77.5957 245.145 79.293 245.145C80.9759 245.145 82.2148 245.685 83.0098 246.767C83.8047 247.841 84.2129 249.502 84.2344 251.751V254.329ZM82.2471 251.611C82.2471 249.928 82.0107 248.704 81.5381 247.938C81.0654 247.164 80.3171 246.777 79.293 246.777C78.276 246.777 77.5348 247.16 77.0693 247.927C76.6038 248.693 76.3639 249.871 76.3496 251.461V254.641C76.3496 256.331 76.5931 257.58 77.0801 258.39C77.5742 259.192 78.319 259.593 79.3145 259.593C80.2956 259.593 81.0225 259.213 81.4951 258.454C81.9749 257.695 82.2256 256.499 82.2471 254.866V251.611Z" fill="black"/>
<path d="M7.17578 182.122L10.7207 170.359H14.3086L8.8623 186H5.5L0.0751953 170.359H3.65234L7.17578 182.122Z" fill="black"/>
<path d="M21.8281 186C21.6849 185.721 21.5811 185.373 21.5166 184.958C20.7646 185.796 19.7871 186.215 18.584 186.215C17.4453 186.215 16.5 185.885 15.748 185.227C15.0033 184.568 14.6309 183.737 14.6309 182.734C14.6309 181.503 15.0856 180.557 15.9951 179.898C16.9118 179.24 18.2331 178.907 19.959 178.899H21.3877V178.233C21.3877 177.696 21.248 177.267 20.9688 176.944C20.6966 176.622 20.2633 176.461 19.6689 176.461C19.1462 176.461 18.7344 176.586 18.4336 176.837C18.14 177.088 17.9932 177.431 17.9932 177.868H14.8887C14.8887 177.195 15.0964 176.572 15.5117 175.999C15.9271 175.426 16.5143 174.979 17.2734 174.656C18.0326 174.327 18.8848 174.162 19.8301 174.162C21.2624 174.162 22.3975 174.524 23.2354 175.247C24.0804 175.963 24.5029 176.973 24.5029 178.276V183.314C24.5101 184.417 24.6641 185.252 24.9648 185.817V186H21.8281ZM19.2607 183.841C19.7191 183.841 20.1416 183.741 20.5283 183.54C20.915 183.332 21.2015 183.057 21.3877 182.713V180.715H20.2275C18.6735 180.715 17.8464 181.252 17.7461 182.326L17.7354 182.509C17.7354 182.896 17.8714 183.214 18.1436 183.465C18.4157 183.715 18.7881 183.841 19.2607 183.841Z" fill="black"/>
<path d="M30.1641 186H27.0488V169.5H30.1641V186Z" fill="black"/>
<path d="M36.0078 186H32.8926V174.377H36.0078V186ZM32.71 171.369C32.71 170.904 32.8639 170.521 33.1719 170.22C33.487 169.919 33.9131 169.769 34.4502 169.769C34.9801 169.769 35.4027 169.919 35.7178 170.22C36.0329 170.521 36.1904 170.904 36.1904 171.369C36.1904 171.842 36.0293 172.229 35.707 172.529C35.3919 172.83 34.973 172.98 34.4502 172.98C33.9274 172.98 33.5049 172.83 33.1826 172.529C32.8675 172.229 32.71 171.842 32.71 171.369Z" fill="black"/>
<path d="M38.0918 180.103C38.0918 178.291 38.4964 176.848 39.3057 175.773C40.1221 174.699 41.2357 174.162 42.6465 174.162C43.778 174.162 44.7126 174.585 45.4502 175.43V169.5H48.5654V186H45.7617L45.6113 184.765C44.8379 185.731 43.8424 186.215 42.625 186.215C41.2572 186.215 40.1579 185.678 39.3271 184.604C38.5036 183.522 38.0918 182.022 38.0918 180.103ZM41.1963 180.328C41.1963 181.417 41.3861 182.251 41.7656 182.831C42.1452 183.411 42.6966 183.701 43.4199 183.701C44.3796 183.701 45.0563 183.297 45.4502 182.487V177.9C45.0635 177.091 44.3939 176.687 43.4414 176.687C41.9447 176.687 41.1963 177.9 41.1963 180.328Z" fill="black"/>
<path d="M57.707 186C57.5638 185.721 57.46 185.373 57.3955 184.958C56.6436 185.796 55.666 186.215 54.4629 186.215C53.3242 186.215 52.3789 185.885 51.627 185.227C50.8822 184.568 50.5098 183.737 50.5098 182.734C50.5098 181.503 50.9645 180.557 51.874 179.898C52.7907 179.24 54.112 178.907 55.8379 178.899H57.2666V178.233C57.2666 177.696 57.127 177.267 56.8477 176.944C56.5755 176.622 56.1423 176.461 55.5479 176.461C55.0251 176.461 54.6133 176.586 54.3125 176.837C54.0189 177.088 53.8721 177.431 53.8721 177.868H50.7676C50.7676 177.195 50.9753 176.572 51.3906 175.999C51.806 175.426 52.3932 174.979 53.1523 174.656C53.9115 174.327 54.7637 174.162 55.709 174.162C57.1413 174.162 58.2764 174.524 59.1143 175.247C59.9593 175.963 60.3818 176.973 60.3818 178.276V183.314C60.389 184.417 60.543 185.252 60.8438 185.817V186H57.707ZM55.1396 183.841C55.598 183.841 56.0205 183.741 56.4072 183.54C56.7939 183.332 57.0804 183.057 57.2666 182.713V180.715H56.1064C54.5524 180.715 53.7253 181.252 53.625 182.326L53.6143 182.509C53.6143 182.896 53.7503 183.214 54.0225 183.465C54.2946 183.715 54.667 183.841 55.1396 183.841Z" fill="black"/>
<path d="M62.2832 180.103C62.2832 178.291 62.6878 176.848 63.4971 175.773C64.3135 174.699 65.4271 174.162 66.8379 174.162C67.9694 174.162 68.904 174.585 69.6416 175.43V169.5H72.7568V186H69.9531L69.8027 184.765C69.0293 185.731 68.0339 186.215 66.8164 186.215C65.4486 186.215 64.3493 185.678 63.5186 184.604C62.695 183.522 62.2832 182.022 62.2832 180.103ZM65.3877 180.328C65.3877 181.417 65.5775 182.251 65.957 182.831C66.3366 183.411 66.888 183.701 67.6113 183.701C68.571 183.701 69.2477 183.297 69.6416 182.487V177.9C69.2549 177.091 68.5853 176.687 67.6328 176.687C66.1361 176.687 65.3877 177.9 65.3877 180.328Z" fill="black"/>
<path d="M80.5127 186.215C78.8083 186.215 77.4189 185.692 76.3447 184.646C75.2777 183.601 74.7441 182.208 74.7441 180.468V180.167C74.7441 179 74.9697 177.958 75.4209 177.041C75.8721 176.117 76.5094 175.408 77.333 174.914C78.1637 174.413 79.109 174.162 80.1689 174.162C81.7588 174.162 83.0085 174.663 83.918 175.666C84.8346 176.669 85.293 178.09 85.293 179.931V181.198H77.8916C77.9919 181.957 78.2926 182.566 78.7939 183.024C79.3024 183.483 79.9434 183.712 80.7168 183.712C81.9128 183.712 82.8473 183.279 83.5205 182.412L85.0459 184.12C84.5804 184.779 83.9502 185.295 83.1553 185.667C82.3604 186.032 81.4795 186.215 80.5127 186.215ZM80.1582 176.676C79.5423 176.676 79.041 176.883 78.6543 177.299C78.2747 177.714 78.0312 178.309 77.9238 179.082H82.2422V178.835C82.2279 178.147 82.0417 177.618 81.6836 177.245C81.3255 176.866 80.8171 176.676 80.1582 176.676Z" fill="black"/>
<path d="M322.107 254.329C322.107 256.657 321.71 258.386 320.915 259.518C320.12 260.649 318.878 261.215 317.188 261.215C315.519 261.215 314.284 260.663 313.481 259.561C312.679 258.451 312.264 256.796 312.235 254.598V251.944C312.235 249.646 312.633 247.938 313.428 246.82C314.223 245.703 315.469 245.145 317.166 245.145C318.849 245.145 320.088 245.685 320.883 246.767C321.678 247.841 322.086 249.502 322.107 251.751V254.329ZM320.12 251.611C320.12 249.928 319.884 248.704 319.411 247.938C318.938 247.164 318.19 246.777 317.166 246.777C316.149 246.777 315.408 247.16 314.942 247.927C314.477 248.693 314.237 249.871 314.223 251.461V254.641C314.223 256.331 314.466 257.58 314.953 258.39C315.447 259.192 316.192 259.593 317.188 259.593C318.169 259.593 318.896 259.213 319.368 258.454C319.848 257.695 320.099 256.499 320.12 254.866V251.611Z" fill="black"/>
<path d="M334.461 254.329C334.461 256.657 334.063 258.386 333.269 259.518C332.474 260.649 331.231 261.215 329.541 261.215C327.872 261.215 326.637 260.663 325.835 259.561C325.033 258.451 324.618 256.796 324.589 254.598V251.944C324.589 249.646 324.986 247.938 325.781 246.82C326.576 245.703 327.822 245.145 329.52 245.145C331.202 245.145 332.441 245.685 333.236 246.767C334.031 247.841 334.439 249.502 334.461 251.751V254.329ZM332.474 251.611C332.474 249.928 332.237 248.704 331.765 247.938C331.292 247.164 330.544 246.777 329.52 246.777C328.503 246.777 327.761 247.16 327.296 247.927C326.83 248.693 326.59 249.871 326.576 251.461V254.641C326.576 256.331 326.82 257.58 327.307 258.39C327.801 259.192 328.546 259.593 329.541 259.593C330.522 259.593 331.249 259.213 331.722 258.454C332.201 257.695 332.452 256.499 332.474 254.866V251.611Z" fill="black"/>
<path d="M346.814 254.329C346.814 256.657 346.417 258.386 345.622 259.518C344.827 260.649 343.585 261.215 341.895 261.215C340.226 261.215 338.991 260.663 338.188 259.561C337.386 258.451 336.971 256.796 336.942 254.598V251.944C336.942 249.646 337.34 247.938 338.135 246.82C338.93 245.703 340.176 245.145 341.873 245.145C343.556 245.145 344.795 245.685 345.59 246.767C346.385 247.841 346.793 249.502 346.814 251.751V254.329ZM344.827 251.611C344.827 249.928 344.591 248.704 344.118 247.938C343.646 247.164 342.897 246.777 341.873 246.777C340.856 246.777 340.115 247.16 339.649 247.927C339.184 248.693 338.944 249.871 338.93 251.461V254.641C338.93 256.331 339.173 257.58 339.66 258.39C340.154 259.192 340.899 259.593 341.895 259.593C342.876 259.593 343.603 259.213 344.075 258.454C344.555 257.695 344.806 256.499 344.827 254.866V251.611Z" fill="black"/>
<path d="M297.675 180.79C297.553 182.473 296.93 183.798 295.806 184.765C294.688 185.731 293.213 186.215 291.38 186.215C289.375 186.215 287.796 185.542 286.643 184.195C285.497 182.842 284.924 180.987 284.924 178.631V177.675C284.924 176.171 285.189 174.846 285.719 173.7C286.249 172.554 287.004 171.677 287.985 171.068C288.974 170.452 290.119 170.145 291.423 170.145C293.228 170.145 294.681 170.628 295.784 171.595C296.887 172.562 297.524 173.919 297.696 175.666H294.474C294.395 174.656 294.112 173.926 293.625 173.475C293.145 173.016 292.411 172.787 291.423 172.787C290.349 172.787 289.543 173.174 289.006 173.947C288.476 174.714 288.204 175.906 288.189 177.524V178.706C288.189 180.396 288.444 181.632 288.952 182.412C289.468 183.193 290.277 183.583 291.38 183.583C292.375 183.583 293.117 183.357 293.604 182.906C294.098 182.448 294.381 181.743 294.452 180.79H297.675Z" fill="black"/>
<path d="M299.104 180.081C299.104 178.928 299.326 177.9 299.77 176.998C300.214 176.096 300.851 175.397 301.682 174.903C302.52 174.409 303.49 174.162 304.593 174.162C306.161 174.162 307.439 174.642 308.428 175.602C309.423 176.561 309.978 177.865 310.093 179.512L310.114 180.307C310.114 182.09 309.617 183.522 308.621 184.604C307.626 185.678 306.29 186.215 304.614 186.215C302.938 186.215 301.599 185.678 300.597 184.604C299.601 183.529 299.104 182.068 299.104 180.221V180.081ZM302.208 180.307C302.208 181.41 302.416 182.255 302.831 182.842C303.246 183.422 303.841 183.712 304.614 183.712C305.366 183.712 305.953 183.425 306.376 182.853C306.799 182.272 307.01 181.349 307.01 180.081C307.01 179 306.799 178.162 306.376 177.567C305.953 176.973 305.359 176.676 304.593 176.676C303.834 176.676 303.246 176.973 302.831 177.567C302.416 178.155 302.208 179.068 302.208 180.307ZM305.205 169.5H308.589L305.613 172.83H303.089L305.205 169.5Z" fill="black"/>
<path d="M311.543 180.103C311.543 178.291 311.948 176.848 312.757 175.773C313.573 174.699 314.687 174.162 316.098 174.162C317.229 174.162 318.164 174.585 318.901 175.43V169.5H322.017V186H319.213L319.062 184.765C318.289 185.731 317.294 186.215 316.076 186.215C314.708 186.215 313.609 185.678 312.778 184.604C311.955 183.522 311.543 182.022 311.543 180.103ZM314.647 180.328C314.647 181.417 314.837 182.251 315.217 182.831C315.596 183.411 316.148 183.701 316.871 183.701C317.831 183.701 318.507 183.297 318.901 182.487V177.9C318.515 177.091 317.845 176.687 316.893 176.687C315.396 176.687 314.647 177.9 314.647 180.328Z" fill="black"/>
<path d="M327.699 186H324.584V174.377H327.699V186ZM324.401 171.369C324.401 170.904 324.555 170.521 324.863 170.22C325.178 169.919 325.604 169.769 326.142 169.769C326.672 169.769 327.094 169.919 327.409 170.22C327.724 170.521 327.882 170.904 327.882 171.369C327.882 171.842 327.721 172.229 327.398 172.529C327.083 172.83 326.664 172.98 326.142 172.98C325.619 172.98 325.196 172.83 324.874 172.529C324.559 172.229 324.401 171.842 324.401 171.369Z" fill="black"/>
<path d="M329.815 180.103C329.815 178.319 330.238 176.883 331.083 175.795C331.935 174.706 333.081 174.162 334.521 174.162C335.795 174.162 336.787 174.599 337.496 175.473L337.625 174.377H340.439V185.613C340.439 186.63 340.207 187.515 339.741 188.267C339.283 189.019 338.635 189.591 337.797 189.985C336.959 190.379 335.978 190.576 334.854 190.576C334.001 190.576 333.171 190.404 332.361 190.061C331.552 189.724 330.94 189.287 330.524 188.75L331.899 186.859C332.673 187.726 333.611 188.159 334.714 188.159C335.537 188.159 336.178 187.937 336.637 187.493C337.095 187.056 337.324 186.433 337.324 185.624V185.001C336.608 185.81 335.666 186.215 334.499 186.215C333.103 186.215 331.971 185.671 331.104 184.582C330.245 183.486 329.815 182.036 329.815 180.231V180.103ZM332.92 180.328C332.92 181.381 333.131 182.208 333.554 182.81C333.976 183.404 334.556 183.701 335.294 183.701C336.239 183.701 336.916 183.347 337.324 182.638V177.75C336.909 177.041 336.239 176.687 335.315 176.687C334.571 176.687 333.983 176.991 333.554 177.6C333.131 178.208 332.92 179.118 332.92 180.328Z" fill="black"/>
<path d="M342.352 180.081C342.352 178.928 342.574 177.9 343.018 176.998C343.462 176.096 344.099 175.397 344.93 174.903C345.768 174.409 346.738 174.162 347.841 174.162C349.409 174.162 350.688 174.642 351.676 175.602C352.671 176.561 353.226 177.865 353.341 179.512L353.362 180.307C353.362 182.09 352.865 183.522 351.869 184.604C350.874 185.678 349.538 186.215 347.862 186.215C346.187 186.215 344.847 185.678 343.845 184.604C342.849 183.529 342.352 182.068 342.352 180.221V180.081ZM345.456 180.307C345.456 181.41 345.664 182.255 346.079 182.842C346.494 183.422 347.089 183.712 347.862 183.712C348.614 183.712 349.201 183.425 349.624 182.853C350.047 182.272 350.258 181.349 350.258 180.081C350.258 179 350.047 178.162 349.624 177.567C349.201 176.973 348.607 176.676 347.841 176.676C347.082 176.676 346.494 176.973 346.079 177.567C345.664 178.155 345.456 179.068 345.456 180.307Z" fill="black"/>
<path d="M360.27 180.103C360.27 178.291 360.674 176.848 361.483 175.773C362.3 174.699 363.413 174.162 364.824 174.162C365.956 174.162 366.89 174.585 367.628 175.43V169.5H370.743V186H367.939L367.789 184.765C367.016 185.731 366.02 186.215 364.803 186.215C363.435 186.215 362.336 185.678 361.505 184.604C360.681 183.522 360.27 182.022 360.27 180.103ZM363.374 180.328C363.374 181.417 363.564 182.251 363.943 182.831C364.323 183.411 364.874 183.701 365.598 183.701C366.557 183.701 367.234 183.297 367.628 182.487V177.9C367.241 177.091 366.572 176.687 365.619 176.687C364.122 176.687 363.374 177.9 363.374 180.328Z" fill="black"/>
<path d="M378.499 186.215C376.795 186.215 375.405 185.692 374.331 184.646C373.264 183.601 372.73 182.208 372.73 180.468V180.167C372.73 179 372.956 177.958 373.407 177.041C373.858 176.117 374.496 175.408 375.319 174.914C376.15 174.413 377.095 174.162 378.155 174.162C379.745 174.162 380.995 174.663 381.904 175.666C382.821 176.669 383.279 178.09 383.279 179.931V181.198H375.878C375.978 181.957 376.279 182.566 376.78 183.024C377.289 183.483 377.93 183.712 378.703 183.712C379.899 183.712 380.834 183.279 381.507 182.412L383.032 184.12C382.567 184.779 381.937 185.295 381.142 185.667C380.347 186.032 379.466 186.215 378.499 186.215ZM378.145 176.676C377.529 176.676 377.027 176.883 376.641 177.299C376.261 177.714 376.018 178.309 375.91 179.082H380.229V178.835C380.214 178.147 380.028 177.618 379.67 177.245C379.312 176.866 378.803 176.676 378.145 176.676Z" fill="black"/>
<path d="M396.825 182.788C396.825 182.409 396.635 182.111 396.256 181.896C395.883 181.674 395.282 181.478 394.451 181.306C391.687 180.726 390.305 179.551 390.305 177.782C390.305 176.751 390.731 175.892 391.583 175.204C392.442 174.509 393.563 174.162 394.945 174.162C396.421 174.162 397.599 174.509 398.479 175.204C399.368 175.899 399.812 176.801 399.812 177.911H396.707C396.707 177.467 396.564 177.102 396.277 176.815C395.991 176.522 395.543 176.375 394.935 176.375C394.412 176.375 394.007 176.493 393.721 176.729C393.434 176.966 393.291 177.267 393.291 177.632C393.291 177.976 393.452 178.255 393.774 178.47C394.104 178.677 394.655 178.86 395.429 179.018C396.202 179.168 396.854 179.34 397.384 179.533C399.024 180.135 399.844 181.177 399.844 182.659C399.844 183.719 399.389 184.578 398.479 185.237C397.57 185.889 396.396 186.215 394.956 186.215C393.982 186.215 393.116 186.043 392.356 185.699C391.604 185.348 391.014 184.872 390.584 184.271C390.154 183.662 389.939 183.007 389.939 182.305H392.883C392.911 182.856 393.116 183.279 393.495 183.572C393.875 183.866 394.383 184.013 395.021 184.013C395.615 184.013 396.062 183.902 396.363 183.68C396.671 183.451 396.825 183.153 396.825 182.788Z" fill="black"/>
<path d="M407.202 186.215C405.498 186.215 404.108 185.692 403.034 184.646C401.967 183.601 401.434 182.208 401.434 180.468V180.167C401.434 179 401.659 177.958 402.11 177.041C402.562 176.117 403.199 175.408 404.022 174.914C404.853 174.413 405.799 174.162 406.858 174.162C408.448 174.162 409.698 174.663 410.607 175.666C411.524 176.669 411.982 178.09 411.982 179.931V181.198H404.581C404.681 181.957 404.982 182.566 405.483 183.024C405.992 183.483 406.633 183.712 407.406 183.712C408.602 183.712 409.537 183.279 410.21 182.412L411.735 184.12C411.27 184.779 410.64 185.295 409.845 185.667C409.05 186.032 408.169 186.215 407.202 186.215ZM406.848 176.676C406.232 176.676 405.73 176.883 405.344 177.299C404.964 177.714 404.721 178.309 404.613 179.082H408.932V178.835C408.917 178.147 408.731 177.618 408.373 177.245C408.015 176.866 407.507 176.676 406.848 176.676Z" fill="black"/>
<path d="M413.304 180.103C413.304 178.319 413.726 176.883 414.571 175.795C415.424 174.706 416.569 174.162 418.009 174.162C419.284 174.162 420.275 174.599 420.984 175.473L421.113 174.377H423.928V185.613C423.928 186.63 423.695 187.515 423.229 188.267C422.771 189.019 422.123 189.591 421.285 189.985C420.447 190.379 419.466 190.576 418.342 190.576C417.49 190.576 416.659 190.404 415.85 190.061C415.04 189.724 414.428 189.287 414.013 188.75L415.388 186.859C416.161 187.726 417.099 188.159 418.202 188.159C419.026 188.159 419.667 187.937 420.125 187.493C420.583 187.056 420.812 186.433 420.812 185.624V185.001C420.096 185.81 419.155 186.215 417.987 186.215C416.591 186.215 415.459 185.671 414.593 184.582C413.733 183.486 413.304 182.036 413.304 180.231V180.103ZM416.408 180.328C416.408 181.381 416.619 182.208 417.042 182.81C417.465 183.404 418.045 183.701 418.782 183.701C419.728 183.701 420.404 183.347 420.812 182.638V177.75C420.397 177.041 419.728 176.687 418.804 176.687C418.059 176.687 417.472 176.991 417.042 177.6C416.619 178.208 416.408 179.118 416.408 180.328Z" fill="black"/>
<path d="M433.284 184.818C432.518 185.749 431.458 186.215 430.104 186.215C428.858 186.215 427.906 185.857 427.247 185.141C426.595 184.424 426.262 183.375 426.248 181.993V174.377H429.353V181.886C429.353 183.096 429.904 183.701 431.007 183.701C432.06 183.701 432.783 183.336 433.177 182.605V174.377H436.292V186H433.37L433.284 184.818Z" fill="black"/>
<path d="M445.165 177.288C444.743 177.231 444.37 177.202 444.048 177.202C442.873 177.202 442.104 177.6 441.738 178.395V186H438.634V174.377H441.566L441.652 175.763C442.275 174.696 443.138 174.162 444.241 174.162C444.585 174.162 444.907 174.209 445.208 174.302L445.165 177.288Z" fill="black"/>
<path d="M453.082 186C452.939 185.721 452.835 185.373 452.771 184.958C452.019 185.796 451.041 186.215 449.838 186.215C448.699 186.215 447.754 185.885 447.002 185.227C446.257 184.568 445.885 183.737 445.885 182.734C445.885 181.503 446.34 180.557 447.249 179.898C448.166 179.24 449.487 178.907 451.213 178.899H452.642V178.233C452.642 177.696 452.502 177.267 452.223 176.944C451.951 176.622 451.517 176.461 450.923 176.461C450.4 176.461 449.988 176.586 449.688 176.837C449.394 177.088 449.247 177.431 449.247 177.868H446.143C446.143 177.195 446.35 176.572 446.766 175.999C447.181 175.426 447.768 174.979 448.527 174.656C449.286 174.327 450.139 174.162 451.084 174.162C452.516 174.162 453.651 174.524 454.489 175.247C455.334 175.963 455.757 176.973 455.757 178.276V183.314C455.764 184.417 455.918 185.252 456.219 185.817V186H453.082ZM450.515 183.841C450.973 183.841 451.396 183.741 451.782 183.54C452.169 183.332 452.455 183.057 452.642 182.713V180.715H451.481C449.927 180.715 449.1 181.252 449 182.326L448.989 182.509C448.989 182.896 449.125 183.214 449.397 183.465C449.67 183.715 450.042 183.841 450.515 183.841Z" fill="black"/>
<path d="M460.999 174.377L461.096 175.72C461.926 174.681 463.04 174.162 464.437 174.162C465.668 174.162 466.585 174.524 467.187 175.247C467.788 175.97 468.096 177.052 468.11 178.491V186H465.006V178.566C465.006 177.908 464.863 177.431 464.576 177.138C464.29 176.837 463.813 176.687 463.147 176.687C462.274 176.687 461.618 177.059 461.182 177.804V186H458.077V174.377H460.999Z" fill="black"/>
<path d="M475.308 183.712C475.881 183.712 476.346 183.554 476.704 183.239C477.062 182.924 477.248 182.505 477.263 181.982H480.174C480.167 182.77 479.952 183.493 479.529 184.152C479.107 184.804 478.527 185.312 477.789 185.678C477.059 186.036 476.249 186.215 475.361 186.215C473.7 186.215 472.389 185.688 471.43 184.636C470.47 183.576 469.99 182.115 469.99 180.253V180.049C469.99 178.258 470.466 176.83 471.419 175.763C472.371 174.696 473.678 174.162 475.34 174.162C476.794 174.162 477.957 174.577 478.831 175.408C479.712 176.232 480.16 177.331 480.174 178.706H477.263C477.248 178.104 477.062 177.618 476.704 177.245C476.346 176.866 475.873 176.676 475.286 176.676C474.563 176.676 474.015 176.941 473.643 177.471C473.277 177.993 473.095 178.846 473.095 180.027V180.35C473.095 181.546 473.277 182.405 473.643 182.928C474.008 183.451 474.563 183.712 475.308 183.712ZM476.436 185.936L476.317 186.559C477.392 186.752 477.929 187.371 477.929 188.417C477.929 189.205 477.599 189.828 476.94 190.286C476.289 190.744 475.368 190.974 474.18 190.974L474.104 189.18C474.907 189.18 475.308 188.89 475.308 188.31C475.308 188.009 475.186 187.801 474.942 187.687C474.706 187.579 474.319 187.507 473.782 187.472L474.115 185.936H476.436Z" fill="black"/>
<path d="M488.682 186C488.538 185.721 488.435 185.373 488.37 184.958C487.618 185.796 486.641 186.215 485.438 186.215C484.299 186.215 483.354 185.885 482.602 185.227C481.857 184.568 481.484 183.737 481.484 182.734C481.484 181.503 481.939 180.557 482.849 179.898C483.765 179.24 485.087 178.907 486.812 178.899H488.241V178.233C488.241 177.696 488.102 177.267 487.822 176.944C487.55 176.622 487.117 176.461 486.522 176.461C486 176.461 485.588 176.586 485.287 176.837C484.993 177.088 484.847 177.431 484.847 177.868H481.742C481.742 177.195 481.95 176.572 482.365 175.999C482.781 175.426 483.368 174.979 484.127 174.656C484.886 174.327 485.738 174.162 486.684 174.162C488.116 174.162 489.251 174.524 490.089 175.247C490.934 175.963 491.356 176.973 491.356 178.276V183.314C491.364 184.417 491.518 185.252 491.818 185.817V186H488.682ZM486.114 183.841C486.573 183.841 486.995 183.741 487.382 183.54C487.769 183.332 488.055 183.057 488.241 182.713V180.715H487.081C485.527 180.715 484.7 181.252 484.6 182.326L484.589 182.509C484.589 182.896 484.725 183.214 484.997 183.465C485.269 183.715 485.642 183.841 486.114 183.841Z" fill="black"/>
</svg>
