<svg width="228" height="39" viewBox="0 0 228 39" fill="none" xmlns="http://www.w3.org/2000/svg">
<rect width="226" height="37" fill="black" fill-opacity="0" transform="translate(2 2)"/>
<path d="M96.6475 23.8955C96.4814 26.1904 95.6318 27.9971 94.0986 29.3154C92.5752 30.6338 90.5635 31.293 88.0635 31.293C85.3291 31.293 83.1758 30.375 81.6035 28.5391C80.041 26.6934 79.2598 24.1641 79.2598 20.9512V19.6475C79.2598 17.5967 79.6211 15.79 80.3438 14.2275C81.0664 12.665 82.0967 11.4688 83.4346 10.6387C84.7822 9.79883 86.3447 9.37891 88.1221 9.37891C90.583 9.37891 92.5654 10.0381 94.0693 11.3564C95.5732 12.6748 96.4424 14.5254 96.6768 16.9082H92.2822C92.1748 15.5312 91.7891 14.5352 91.125 13.9199C90.4707 13.2949 89.4697 12.9824 88.1221 12.9824C86.6572 12.9824 85.5586 13.5098 84.8262 14.5645C84.1035 15.6094 83.7324 17.2354 83.7129 19.4424V21.0537C83.7129 23.3584 84.0596 25.043 84.7529 26.1074C85.4561 27.1719 86.5596 27.7041 88.0635 27.7041C89.4209 27.7041 90.4316 27.3965 91.0957 26.7812C91.7695 26.1562 92.1553 25.1943 92.2529 23.8955H96.6475ZM111.574 26.6055H103.869L102.404 31H97.7314L105.671 9.67188H109.743L117.727 31H113.054L111.574 26.6055ZM105.056 23.0459H110.388L107.707 15.0625L105.056 23.0459ZM127.614 23.1924H124.113V31H119.719V9.67188H127.644C130.163 9.67188 132.106 10.2334 133.474 11.3564C134.841 12.4795 135.524 14.0664 135.524 16.1172C135.524 17.5723 135.207 18.7881 134.572 19.7646C133.947 20.7314 132.995 21.5029 131.716 22.0791L136.33 30.7949V31H131.613L127.614 23.1924ZM124.113 19.6328H127.658C128.762 19.6328 129.616 19.3545 130.222 18.7979C130.827 18.2314 131.13 17.4551 131.13 16.4688C131.13 15.4629 130.842 14.6719 130.266 14.0957C129.699 13.5195 128.825 13.2314 127.644 13.2314H124.113V19.6328ZM146.774 23.1924H143.273V31H138.879V9.67188H146.804C149.323 9.67188 151.267 10.2334 152.634 11.3564C154.001 12.4795 154.685 14.0664 154.685 16.1172C154.685 17.5723 154.367 18.7881 153.732 19.7646C153.107 20.7314 152.155 21.5029 150.876 22.0791L155.49 30.7949V31H150.773L146.774 23.1924ZM143.273 19.6328H146.818C147.922 19.6328 148.776 19.3545 149.382 18.7979C149.987 18.2314 150.29 17.4551 150.29 16.4688C150.29 15.4629 150.002 14.6719 149.426 14.0957C148.859 13.5195 147.985 13.2314 146.804 13.2314H143.273V19.6328ZM162.712 31H158.317V9.67188H162.712V31ZM184.143 31H179.748L171.193 16.9668V31H166.799V9.67188H171.193L179.763 23.7344V9.67188H184.143V31ZM205.339 31H200.944V21.8594H192.375V31H187.98V9.67188H192.375V18.3145H200.944V9.67188H205.339V31ZM226.711 20.8193C226.711 22.9189 226.34 24.7598 225.598 26.3418C224.855 27.9238 223.791 29.1445 222.404 30.0039C221.027 30.8633 219.445 31.293 217.658 31.293C215.891 31.293 214.313 30.8682 212.927 30.0186C211.54 29.1689 210.466 27.958 209.704 26.3857C208.942 24.8037 208.557 22.9873 208.547 20.9365V19.8818C208.547 17.7822 208.923 15.9365 209.675 14.3447C210.437 12.7432 211.506 11.5176 212.883 10.668C214.27 9.80859 215.852 9.37891 217.629 9.37891C219.406 9.37891 220.983 9.80859 222.36 10.668C223.747 11.5176 224.816 12.7432 225.568 14.3447C226.33 15.9365 226.711 17.7773 226.711 19.8672V20.8193ZM222.258 19.8525C222.258 17.6162 221.857 15.917 221.057 14.7549C220.256 13.5928 219.113 13.0117 217.629 13.0117C216.154 13.0117 215.017 13.5879 214.216 14.7402C213.415 15.8828 213.01 17.5625 213 19.7793V20.8193C213 22.9971 213.4 24.6865 214.201 25.8877C215.002 27.0889 216.154 27.6895 217.658 27.6895C219.133 27.6895 220.266 27.1133 221.057 25.9609C221.848 24.7988 222.248 23.1094 222.258 20.8926V19.8525Z" fill="#454545"/>
<rect width="51" height="35" fill="black" fill-opacity="0" transform="translate(2 2)"/>
<path d="M2 2H12.6744L19.1977 21.3103C19.3953 22.3161 20.5023 24.3276 23.3488 24.3276C26.1953 24.3276 42.3256 24.3276 50.0349 24.3276C51.0233 24.3276 53 23.7241 53 21.3103C53 18.8966 53 6.22414 45.2907 6.22414H22.1628" stroke="#454545" stroke-width="4" stroke-linecap="round"/>
<ellipse cx="23.3489" cy="33.3793" rx="3.55814" ry="3.62069" fill="#454545"/>
<ellipse cx="48.2559" cy="33.3793" rx="3.55814" ry="3.62069" fill="#454545"/>
</svg>
