<svg width="596" height="85" viewBox="0 0 596 85" fill="none" xmlns="http://www.w3.org/2000/svg">
<rect width="596" height="85" fill="black" fill-opacity="0"/>
<rect x="1" y="1" width="594" height="83" stroke="white" stroke-width="2"/>
<rect width="65" height="44" fill="black" fill-opacity="0" transform="translate(26 21)"/>
<path d="M26 21H32.4372V64.9206H26V21ZM51.1208 65H57.558V21H51.1208V65V65ZM42.721 65H49.1582V21H42.721V65V65ZM35.8128 65H39.3454V21H35.8128V65ZM59.442 65H65.8792V21H59.442V65ZM84.5628 21V64.9206H91V21H84.5628ZM69.2548 65H72.8659V21H69.2548V65V65ZM78.5181 65H80.3237V21H78.5181V65Z" fill="black"/>
<path d="M128.771 48.0234C128.191 48.7181 127.371 49.2588 126.312 49.6455C125.252 50.0251 124.077 50.2148 122.788 50.2148C121.435 50.2148 120.246 49.9212 119.222 49.334C118.205 48.7396 117.417 47.8802 116.858 46.7559C116.307 45.6315 116.024 44.3102 116.01 42.792V41.7285C116.01 40.1673 116.271 38.8174 116.794 37.6787C117.324 36.5329 118.083 35.6592 119.071 35.0576C120.067 34.4489 121.23 34.1445 122.562 34.1445C124.417 34.1445 125.868 34.5885 126.913 35.4766C127.959 36.3574 128.578 37.6429 128.771 39.333H125.635C125.492 38.4378 125.173 37.7826 124.679 37.3672C124.192 36.9518 123.519 36.7441 122.659 36.7441C121.563 36.7441 120.729 37.1559 120.156 37.9795C119.583 38.8031 119.293 40.0277 119.286 41.6533V42.6523C119.286 44.2923 119.598 45.5312 120.221 46.3691C120.844 47.207 121.757 47.626 122.96 47.626C124.17 47.626 125.033 47.3682 125.549 46.8525V44.1562H122.616V41.7822H128.771V48.0234Z" fill="black"/>
<path d="M136.538 50.2148C134.834 50.2148 133.444 49.6921 132.37 48.6465C131.303 47.6009 130.77 46.208 130.77 44.4678V44.167C130.77 42.9997 130.995 41.9577 131.446 41.041C131.897 40.1172 132.535 39.4082 133.358 38.9141C134.189 38.4128 135.134 38.1621 136.194 38.1621C137.784 38.1621 139.034 38.6634 139.943 39.666C140.86 40.6686 141.318 42.0902 141.318 43.9307V45.1982H133.917C134.017 45.9574 134.318 46.5661 134.819 47.0244C135.328 47.4827 135.969 47.7119 136.742 47.7119C137.938 47.7119 138.873 47.2786 139.546 46.4121L141.071 48.1201C140.606 48.779 139.976 49.2946 139.181 49.667C138.386 50.0322 137.505 50.2148 136.538 50.2148ZM136.184 40.6758C135.568 40.6758 135.066 40.8835 134.68 41.2988C134.3 41.7142 134.057 42.3086 133.949 43.082H138.268V42.835C138.253 42.1475 138.067 41.6175 137.709 41.2451C137.351 40.8656 136.842 40.6758 136.184 40.6758Z" fill="black"/>
<path d="M149.622 41.2881C149.2 41.2308 148.827 41.2021 148.505 41.2021C147.33 41.2021 146.561 41.5996 146.195 42.3945V50H143.091V38.377H146.023L146.109 39.7627C146.732 38.6956 147.595 38.1621 148.698 38.1621C149.042 38.1621 149.364 38.2087 149.665 38.3018L149.622 41.2881Z" fill="black"/>
<path d="M157.539 50C157.396 49.7207 157.292 49.3734 157.228 48.958C156.476 49.7959 155.498 50.2148 154.295 50.2148C153.156 50.2148 152.211 49.8854 151.459 49.2266C150.714 48.5677 150.342 47.737 150.342 46.7344C150.342 45.5026 150.797 44.5573 151.706 43.8984C152.623 43.2396 153.944 42.9066 155.67 42.8994H157.099V42.2334C157.099 41.6963 156.959 41.2666 156.68 40.9443C156.408 40.6221 155.974 40.4609 155.38 40.4609C154.857 40.4609 154.445 40.5863 154.145 40.8369C153.851 41.0876 153.704 41.4313 153.704 41.8682H150.6C150.6 41.195 150.807 40.5719 151.223 39.999C151.638 39.4261 152.225 38.9785 152.984 38.6562C153.743 38.3268 154.596 38.1621 155.541 38.1621C156.973 38.1621 158.108 38.5238 158.946 39.2471C159.791 39.9632 160.214 40.973 160.214 42.2764V47.3145C160.221 48.4173 160.375 49.2516 160.676 49.8174V50H157.539ZM154.972 47.8408C155.43 47.8408 155.853 47.7406 156.239 47.54C156.626 47.3324 156.912 47.0566 157.099 46.7129V44.7148H155.938C154.384 44.7148 153.557 45.252 153.457 46.3262L153.446 46.5088C153.446 46.8955 153.582 47.2142 153.854 47.4648C154.127 47.7155 154.499 47.8408 154.972 47.8408Z" fill="black"/>
<path d="M169.13 41.2881C168.707 41.2308 168.335 41.2021 168.013 41.2021C166.838 41.2021 166.068 41.5996 165.703 42.3945V50H162.599V38.377H165.531L165.617 39.7627C166.24 38.6956 167.103 38.1621 168.206 38.1621C168.55 38.1621 168.872 38.2087 169.173 38.3018L169.13 41.2881Z" fill="black"/>
<path d="M186.586 44.2959C186.586 46.1579 186.188 47.6117 185.394 48.6572C184.599 49.6956 183.489 50.2148 182.063 50.2148C180.803 50.2148 179.797 49.7314 179.045 48.7646L178.905 50H176.112V33.5H179.217V39.4189C179.933 38.5811 180.875 38.1621 182.042 38.1621C183.46 38.1621 184.57 38.6849 185.372 39.7305C186.181 40.7689 186.586 42.2334 186.586 44.124V44.2959ZM183.481 44.0703C183.481 42.8958 183.295 42.04 182.923 41.5029C182.55 40.9587 181.995 40.6865 181.258 40.6865C180.27 40.6865 179.589 41.0911 179.217 41.9004V46.4873C179.596 47.3037 180.284 47.7119 181.279 47.7119C182.282 47.7119 182.941 47.2178 183.256 46.2295C183.406 45.7568 183.481 45.0371 183.481 44.0703Z" fill="black"/>
<path d="M188.025 44.0811C188.025 42.9281 188.247 41.9004 188.691 40.998C189.135 40.0957 189.773 39.3975 190.604 38.9033C191.441 38.4092 192.412 38.1621 193.515 38.1621C195.083 38.1621 196.361 38.6419 197.35 39.6016C198.345 40.5612 198.9 41.8646 199.015 43.5117L199.036 44.3066C199.036 46.0898 198.538 47.5221 197.543 48.6035C196.548 49.6777 195.212 50.2148 193.536 50.2148C191.86 50.2148 190.521 49.6777 189.519 48.6035C188.523 47.5293 188.025 46.0684 188.025 44.2207V44.0811ZM191.13 44.3066C191.13 45.4095 191.338 46.2546 191.753 46.8418C192.168 47.4219 192.763 47.7119 193.536 47.7119C194.288 47.7119 194.875 47.4255 195.298 46.8525C195.72 46.2725 195.932 45.3486 195.932 44.0811C195.932 42.9997 195.72 42.1618 195.298 41.5674C194.875 40.973 194.281 40.6758 193.515 40.6758C192.756 40.6758 192.168 40.973 191.753 41.5674C191.338 42.1546 191.13 43.0677 191.13 44.3066Z" fill="black"/>
<path d="M204.225 50H201.109V33.5H204.225V50Z" fill="black"/>
<path d="M212.142 50.2148C210.437 50.2148 209.048 49.6921 207.974 48.6465C206.907 47.6009 206.373 46.208 206.373 44.4678V44.167C206.373 42.9997 206.599 41.9577 207.05 41.041C207.501 40.1172 208.138 39.4082 208.962 38.9141C209.793 38.4128 210.738 38.1621 211.798 38.1621C213.388 38.1621 214.637 38.6634 215.547 39.666C216.464 40.6686 216.922 42.0902 216.922 43.9307V45.1982H209.521C209.621 45.9574 209.922 46.5661 210.423 47.0244C210.931 47.4827 211.572 47.7119 212.346 47.7119C213.542 47.7119 214.476 47.2786 215.149 46.4121L216.675 48.1201C216.209 48.779 215.579 49.2946 214.784 49.667C213.989 50.0322 213.108 50.2148 212.142 50.2148ZM211.787 40.6758C211.171 40.6758 210.67 40.8835 210.283 41.2988C209.904 41.7142 209.66 42.3086 209.553 43.082H213.871V42.835C213.857 42.1475 213.671 41.6175 213.312 41.2451C212.954 40.8656 212.446 40.6758 211.787 40.6758Z" fill="black"/>
<path d="M222.411 35.5195V38.377H224.398V40.6543H222.411V46.4551C222.411 46.8848 222.493 47.1927 222.658 47.3789C222.823 47.5651 223.138 47.6582 223.604 47.6582C223.947 47.6582 224.252 47.6331 224.517 47.583V49.9355C223.908 50.1217 223.281 50.2148 222.637 50.2148C220.46 50.2148 219.35 49.1156 219.307 46.917V40.6543H217.609V38.377H219.307V35.5195H222.411Z" fill="black"/>
<path d="M225.322 44.0811C225.322 42.9281 225.544 41.9004 225.988 40.998C226.432 40.0957 227.07 39.3975 227.9 38.9033C228.738 38.4092 229.709 38.1621 230.812 38.1621C232.38 38.1621 233.658 38.6419 234.646 39.6016C235.642 40.5612 236.197 41.8646 236.312 43.5117L236.333 44.3066C236.333 46.0898 235.835 47.5221 234.84 48.6035C233.844 49.6777 232.509 50.2148 230.833 50.2148C229.157 50.2148 227.818 49.6777 226.815 48.6035C225.82 47.5293 225.322 46.0684 225.322 44.2207V44.0811ZM228.427 44.3066C228.427 45.4095 228.634 46.2546 229.05 46.8418C229.465 47.4219 230.06 47.7119 230.833 47.7119C231.585 47.7119 232.172 47.4255 232.595 46.8525C233.017 46.2725 233.229 45.3486 233.229 44.0811C233.229 42.9997 233.017 42.1618 232.595 41.5674C232.172 40.973 231.578 40.6758 230.812 40.6758C230.052 40.6758 229.465 40.973 229.05 41.5674C228.634 42.1546 228.427 43.0677 228.427 44.3066Z" fill="black"/>
</svg>
