<svg width="415" height="413" viewBox="0 0 415 413" fill="none" xmlns="http://www.w3.org/2000/svg">
<rect width="413.811" height="413" fill="black" fill-opacity="0" transform="translate(0.94043)"/>
<rect width="330" height="67" fill="black" fill-opacity="0" transform="translate(42 346)"/>
<rect x="42" y="346" width="330" height="67" rx="5" fill="#F6CF01"/>
<path d="M167.675 381.79C167.553 383.473 166.93 384.798 165.806 385.765C164.688 386.731 163.213 387.215 161.38 387.215C159.375 387.215 157.796 386.542 156.643 385.195C155.497 383.842 154.924 381.987 154.924 379.631V378.675C154.924 377.171 155.189 375.846 155.719 374.7C156.249 373.554 157.004 372.677 157.985 372.068C158.974 371.452 160.119 371.145 161.423 371.145C163.228 371.145 164.681 371.628 165.784 372.595C166.887 373.562 167.524 374.919 167.696 376.666H164.474C164.395 375.656 164.112 374.926 163.625 374.475C163.145 374.016 162.411 373.787 161.423 373.787C160.349 373.787 159.543 374.174 159.006 374.947C158.476 375.714 158.204 376.906 158.189 378.524V379.706C158.189 381.396 158.444 382.632 158.952 383.412C159.468 384.193 160.277 384.583 161.38 384.583C162.375 384.583 163.117 384.357 163.604 383.906C164.098 383.448 164.381 382.743 164.452 381.79H167.675Z" fill="black"/>
<path d="M182.639 379.534C182.639 381.074 182.367 382.424 181.822 383.584C181.278 384.744 180.497 385.639 179.48 386.27C178.471 386.9 177.311 387.215 176 387.215C174.704 387.215 173.547 386.903 172.53 386.28C171.513 385.657 170.726 384.769 170.167 383.616C169.608 382.456 169.326 381.124 169.318 379.62V378.847C169.318 377.307 169.594 375.953 170.146 374.786C170.704 373.612 171.488 372.713 172.498 372.09C173.515 371.46 174.675 371.145 175.979 371.145C177.282 371.145 178.438 371.46 179.448 372.09C180.465 372.713 181.249 373.612 181.801 374.786C182.359 375.953 182.639 377.303 182.639 378.836V379.534ZM179.373 378.825C179.373 377.185 179.079 375.939 178.492 375.087C177.905 374.235 177.067 373.809 175.979 373.809C174.897 373.809 174.063 374.231 173.476 375.076C172.888 375.914 172.591 377.146 172.584 378.771V379.534C172.584 381.131 172.878 382.37 173.465 383.251C174.052 384.132 174.897 384.572 176 384.572C177.081 384.572 177.912 384.15 178.492 383.305C179.072 382.452 179.366 381.214 179.373 379.588V378.825Z" fill="black"/>
<path d="M197.699 387H194.477L188.203 376.709V387H184.98V371.359H188.203L194.487 381.672V371.359H197.699V387Z" fill="black"/>
<path d="M212.792 381.79C212.67 383.473 212.047 384.798 210.923 385.765C209.806 386.731 208.33 387.215 206.497 387.215C204.492 387.215 202.913 386.542 201.76 385.195C200.614 383.842 200.041 381.987 200.041 379.631V378.675C200.041 377.171 200.306 375.846 200.836 374.7C201.366 373.554 202.121 372.677 203.103 372.068C204.091 371.452 205.237 371.145 206.54 371.145C208.345 371.145 209.799 371.628 210.901 372.595C212.004 373.562 212.642 374.919 212.813 376.666H209.591C209.512 375.656 209.229 374.926 208.742 374.475C208.262 374.016 207.528 373.787 206.54 373.787C205.466 373.787 204.66 374.174 204.123 374.947C203.593 375.714 203.321 376.906 203.307 378.524V379.706C203.307 381.396 203.561 382.632 204.069 383.412C204.585 384.193 205.394 384.583 206.497 384.583C207.493 384.583 208.234 384.357 208.721 383.906C209.215 383.448 209.498 382.743 209.569 381.79H212.792Z" fill="black"/>
<path d="M218.131 384.411H224.974V387H214.908V371.359H218.131V384.411Z" fill="black"/>
<path d="M238.412 371.359V381.661C238.412 383.373 237.875 384.726 236.801 385.722C235.734 386.717 234.273 387.215 232.418 387.215C230.592 387.215 229.142 386.731 228.067 385.765C226.993 384.798 226.445 383.469 226.424 381.779V371.359H229.646V381.683C229.646 382.707 229.89 383.455 230.377 383.928C230.871 384.393 231.551 384.626 232.418 384.626C234.23 384.626 235.15 383.674 235.179 381.769V371.359H238.412Z" fill="black"/>
<path d="M244.481 387H241.259V371.359H244.481V387Z" fill="black"/>
<path d="M253.269 381.274H250.701V387H247.479V371.359H253.29C255.138 371.359 256.563 371.771 257.565 372.595C258.568 373.418 259.069 374.582 259.069 376.086C259.069 377.153 258.837 378.045 258.371 378.761C257.913 379.47 257.215 380.035 256.276 380.458L259.66 386.85V387H256.201L253.269 381.274ZM250.701 378.664H253.301C254.11 378.664 254.737 378.46 255.181 378.052C255.625 377.636 255.847 377.067 255.847 376.344C255.847 375.606 255.635 375.026 255.213 374.604C254.798 374.181 254.157 373.97 253.29 373.97H250.701V378.664Z" fill="black"/>
<path d="M5.15918 226.476V239H0.94043V207.008H12.7397C16.2407 207.008 18.98 207.901 20.9575 209.688C22.9497 211.476 23.9458 213.841 23.9458 216.786C23.9458 219.891 22.9717 222.286 21.0234 223.971C19.0898 225.641 16.314 226.476 12.6958 226.476H5.15918ZM5.15918 223.026H12.7397C14.9956 223.026 16.7241 222.499 17.9253 221.444C19.1265 220.375 19.7271 218.836 19.7271 216.83C19.7271 214.925 19.1265 213.402 17.9253 212.259C16.7241 211.117 15.0762 210.523 12.9814 210.479H5.15918V223.026Z" fill="black"/>
<path d="M43.106 239C42.8716 238.531 42.6812 237.696 42.5347 236.495C40.645 238.458 38.3892 239.439 35.7671 239.439C33.4233 239.439 31.4971 238.78 29.9883 237.462C28.4941 236.129 27.7471 234.444 27.7471 232.408C27.7471 229.933 28.6846 228.014 30.5596 226.651C32.4492 225.274 35.1006 224.586 38.5137 224.586H42.4688V222.718C42.4688 221.297 42.0439 220.169 41.1943 219.334C40.3447 218.485 39.0923 218.06 37.437 218.06C35.9868 218.06 34.771 218.426 33.7896 219.159C32.8081 219.891 32.3174 220.777 32.3174 221.817H28.2305C28.2305 220.631 28.6479 219.488 29.4829 218.39C30.3325 217.276 31.4751 216.397 32.9106 215.753C34.3608 215.108 35.9502 214.786 37.6787 214.786C40.418 214.786 42.564 215.475 44.1167 216.852C45.6694 218.214 46.4751 220.096 46.5337 222.499V233.441C46.5337 235.624 46.812 237.359 47.3687 238.648V239H43.106ZM36.3604 235.902C37.6348 235.902 38.8433 235.572 39.9858 234.913C41.1284 234.254 41.9561 233.397 42.4688 232.342V227.464H39.2827C34.3022 227.464 31.812 228.922 31.812 231.837C31.812 233.111 32.2368 234.107 33.0864 234.825C33.936 235.543 35.0273 235.902 36.3604 235.902Z" fill="black"/>
<path d="M51.939 226.915C51.939 223.209 52.7959 220.265 54.5098 218.082C56.2236 215.885 58.4941 214.786 61.3213 214.786C64.2217 214.786 66.4849 215.812 68.1108 217.862L68.3086 215.226H72.022V238.429C72.022 241.505 71.1064 243.929 69.2754 245.702C67.459 247.474 65.0127 248.36 61.9365 248.36C60.2227 248.36 58.5454 247.994 56.9048 247.262C55.2642 246.529 54.0117 245.526 53.1475 244.251L55.2568 241.812C57 243.966 59.1313 245.042 61.6509 245.042C63.6284 245.042 65.1665 244.486 66.2651 243.373C67.3784 242.259 67.9351 240.692 67.9351 238.67V236.627C66.3091 238.502 64.0898 239.439 61.2773 239.439C58.4941 239.439 56.2383 238.319 54.5098 236.078C52.7959 233.836 51.939 230.782 51.939 226.915ZM56.0259 227.376C56.0259 230.057 56.5752 232.167 57.6738 233.705C58.7725 235.228 60.3105 235.99 62.2881 235.99C64.8516 235.99 66.7339 234.825 67.9351 232.496V221.642C66.6899 219.371 64.8223 218.236 62.332 218.236C60.3545 218.236 58.8091 219.005 57.6958 220.543C56.5825 222.081 56.0259 224.359 56.0259 227.376Z" fill="black"/>
<path d="M92.8521 239C92.6177 238.531 92.4272 237.696 92.2808 236.495C90.3911 238.458 88.1353 239.439 85.5132 239.439C83.1694 239.439 81.2432 238.78 79.7344 237.462C78.2402 236.129 77.4932 234.444 77.4932 232.408C77.4932 229.933 78.4307 228.014 80.3057 226.651C82.1953 225.274 84.8467 224.586 88.2598 224.586H92.2148V222.718C92.2148 221.297 91.79 220.169 90.9404 219.334C90.0908 218.485 88.8384 218.06 87.1831 218.06C85.7329 218.06 84.5171 218.426 83.5356 219.159C82.5542 219.891 82.0635 220.777 82.0635 221.817H77.9766C77.9766 220.631 78.394 219.488 79.229 218.39C80.0786 217.276 81.2212 216.397 82.6567 215.753C84.1069 215.108 85.6963 214.786 87.4248 214.786C90.1641 214.786 92.3101 215.475 93.8628 216.852C95.4155 218.214 96.2212 220.096 96.2798 222.499V233.441C96.2798 235.624 96.5581 237.359 97.1147 238.648V239H92.8521ZM86.1064 235.902C87.3809 235.902 88.5894 235.572 89.7319 234.913C90.8745 234.254 91.7021 233.397 92.2148 232.342V227.464H89.0288C84.0483 227.464 81.5581 228.922 81.5581 231.837C81.5581 233.111 81.9829 234.107 82.8325 234.825C83.6821 235.543 84.7734 235.902 86.1064 235.902Z" fill="black"/>
<path d="M106.475 215.226L106.585 217.862C108.328 215.812 110.679 214.786 113.638 214.786C116.963 214.786 119.227 216.061 120.428 218.609C121.219 217.467 122.244 216.544 123.504 215.841C124.778 215.138 126.28 214.786 128.008 214.786C133.223 214.786 135.875 217.547 135.962 223.07V239H131.897V223.312C131.897 221.612 131.509 220.345 130.733 219.51C129.957 218.661 128.653 218.236 126.822 218.236C125.313 218.236 124.061 218.69 123.064 219.598C122.068 220.492 121.49 221.7 121.329 223.224V239H117.242V223.421C117.242 219.964 115.55 218.236 112.166 218.236C109.5 218.236 107.676 219.371 106.695 221.642V239H102.63V215.226H106.475Z" fill="black"/>
<path d="M151.98 239.439C148.758 239.439 146.136 238.385 144.114 236.275C142.093 234.151 141.082 231.317 141.082 227.772V227.025C141.082 224.667 141.529 222.564 142.422 220.719C143.331 218.858 144.59 217.408 146.202 216.368C147.828 215.313 149.585 214.786 151.475 214.786C154.566 214.786 156.968 215.804 158.682 217.84C160.396 219.876 161.253 222.792 161.253 226.585V228.277H145.147C145.206 230.621 145.887 232.518 147.19 233.968C148.509 235.404 150.179 236.122 152.2 236.122C153.636 236.122 154.852 235.829 155.848 235.243C156.844 234.657 157.715 233.88 158.462 232.914L160.945 234.847C158.953 237.909 155.965 239.439 151.98 239.439ZM151.475 218.126C149.834 218.126 148.458 218.727 147.344 219.928C146.231 221.114 145.542 222.784 145.279 224.938H157.188V224.63C157.071 222.564 156.514 220.968 155.518 219.84C154.522 218.697 153.174 218.126 151.475 218.126Z" fill="black"/>
<path d="M169.822 215.226L169.954 218.214C171.771 215.929 174.144 214.786 177.073 214.786C182.098 214.786 184.632 217.621 184.676 223.29V239H180.611V223.268C180.596 221.554 180.201 220.287 179.424 219.466C178.663 218.646 177.469 218.236 175.843 218.236C174.524 218.236 173.367 218.587 172.371 219.291C171.375 219.994 170.599 220.917 170.042 222.059V239H165.977V215.226H169.822Z" fill="black"/>
<path d="M196.321 209.469V215.226H200.76V218.368H196.321V233.111C196.321 234.063 196.519 234.781 196.915 235.265C197.31 235.733 197.984 235.968 198.936 235.968C199.405 235.968 200.049 235.88 200.87 235.704V239C199.8 239.293 198.76 239.439 197.75 239.439C195.933 239.439 194.563 238.89 193.641 237.792C192.718 236.693 192.256 235.133 192.256 233.111V218.368H187.928V215.226H192.256V209.469H196.321Z" fill="black"/>
<path d="M204.012 226.893C204.012 224.564 204.466 222.469 205.374 220.609C206.297 218.749 207.571 217.313 209.197 216.302C210.838 215.292 212.706 214.786 214.8 214.786C218.038 214.786 220.652 215.907 222.645 218.148C224.651 220.389 225.655 223.37 225.655 227.091V227.376C225.655 229.691 225.208 231.771 224.314 233.617C223.436 235.448 222.168 236.876 220.513 237.901C218.873 238.927 216.983 239.439 214.844 239.439C211.622 239.439 209.007 238.319 207 236.078C205.008 233.836 204.012 230.87 204.012 227.179V226.893ZM208.099 227.376C208.099 230.013 208.707 232.13 209.922 233.727C211.153 235.323 212.793 236.122 214.844 236.122C216.91 236.122 218.55 235.316 219.766 233.705C220.982 232.079 221.59 229.808 221.59 226.893C221.59 224.286 220.967 222.176 219.722 220.565C218.492 218.939 216.851 218.126 214.8 218.126C212.793 218.126 211.175 218.924 209.944 220.521C208.714 222.118 208.099 224.403 208.099 227.376Z" fill="black"/>
<path d="M251.78 239.439C248.558 239.439 245.936 238.385 243.914 236.275C241.893 234.151 240.882 231.317 240.882 227.772V227.025C240.882 224.667 241.329 222.564 242.222 220.719C243.13 218.858 244.39 217.408 246.001 216.368C247.627 215.313 249.385 214.786 251.275 214.786C254.366 214.786 256.768 215.804 258.482 217.84C260.196 219.876 261.053 222.792 261.053 226.585V228.277H244.947C245.005 230.621 245.687 232.518 246.99 233.968C248.309 235.404 249.979 236.122 252 236.122C253.436 236.122 254.651 235.829 255.647 235.243C256.644 234.657 257.515 233.88 258.262 232.914L260.745 234.847C258.753 237.909 255.765 239.439 251.78 239.439ZM251.275 218.126C249.634 218.126 248.257 218.727 247.144 219.928C246.031 221.114 245.342 222.784 245.079 224.938H256.988V224.63C256.871 222.564 256.314 220.968 255.318 219.84C254.322 218.697 252.974 218.126 251.275 218.126Z" fill="black"/>
<path d="M267.776 239V218.368H264.019V215.226H267.776V212.787C267.776 210.238 268.458 208.268 269.82 206.876C271.182 205.484 273.108 204.789 275.599 204.789C276.536 204.789 277.466 204.913 278.389 205.162L278.169 208.458C277.481 208.326 276.749 208.26 275.972 208.26C274.654 208.26 273.636 208.648 272.918 209.425C272.2 210.187 271.841 211.285 271.841 212.721V215.226H276.917V218.368H271.841V239H267.776Z" fill="black"/>
<path d="M290.76 239.439C287.537 239.439 284.915 238.385 282.894 236.275C280.872 234.151 279.861 231.317 279.861 227.772V227.025C279.861 224.667 280.308 222.564 281.202 220.719C282.11 218.858 283.37 217.408 284.981 216.368C286.607 215.313 288.365 214.786 290.254 214.786C293.345 214.786 295.748 215.804 297.461 217.84C299.175 219.876 300.032 222.792 300.032 226.585V228.277H283.926C283.985 230.621 284.666 232.518 285.97 233.968C287.288 235.404 288.958 236.122 290.979 236.122C292.415 236.122 293.631 235.829 294.627 235.243C295.623 234.657 296.495 233.88 297.242 232.914L299.725 234.847C297.732 237.909 294.744 239.439 290.76 239.439ZM290.254 218.126C288.614 218.126 287.237 218.727 286.124 219.928C285.01 221.114 284.322 222.784 284.058 224.938H295.967V224.63C295.85 222.564 295.293 220.968 294.297 219.84C293.301 218.697 291.954 218.126 290.254 218.126Z" fill="black"/>
<path d="M310.271 209.469V215.226H314.71V218.368H310.271V233.111C310.271 234.063 310.469 234.781 310.865 235.265C311.26 235.733 311.934 235.968 312.886 235.968C313.355 235.968 314 235.88 314.82 235.704V239C313.75 239.293 312.71 239.439 311.7 239.439C309.883 239.439 308.514 238.89 307.591 237.792C306.668 236.693 306.207 235.133 306.207 233.111V218.368H301.878V215.226H306.207V209.469H310.271Z" fill="black"/>
<path d="M334.156 236.649C332.574 238.509 330.252 239.439 327.19 239.439C324.656 239.439 322.723 238.707 321.39 237.242C320.071 235.763 319.405 233.58 319.39 230.694V215.226H323.455V230.584C323.455 234.188 324.92 235.99 327.85 235.99C330.955 235.99 333.021 234.833 334.046 232.518V215.226H338.111V239H334.244L334.156 236.649Z" fill="black"/>
<path d="M358.985 239C358.75 238.531 358.56 237.696 358.414 236.495C356.524 238.458 354.268 239.439 351.646 239.439C349.302 239.439 347.376 238.78 345.867 237.462C344.373 236.129 343.626 234.444 343.626 232.408C343.626 229.933 344.563 228.014 346.438 226.651C348.328 225.274 350.979 224.586 354.393 224.586H358.348V222.718C358.348 221.297 357.923 220.169 357.073 219.334C356.224 218.485 354.971 218.06 353.316 218.06C351.866 218.06 350.65 218.426 349.668 219.159C348.687 219.891 348.196 220.777 348.196 221.817H344.109C344.109 220.631 344.527 219.488 345.362 218.39C346.211 217.276 347.354 216.397 348.79 215.753C350.24 215.108 351.829 214.786 353.558 214.786C356.297 214.786 358.443 215.475 359.996 216.852C361.548 218.214 362.354 220.096 362.413 222.499V233.441C362.413 235.624 362.691 237.359 363.248 238.648V239H358.985ZM352.239 235.902C353.514 235.902 354.722 235.572 355.865 234.913C357.007 234.254 357.835 233.397 358.348 232.342V227.464H355.162C350.181 227.464 347.691 228.922 347.691 231.837C347.691 233.111 348.116 234.107 348.965 234.825C349.815 235.543 350.906 235.902 352.239 235.902Z" fill="black"/>
<path d="M367.796 226.915C367.796 223.268 368.66 220.338 370.389 218.126C372.117 215.899 374.38 214.786 377.178 214.786C379.961 214.786 382.166 215.738 383.792 217.643V205.25H387.857V239H384.122L383.924 236.451C382.298 238.443 380.035 239.439 377.134 239.439C374.38 239.439 372.132 238.312 370.389 236.056C368.66 233.8 367.796 230.855 367.796 227.223V226.915ZM371.861 227.376C371.861 230.072 372.417 232.181 373.531 233.705C374.644 235.228 376.182 235.99 378.145 235.99C380.723 235.99 382.605 234.833 383.792 232.518V221.598C382.576 219.356 380.708 218.236 378.189 218.236C376.197 218.236 374.644 219.005 373.531 220.543C372.417 222.081 371.861 224.359 371.861 227.376Z" fill="black"/>
<path d="M393.108 226.893C393.108 224.564 393.562 222.469 394.471 220.609C395.394 218.749 396.668 217.313 398.294 216.302C399.935 215.292 401.802 214.786 403.897 214.786C407.134 214.786 409.749 215.907 411.741 218.148C413.748 220.389 414.751 223.37 414.751 227.091V227.376C414.751 229.691 414.305 231.771 413.411 233.617C412.532 235.448 411.265 236.876 409.61 237.901C407.969 238.927 406.08 239.439 403.941 239.439C400.718 239.439 398.104 238.319 396.097 236.078C394.104 233.836 393.108 230.87 393.108 227.179V226.893ZM397.195 227.376C397.195 230.013 397.803 232.13 399.019 233.727C400.25 235.323 401.89 236.122 403.941 236.122C406.006 236.122 407.647 235.316 408.863 233.705C410.079 232.079 410.687 229.808 410.687 226.893C410.687 224.286 410.064 222.176 408.819 220.565C407.588 218.939 405.948 218.126 403.897 218.126C401.89 218.126 400.271 218.924 399.041 220.521C397.811 222.118 397.195 224.403 397.195 227.376Z" fill="black"/>
<path d="M80.1299 288.122C81.5801 288.122 82.8472 287.682 83.9312 286.803C85.0151 285.924 85.6157 284.826 85.7329 283.507H89.5781C89.5049 284.87 89.0361 286.166 88.1719 287.396C87.3076 288.627 86.1504 289.608 84.7002 290.341C83.2646 291.073 81.7412 291.439 80.1299 291.439C76.8926 291.439 74.3145 290.363 72.3955 288.209C70.4912 286.042 69.5391 283.083 69.5391 279.333V278.651C69.5391 276.337 69.9639 274.279 70.8135 272.477C71.6631 270.675 72.8789 269.276 74.4609 268.28C76.0576 267.284 77.9399 266.786 80.1079 266.786C82.7739 266.786 84.9858 267.584 86.7437 269.181C88.5161 270.778 89.4609 272.851 89.5781 275.399H85.7329C85.6157 273.861 85.0298 272.602 83.9751 271.62C82.9351 270.624 81.646 270.126 80.1079 270.126C78.0425 270.126 76.4385 270.873 75.2959 272.367C74.168 273.847 73.604 275.993 73.604 278.805V279.574C73.604 282.313 74.168 284.423 75.2959 285.902C76.4238 287.382 78.0352 288.122 80.1299 288.122Z" fill="black"/>
<path d="M93.0718 278.893C93.0718 276.564 93.5259 274.469 94.4341 272.609C95.3569 270.749 96.6313 269.313 98.2573 268.302C99.8979 267.292 101.766 266.786 103.86 266.786C107.098 266.786 109.712 267.907 111.705 270.148C113.711 272.389 114.715 275.37 114.715 279.091V279.376C114.715 281.691 114.268 283.771 113.375 285.617C112.496 287.448 111.229 288.876 109.573 289.901C107.933 290.927 106.043 291.439 103.904 291.439C100.682 291.439 98.0669 290.319 96.0601 288.078C94.0679 285.836 93.0718 282.87 93.0718 279.179V278.893ZM97.1587 279.376C97.1587 282.013 97.7666 284.13 98.9824 285.727C100.213 287.323 101.854 288.122 103.904 288.122C105.97 288.122 107.61 287.316 108.826 285.705C110.042 284.079 110.65 281.808 110.65 278.893C110.65 276.286 110.027 274.176 108.782 272.565C107.552 270.939 105.911 270.126 103.86 270.126C101.854 270.126 100.235 270.924 99.0044 272.521C97.7739 274.118 97.1587 276.403 97.1587 279.376Z" fill="black"/>
<path d="M123.636 267.226L123.746 269.862C125.489 267.812 127.84 266.786 130.799 266.786C134.124 266.786 136.387 268.061 137.588 270.609C138.379 269.467 139.405 268.544 140.665 267.841C141.939 267.138 143.44 266.786 145.169 266.786C150.384 266.786 153.035 269.547 153.123 275.07V291H149.058V275.312C149.058 273.612 148.67 272.345 147.894 271.51C147.117 270.661 145.813 270.236 143.982 270.236C142.474 270.236 141.221 270.69 140.225 271.598C139.229 272.492 138.65 273.7 138.489 275.224V291H134.402V275.421C134.402 271.964 132.71 270.236 129.327 270.236C126.661 270.236 124.837 271.371 123.855 273.642V291H119.791V267.226H123.636Z" fill="black"/>
<path d="M184.28 284.694C184.28 283.595 183.863 282.746 183.028 282.145C182.208 281.53 180.765 281.002 178.699 280.563C176.648 280.124 175.015 279.596 173.799 278.981C172.598 278.366 171.705 277.633 171.119 276.784C170.547 275.934 170.262 274.923 170.262 273.751C170.262 271.803 171.082 270.155 172.723 268.808C174.378 267.46 176.487 266.786 179.051 266.786C181.746 266.786 183.929 267.482 185.599 268.874C187.283 270.265 188.125 272.045 188.125 274.213H184.039C184.039 273.1 183.562 272.14 182.61 271.334C181.673 270.529 180.486 270.126 179.051 270.126C177.571 270.126 176.414 270.448 175.579 271.093C174.744 271.737 174.327 272.58 174.327 273.62C174.327 274.601 174.715 275.341 175.491 275.839C176.268 276.337 177.667 276.813 179.688 277.267C181.724 277.721 183.372 278.263 184.632 278.893C185.892 279.523 186.822 280.285 187.422 281.178C188.038 282.057 188.345 283.134 188.345 284.408C188.345 286.532 187.496 288.239 185.796 289.528C184.097 290.802 181.893 291.439 179.183 291.439C177.278 291.439 175.594 291.103 174.129 290.429C172.664 289.755 171.514 288.817 170.679 287.616C169.859 286.4 169.449 285.089 169.449 283.683H173.514C173.587 285.045 174.129 286.129 175.14 286.935C176.165 287.726 177.513 288.122 179.183 288.122C180.721 288.122 181.951 287.814 182.874 287.199C183.812 286.569 184.28 285.734 184.28 284.694Z" fill="black"/>
<path d="M208.318 288.649C206.736 290.509 204.415 291.439 201.353 291.439C198.819 291.439 196.885 290.707 195.552 289.242C194.234 287.763 193.567 285.58 193.553 282.694V267.226H197.618V282.584C197.618 286.188 199.083 287.99 202.012 287.99C205.118 287.99 207.183 286.833 208.208 284.518V267.226H212.273V291H208.406L208.318 288.649Z" fill="black"/>
<path d="M228.006 288.122C229.456 288.122 230.723 287.682 231.807 286.803C232.891 285.924 233.492 284.826 233.609 283.507H237.454C237.381 284.87 236.912 286.166 236.048 287.396C235.184 288.627 234.026 289.608 232.576 290.341C231.141 291.073 229.617 291.439 228.006 291.439C224.769 291.439 222.19 290.363 220.271 288.209C218.367 286.042 217.415 283.083 217.415 279.333V278.651C217.415 276.337 217.84 274.279 218.689 272.477C219.539 270.675 220.755 269.276 222.337 268.28C223.934 267.284 225.816 266.786 227.984 266.786C230.65 266.786 232.862 267.584 234.62 269.181C236.392 270.778 237.337 272.851 237.454 275.399H233.609C233.492 273.861 232.906 272.602 231.851 271.62C230.811 270.624 229.522 270.126 227.984 270.126C225.918 270.126 224.314 270.873 223.172 272.367C222.044 273.847 221.48 275.993 221.48 278.805V279.574C221.48 282.313 222.044 284.423 223.172 285.902C224.3 287.382 225.911 288.122 228.006 288.122Z" fill="black"/>
<path d="M251.89 291.439C248.667 291.439 246.045 290.385 244.024 288.275C242.002 286.151 240.992 283.317 240.992 279.772V279.025C240.992 276.667 241.438 274.564 242.332 272.719C243.24 270.858 244.5 269.408 246.111 268.368C247.737 267.313 249.495 266.786 251.385 266.786C254.476 266.786 256.878 267.804 258.592 269.84C260.306 271.876 261.163 274.792 261.163 278.585V280.277H245.057C245.115 282.621 245.796 284.518 247.1 285.968C248.418 287.404 250.088 288.122 252.11 288.122C253.545 288.122 254.761 287.829 255.757 287.243C256.753 286.657 257.625 285.88 258.372 284.914L260.855 286.847C258.863 289.909 255.875 291.439 251.89 291.439ZM251.385 270.126C249.744 270.126 248.367 270.727 247.254 271.928C246.141 273.114 245.452 274.784 245.188 276.938H257.098V276.63C256.98 274.564 256.424 272.968 255.428 271.84C254.432 270.697 253.084 270.126 251.385 270.126Z" fill="black"/>
<path d="M279.729 284.694C279.729 283.595 279.312 282.746 278.477 282.145C277.657 281.53 276.214 281.002 274.148 280.563C272.098 280.124 270.464 279.596 269.249 278.981C268.047 278.366 267.154 277.633 266.568 276.784C265.997 275.934 265.711 274.923 265.711 273.751C265.711 271.803 266.531 270.155 268.172 268.808C269.827 267.46 271.937 266.786 274.5 266.786C277.195 266.786 279.378 267.482 281.048 268.874C282.732 270.265 283.575 272.045 283.575 274.213H279.488C279.488 273.1 279.012 272.14 278.06 271.334C277.122 270.529 275.936 270.126 274.5 270.126C273.021 270.126 271.863 270.448 271.028 271.093C270.193 271.737 269.776 272.58 269.776 273.62C269.776 274.601 270.164 275.341 270.94 275.839C271.717 276.337 273.116 276.813 275.137 277.267C277.173 277.721 278.821 278.263 280.081 278.893C281.341 279.523 282.271 280.285 282.872 281.178C283.487 282.057 283.794 283.134 283.794 284.408C283.794 286.532 282.945 288.239 281.246 289.528C279.546 290.802 277.342 291.439 274.632 291.439C272.728 291.439 271.043 291.103 269.578 290.429C268.113 289.755 266.963 288.817 266.128 287.616C265.308 286.4 264.898 285.089 264.898 283.683H268.963C269.036 285.045 269.578 286.129 270.589 286.935C271.614 287.726 272.962 288.122 274.632 288.122C276.17 288.122 277.4 287.814 278.323 287.199C279.261 286.569 279.729 285.734 279.729 284.694Z" fill="black"/>
<path d="M302.933 284.694C302.933 283.595 302.515 282.746 301.68 282.145C300.86 281.53 299.417 281.002 297.352 280.563C295.301 280.124 293.667 279.596 292.452 278.981C291.25 278.366 290.357 277.633 289.771 276.784C289.2 275.934 288.914 274.923 288.914 273.751C288.914 271.803 289.734 270.155 291.375 268.808C293.03 267.46 295.14 266.786 297.703 266.786C300.398 266.786 302.581 267.482 304.251 268.874C305.936 270.265 306.778 272.045 306.778 274.213H302.691C302.691 273.1 302.215 272.14 301.263 271.334C300.325 270.529 299.139 270.126 297.703 270.126C296.224 270.126 295.066 270.448 294.231 271.093C293.396 271.737 292.979 272.58 292.979 273.62C292.979 274.601 293.367 275.341 294.144 275.839C294.92 276.337 296.319 276.813 298.34 277.267C300.376 277.721 302.024 278.263 303.284 278.893C304.544 279.523 305.474 280.285 306.075 281.178C306.69 282.057 306.998 283.134 306.998 284.408C306.998 286.532 306.148 288.239 304.449 289.528C302.75 290.802 300.545 291.439 297.835 291.439C295.931 291.439 294.246 291.103 292.781 290.429C291.316 289.755 290.167 288.817 289.332 287.616C288.511 286.4 288.101 285.089 288.101 283.683H292.166C292.239 285.045 292.781 286.129 293.792 286.935C294.817 287.726 296.165 288.122 297.835 288.122C299.373 288.122 300.604 287.814 301.526 287.199C302.464 286.569 302.933 285.734 302.933 284.694Z" fill="black"/>
<path d="M311.216 278.893C311.216 276.564 311.67 274.469 312.579 272.609C313.501 270.749 314.776 269.313 316.402 268.302C318.042 267.292 319.91 266.786 322.005 266.786C325.242 266.786 327.857 267.907 329.849 270.148C331.856 272.389 332.859 275.37 332.859 279.091V279.376C332.859 281.691 332.413 283.771 331.519 285.617C330.64 287.448 329.373 288.876 327.718 289.901C326.077 290.927 324.188 291.439 322.049 291.439C318.826 291.439 316.211 290.319 314.205 288.078C312.212 285.836 311.216 282.87 311.216 279.179V278.893ZM315.303 279.376C315.303 282.013 315.911 284.13 317.127 285.727C318.357 287.323 319.998 288.122 322.049 288.122C324.114 288.122 325.755 287.316 326.971 285.705C328.187 284.079 328.794 281.808 328.794 278.893C328.794 276.286 328.172 274.176 326.927 272.565C325.696 270.939 324.056 270.126 322.005 270.126C319.998 270.126 318.379 270.924 317.149 272.521C315.918 274.118 315.303 276.403 315.303 279.376Z" fill="black"/>
<path d="M342.505 281.969H338.836L338.55 259.008H342.813L342.505 281.969ZM338.396 288.957C338.396 288.297 338.594 287.748 338.99 287.309C339.4 286.854 340 286.627 340.792 286.627C341.583 286.627 342.183 286.854 342.593 287.309C343.003 287.748 343.208 288.297 343.208 288.957C343.208 289.616 343.003 290.165 342.593 290.604C342.183 291.029 341.583 291.242 340.792 291.242C340 291.242 339.4 291.029 338.99 290.604C338.594 290.165 338.396 289.616 338.396 288.957Z" fill="black"/>
<rect width="163" height="148" fill="black" fill-opacity="0" transform="translate(126)"/>
<rect width="163" height="148" fill="black" fill-opacity="0" transform="translate(126)"/>
<path fill-rule="evenodd" clip-rule="evenodd" d="M175.87 91.0062H271.915L289 30.795H264.065L254.83 3.21739L217.428 15.1677L222.507 30.795H220.66L211.425 3.21739L174.023 15.1677L179.102 30.795H159.246L155.091 14.2484C153.244 5.97516 145.856 0 137.544 0H126V6.89441H137.544C142.623 6.89441 147.241 10.5714 148.626 15.6273L167.096 87.3292C155.091 95.6025 161.093 114.447 175.87 114.447H269.606V107.553H175.87C164.788 107.553 165.249 91.0062 175.87 91.0062ZM250.674 11.4907L256.677 30.3354H229.895L225.739 19.764L250.674 11.4907ZM207.269 11.4907L213.272 30.3354H186.49L182.334 19.764L207.269 11.4907ZM279.765 37.2298L266.836 84.1118H173.099L161.093 37.2298H279.765Z" fill="black"/>
<path fill-rule="evenodd" clip-rule="evenodd" d="M239.13 119.043C231.28 119.043 224.354 125.478 224.354 133.752C224.354 141.565 231.28 148 239.13 148C247.442 148 253.445 141.565 253.445 133.752C253.445 125.478 246.98 119.043 239.13 119.043ZM239.13 141.565C234.513 141.565 231.28 137.888 231.28 133.752C231.28 129.155 234.974 125.478 239.13 125.478C243.748 125.478 246.98 129.155 246.98 133.752C246.98 138.348 243.286 141.565 239.13 141.565Z" fill="black"/>
<path fill-rule="evenodd" clip-rule="evenodd" d="M185.566 119.043C177.717 119.043 171.252 125.478 171.252 133.752C171.252 141.565 177.717 148 185.566 148C193.416 148 200.343 141.565 200.343 133.752C200.343 125.478 193.416 119.043 185.566 119.043ZM185.566 141.565C180.949 141.565 177.717 137.888 177.717 133.752C177.717 129.155 181.411 125.478 185.566 125.478C189.722 125.478 193.416 129.155 193.416 133.752C193.416 138.348 189.722 141.565 185.566 141.565Z" fill="black"/>
</svg>
