<svg width="198" height="65" viewBox="0 0 198 65" fill="none" xmlns="http://www.w3.org/2000/svg">
<rect width="198" height="65" fill="black" fill-opacity="0"/>
<path d="M61.6475 37.8955C61.4814 40.1904 60.6318 41.9971 59.0986 43.3154C57.5752 44.6338 55.5635 45.293 53.0635 45.293C50.3291 45.293 48.1758 44.375 46.6035 42.5391C45.041 40.6934 44.2598 38.1641 44.2598 34.9512V33.6475C44.2598 31.5967 44.6211 29.79 45.3438 28.2275C46.0664 26.665 47.0967 25.4688 48.4346 24.6387C49.7822 23.7988 51.3447 23.3789 53.1221 23.3789C55.583 23.3789 57.5654 24.0381 59.0693 25.3564C60.5732 26.6748 61.4424 28.5254 61.6768 30.9082H57.2822C57.1748 29.5312 56.7891 28.5352 56.125 27.9199C55.4707 27.2949 54.4697 26.9824 53.1221 26.9824C51.6572 26.9824 50.5586 27.5098 49.8262 28.5645C49.1035 29.6094 48.7324 31.2354 48.7129 33.4424V35.0537C48.7129 37.3584 49.0596 39.043 49.7529 40.1074C50.4561 41.1719 51.5596 41.7041 53.0635 41.7041C54.4209 41.7041 55.4316 41.3965 56.0957 40.7812C56.7695 40.1562 57.1553 39.1943 57.2529 37.8955H61.6475ZM81.8916 45H77.4971V35.8594H68.9277V45H64.5332V23.6719H68.9277V32.3145H77.4971V23.6719H81.8916V45ZM98.5762 35.7568H90.1387V41.4697H100.041V45H85.7441V23.6719H100.012V27.2314H90.1387V32.3145H98.5762V35.7568ZM119.362 37.8955C119.196 40.1904 118.347 41.9971 116.813 43.3154C115.29 44.6338 113.278 45.293 110.778 45.293C108.044 45.293 105.891 44.375 104.318 42.5391C102.756 40.6934 101.975 38.1641 101.975 34.9512V33.6475C101.975 31.5967 102.336 29.79 103.059 28.2275C103.781 26.665 104.812 25.4688 106.149 24.6387C107.497 23.7988 109.06 23.3789 110.837 23.3789C113.298 23.3789 115.28 24.0381 116.784 25.3564C118.288 26.6748 119.157 28.5254 119.392 30.9082H114.997C114.89 29.5312 114.504 28.5352 113.84 27.9199C113.186 27.2949 112.185 26.9824 110.837 26.9824C109.372 26.9824 108.273 27.5098 107.541 28.5645C106.818 29.6094 106.447 31.2354 106.428 33.4424V35.0537C106.428 37.3584 106.774 39.043 107.468 40.1074C108.171 41.1719 109.274 41.7041 110.778 41.7041C112.136 41.7041 113.146 41.3965 113.811 40.7812C114.484 40.1562 114.87 39.1943 114.968 37.8955H119.362ZM128.928 36.4453L126.643 38.9062V45H122.248V23.6719H126.643V33.3398L128.576 30.6885L134.011 23.6719H139.416L131.843 33.1494L139.636 45H134.406L128.928 36.4453ZM158.342 34.8193C158.342 36.9189 157.971 38.7598 157.229 40.3418C156.486 41.9238 155.422 43.1445 154.035 44.0039C152.658 44.8633 151.076 45.293 149.289 45.293C147.521 45.293 145.944 44.8682 144.558 44.0186C143.171 43.1689 142.097 41.958 141.335 40.3857C140.573 38.8037 140.188 36.9873 140.178 34.9365V33.8818C140.178 31.7822 140.554 29.9365 141.306 28.3447C142.067 26.7432 143.137 25.5176 144.514 24.668C145.9 23.8086 147.482 23.3789 149.26 23.3789C151.037 23.3789 152.614 23.8086 153.991 24.668C155.378 25.5176 156.447 26.7432 157.199 28.3447C157.961 29.9365 158.342 31.7773 158.342 33.8672V34.8193ZM153.889 33.8525C153.889 31.6162 153.488 29.917 152.688 28.7549C151.887 27.5928 150.744 27.0117 149.26 27.0117C147.785 27.0117 146.647 27.5879 145.847 28.7402C145.046 29.8828 144.641 31.5625 144.631 33.7793V34.8193C144.631 36.9971 145.031 38.6865 145.832 39.8877C146.633 41.0889 147.785 41.6895 149.289 41.6895C150.764 41.6895 151.896 41.1133 152.688 39.9609C153.479 38.7988 153.879 37.1094 153.889 34.8926V33.8525ZM177.678 23.6719V37.7197C177.678 40.0537 176.945 41.8994 175.48 43.2568C174.025 44.6143 172.033 45.293 169.504 45.293C167.014 45.293 165.036 44.6338 163.571 43.3154C162.106 41.9971 161.359 40.1855 161.33 37.8809V23.6719H165.725V37.749C165.725 39.1455 166.057 40.166 166.721 40.8105C167.395 41.4453 168.322 41.7627 169.504 41.7627C171.975 41.7627 173.229 40.4639 173.269 37.8662V23.6719H177.678ZM197.336 27.2314H190.803V45H186.408V27.2314H179.963V23.6719H197.336V27.2314Z" fill="#454545"/>
<path d="M12.42 53.535V48.225H8.82L3.6 45.21V40.575H8.1V44.175H20.475V34.365H9.27L4.05 31.35V19.29L9.27 16.275H12.42V10.965H16.92V16.275H19.755L24.975 19.29V23.925H20.475V20.325H8.55V29.865H19.755L24.975 32.88V45.21L19.755 48.225H16.92V53.535H12.42Z" fill="#454545"/>
</svg>
